%TF.GenerationSoftware,KiCad,Pcbnew,(6.0.7)*%
%TF.CreationDate,2022-10-18T15:45:19-04:00*%
%TF.ProjectId,LCDPCB,4c434450-4342-42e6-9b69-6361645f7063,rev?*%
%TF.SameCoordinates,Original*%
%TF.FileFunction,Legend,Top*%
%TF.FilePolarity,Positive*%
%FSLAX46Y46*%
G04 Gerber Fmt 4.6, Leading zero omitted, Abs format (unit mm)*
G04 Created by KiCad (PCBNEW (6.0.7)) date 2022-10-18 15:45:19*
%MOMM*%
%LPD*%
G01*
G04 APERTURE LIST*
%ADD10C,0.150000*%
%ADD11C,0.254000*%
%ADD12C,0.200000*%
%ADD13C,0.120000*%
%ADD14C,0.250000*%
G04 APERTURE END LIST*
D10*
%TO.C,J2*%
X113991666Y-74162380D02*
X113991666Y-74876666D01*
X113944047Y-75019523D01*
X113848809Y-75114761D01*
X113705952Y-75162380D01*
X113610714Y-75162380D01*
X114420238Y-74257619D02*
X114467857Y-74210000D01*
X114563095Y-74162380D01*
X114801190Y-74162380D01*
X114896428Y-74210000D01*
X114944047Y-74257619D01*
X114991666Y-74352857D01*
X114991666Y-74448095D01*
X114944047Y-74590952D01*
X114372619Y-75162380D01*
X114991666Y-75162380D01*
%TO.C,U2*%
X118160895Y-72532380D02*
X118160895Y-73341904D01*
X118208514Y-73437142D01*
X118256133Y-73484761D01*
X118351371Y-73532380D01*
X118541847Y-73532380D01*
X118637085Y-73484761D01*
X118684704Y-73437142D01*
X118732323Y-73341904D01*
X118732323Y-72532380D01*
X119160895Y-72627619D02*
X119208514Y-72580000D01*
X119303752Y-72532380D01*
X119541847Y-72532380D01*
X119637085Y-72580000D01*
X119684704Y-72627619D01*
X119732323Y-72722857D01*
X119732323Y-72818095D01*
X119684704Y-72960952D01*
X119113276Y-73532380D01*
X119732323Y-73532380D01*
D11*
%TO.C,SW1*%
X160854866Y-80298847D02*
X161036295Y-80359323D01*
X161338676Y-80359323D01*
X161459628Y-80298847D01*
X161520104Y-80238371D01*
X161580580Y-80117419D01*
X161580580Y-79996466D01*
X161520104Y-79875514D01*
X161459628Y-79815038D01*
X161338676Y-79754561D01*
X161096771Y-79694085D01*
X160975819Y-79633609D01*
X160915342Y-79573133D01*
X160854866Y-79452180D01*
X160854866Y-79331228D01*
X160915342Y-79210276D01*
X160975819Y-79149800D01*
X161096771Y-79089323D01*
X161399152Y-79089323D01*
X161580580Y-79149800D01*
X162003914Y-79089323D02*
X162306295Y-80359323D01*
X162548200Y-79452180D01*
X162790104Y-80359323D01*
X163092485Y-79089323D01*
X164241533Y-80359323D02*
X163515819Y-80359323D01*
X163878676Y-80359323D02*
X163878676Y-79089323D01*
X163757723Y-79270752D01*
X163636771Y-79391704D01*
X163515819Y-79452180D01*
D10*
%TO.C,J4*%
X113966666Y-88562380D02*
X113966666Y-89276666D01*
X113919047Y-89419523D01*
X113823809Y-89514761D01*
X113680952Y-89562380D01*
X113585714Y-89562380D01*
X114871428Y-88895714D02*
X114871428Y-89562380D01*
X114633333Y-88514761D02*
X114395238Y-89229047D01*
X115014285Y-89229047D01*
%TO.C,J1*%
X159952380Y-98133333D02*
X160666666Y-98133333D01*
X160809523Y-98180952D01*
X160904761Y-98276190D01*
X160952380Y-98419047D01*
X160952380Y-98514285D01*
X160952380Y-97133333D02*
X160952380Y-97704761D01*
X160952380Y-97419047D02*
X159952380Y-97419047D01*
X160095238Y-97514285D01*
X160190476Y-97609523D01*
X160238095Y-97704761D01*
D11*
%TO.C,U1*%
X142288380Y-84140523D02*
X142288380Y-85168619D01*
X142348857Y-85289571D01*
X142409333Y-85350047D01*
X142530285Y-85410523D01*
X142772190Y-85410523D01*
X142893142Y-85350047D01*
X142953619Y-85289571D01*
X143014095Y-85168619D01*
X143014095Y-84140523D01*
X144284095Y-85410523D02*
X143558380Y-85410523D01*
X143921238Y-85410523D02*
X143921238Y-84140523D01*
X143800285Y-84321952D01*
X143679333Y-84442904D01*
X143558380Y-84503380D01*
D10*
%TO.C,J5*%
X167357466Y-88562380D02*
X167357466Y-89276666D01*
X167309847Y-89419523D01*
X167214609Y-89514761D01*
X167071752Y-89562380D01*
X166976514Y-89562380D01*
X168309847Y-88562380D02*
X167833657Y-88562380D01*
X167786038Y-89038571D01*
X167833657Y-88990952D01*
X167928895Y-88943333D01*
X168166990Y-88943333D01*
X168262228Y-88990952D01*
X168309847Y-89038571D01*
X168357466Y-89133809D01*
X168357466Y-89371904D01*
X168309847Y-89467142D01*
X168262228Y-89514761D01*
X168166990Y-89562380D01*
X167928895Y-89562380D01*
X167833657Y-89514761D01*
X167786038Y-89467142D01*
D12*
%TO.C,R6*%
X118618000Y-83075000D02*
X118618000Y-82025000D01*
D13*
%TO.C,J2*%
X115655000Y-76150000D02*
X115655000Y-77480000D01*
X112995000Y-78750000D02*
X112995000Y-86430000D01*
X112995000Y-78750000D02*
X115655000Y-78750000D01*
X112995000Y-86430000D02*
X115655000Y-86430000D01*
X114325000Y-76150000D02*
X115655000Y-76150000D01*
X115655000Y-78750000D02*
X115655000Y-86430000D01*
D12*
%TO.C,R3*%
X134865600Y-70561200D02*
X133815600Y-70561200D01*
D13*
%TO.C,U2*%
X120772800Y-65170000D02*
X117012800Y-65170000D01*
X117012800Y-65170000D02*
X117012800Y-66430000D01*
X123022800Y-71990000D02*
X117012800Y-71990000D01*
X117012800Y-71990000D02*
X117012800Y-70730000D01*
D12*
%TO.C,SW1*%
X159255200Y-82806800D02*
X165255200Y-82806800D01*
X165255200Y-82806800D02*
X165255200Y-76806800D01*
X159255200Y-76806800D02*
X159255200Y-82806800D01*
X165255200Y-76806800D02*
X159255200Y-76806800D01*
X160057200Y-86345800D02*
G75*
G03*
X160057200Y-86345800I-52000J0D01*
G01*
%TO.C,D1*%
X119702000Y-76830000D02*
X118042000Y-76830000D01*
X120554000Y-78110000D02*
X118042000Y-78110000D01*
D13*
%TO.C,J4*%
X112970000Y-91440000D02*
X112970000Y-90110000D01*
X112970000Y-92710000D02*
X115630000Y-92710000D01*
X112970000Y-92710000D02*
X112970000Y-110550000D01*
X112970000Y-90110000D02*
X114300000Y-90110000D01*
X115630000Y-92710000D02*
X115630000Y-110550000D01*
X112970000Y-110550000D02*
X115630000Y-110550000D01*
D12*
%TO.C,R4*%
X148615400Y-66277000D02*
X148615400Y-67327000D01*
%TO.C,D2*%
X132339600Y-70667800D02*
X129827600Y-70667800D01*
X131487600Y-69387800D02*
X129827600Y-69387800D01*
%TO.C,R2*%
X139787000Y-75288000D02*
X139787000Y-74238000D01*
D13*
%TO.C,J1*%
X156230000Y-100415000D02*
X123150000Y-100415000D01*
X123150000Y-97755000D02*
X123150000Y-100415000D01*
X158830000Y-99085000D02*
X158830000Y-100415000D01*
X158830000Y-100415000D02*
X157500000Y-100415000D01*
X156230000Y-97755000D02*
X156230000Y-100415000D01*
X156230000Y-97755000D02*
X123150000Y-97755000D01*
D12*
%TO.C,D3*%
X144898800Y-66187400D02*
X143238800Y-66187400D01*
X145750800Y-67467400D02*
X143238800Y-67467400D01*
%TO.C,U1*%
X136142200Y-80033600D02*
X145442200Y-80033600D01*
X136142200Y-89333600D02*
X136142200Y-80033600D01*
X145442200Y-80033600D02*
X145442200Y-89333600D01*
X145442200Y-89333600D02*
X136142200Y-89333600D01*
D14*
X134692200Y-80183600D02*
G75*
G03*
X134692200Y-80183600I-125000J0D01*
G01*
D13*
%TO.C,J3*%
X137220000Y-59670000D02*
X137220000Y-57070000D01*
X134620000Y-59670000D02*
X137220000Y-59670000D01*
X147440000Y-62270000D02*
X147440000Y-57070000D01*
X134620000Y-62270000D02*
X147440000Y-62270000D01*
X134620000Y-57070000D02*
X135950000Y-57070000D01*
X137220000Y-57070000D02*
X147440000Y-57070000D01*
X134620000Y-62270000D02*
X134620000Y-59670000D01*
X134620000Y-58400000D02*
X134620000Y-57070000D01*
D12*
%TO.C,R1*%
X154250000Y-78950000D02*
X155300000Y-78950000D01*
%TO.C,R5*%
X118618000Y-80535000D02*
X118618000Y-79485000D01*
D13*
%TO.C,J5*%
X166360800Y-90110000D02*
X167690800Y-90110000D01*
X166360800Y-110550000D02*
X169020800Y-110550000D01*
X166360800Y-92710000D02*
X166360800Y-110550000D01*
X166360800Y-92710000D02*
X169020800Y-92710000D01*
X166360800Y-91440000D02*
X166360800Y-90110000D01*
X169020800Y-92710000D02*
X169020800Y-110550000D01*
%TD*%
M02*
