M48
; DRILL file {KiCad (6.0.7)} date Wed Oct 19 20:59:45 2022
; FORMAT={-:-/ absolute / inch / decimal}
; #@! TF.CreationDate,2022-10-19T20:59:45-04:00
; #@! TF.GenerationSoftware,Kicad,Pcbnew,(6.0.7)
; #@! TF.FileFunction,Plated,1,2,PTH
FMAT,2
INCH
; #@! TA.AperFunction,Plated,PTH,ViaDrill
T1C0.0157
; #@! TA.AperFunction,Plated,PTH,ViaDrill
T2C0.0197
; #@! TA.AperFunction,Plated,PTH,ViaDrill
T3C0.0236
; #@! TA.AperFunction,Plated,PTH,ViaDrill
T4C0.0295
; #@! TA.AperFunction,Plated,PTH,ComponentDrill
T5C0.0394
%
G90
G05
T1
X4.585Y-3.05
X4.585Y-3.151
X4.585Y-3.25
X4.72Y-3.83
X4.73Y-3.38
X4.75Y-3.25
X4.76Y-3.16
X4.8Y-4.18
X4.8009Y-3.7409
X4.905Y-3.8195
X4.91Y-3.16
X4.91Y-3.44
X4.94Y-3.25
X4.95Y-3.99
X4.9709Y-3.4591
X4.98Y-3.13
X4.98Y-3.41
X5.14Y-3.59
X5.1713Y-3.2372
X5.235Y-3.3605
X5.2559Y-3.4243
X5.26Y-3.19
X5.26Y-3.74
X5.314Y-3.0108
X5.34Y-3.79
X5.3795Y-2.7905
X5.3839Y-3.0551
X5.395Y-3.6125
X5.4Y-4.0
X5.4094Y-3.284
X5.41Y-2.87
X5.44Y-3.41
X5.4424Y-3.0555
X5.45Y-3.36
X5.45Y-3.6125
X5.4595Y-3.2
X5.48Y-3.46
X5.49Y-3.5
X5.503Y-3.6713
X5.55Y-3.46
X5.5508Y-3.39
X5.5837Y-3.0069
X5.61Y-3.43
X5.64Y-3.8
X5.66Y-3.18
X5.6773Y-3.6167
X5.7Y-3.77
X5.7Y-4.04
X5.7047Y-3.2274
X5.7109Y-3.5908
X5.72Y-2.89
X5.75Y-3.71
X5.8Y-4.2
X5.82Y-3.165
X5.8231Y-3.2085
X5.8495Y-3.6486
X5.8809Y-3.1014
X5.9Y-3.8
X5.91Y-4.1
X6.001Y-3.4055
X6.002Y-4.0699
X6.08Y-2.8
X6.2Y-3.19
X6.28Y-3.8
X6.28Y-4.01
X6.31Y-3.9
X6.31Y-4.04
X6.36Y-3.32
T2
X4.81Y-2.36
X4.81Y-2.86
X4.91Y-2.84
X5.01Y-2.84
X5.29Y-2.86
T3
X4.91Y-2.49
X4.99Y-2.63
X5.685Y-2.705
X5.94Y-2.63
T4
X4.4705Y-2.6722
X4.5246Y-2.5118
X4.6949Y-2.5108
T5
X4.5Y-3.6
X4.5Y-3.7
X4.5Y-3.8
X4.5Y-3.9
X4.5Y-4.0
X4.5Y-4.1
X4.5Y-4.2
X4.5Y-4.3
X4.501Y-3.0504
X4.501Y-3.1504
X4.501Y-3.2504
X4.501Y-3.3504
X4.9008Y-3.901
X5.0008Y-3.901
X5.1008Y-3.901
X5.2008Y-3.901
X5.3008Y-3.901
X5.3524Y-2.2992
X5.3524Y-2.3992
X5.4008Y-3.901
X5.4524Y-2.2992
X5.4524Y-2.3992
X5.5008Y-3.901
X5.5524Y-2.2992
X5.5524Y-2.3992
X5.6008Y-3.901
X5.6524Y-2.2992
X5.6524Y-2.3992
X5.7008Y-3.901
X5.7524Y-2.2992
X5.7524Y-2.3992
X5.8008Y-3.901
X5.9008Y-3.901
X6.0008Y-3.901
X6.1008Y-3.901
X6.2008Y-3.901
X6.602Y-3.6
X6.602Y-3.7
X6.602Y-3.8
X6.602Y-3.9
X6.602Y-4.0
X6.602Y-4.1
X6.602Y-4.2
X6.602Y-4.3
T0
M30
