%TF.GenerationSoftware,KiCad,Pcbnew,(6.0.7)*%
%TF.CreationDate,2022-10-18T20:34:43-04:00*%
%TF.ProjectId,LCDPCB,4c434450-4342-42e6-9b69-6361645f7063,rev?*%
%TF.SameCoordinates,Original*%
%TF.FileFunction,Legend,Top*%
%TF.FilePolarity,Positive*%
%FSLAX46Y46*%
G04 Gerber Fmt 4.6, Leading zero omitted, Abs format (unit mm)*
G04 Created by KiCad (PCBNEW (6.0.7)) date 2022-10-18 20:34:43*
%MOMM*%
%LPD*%
G01*
G04 APERTURE LIST*
%ADD10C,0.150000*%
%ADD11C,0.254000*%
%ADD12C,0.200000*%
%ADD13C,0.120000*%
%ADD14C,0.250000*%
G04 APERTURE END LIST*
D10*
X118259071Y-109207535D02*
X118259071Y-108457535D01*
X118687642Y-109207535D01*
X118687642Y-108457535D01*
X119187642Y-108850392D02*
X119187642Y-109207535D01*
X118937642Y-108457535D02*
X119187642Y-108850392D01*
X119437642Y-108457535D01*
X119651928Y-108993250D02*
X120009071Y-108993250D01*
X119580500Y-109207535D02*
X119830500Y-108457535D01*
X120080500Y-109207535D01*
X120330500Y-109207535D02*
X120330500Y-108457535D01*
X120759071Y-109207535D02*
X120437642Y-108778964D01*
X120759071Y-108457535D02*
X120330500Y-108886107D01*
X121330500Y-108814678D02*
X121437642Y-108850392D01*
X121473357Y-108886107D01*
X121509071Y-108957535D01*
X121509071Y-109064678D01*
X121473357Y-109136107D01*
X121437642Y-109171821D01*
X121366214Y-109207535D01*
X121080500Y-109207535D01*
X121080500Y-108457535D01*
X121330500Y-108457535D01*
X121401928Y-108493250D01*
X121437642Y-108528964D01*
X121473357Y-108600392D01*
X121473357Y-108671821D01*
X121437642Y-108743250D01*
X121401928Y-108778964D01*
X121330500Y-108814678D01*
X121080500Y-108814678D01*
X121830500Y-109136107D02*
X121866214Y-109171821D01*
X121830500Y-109207535D01*
X121794785Y-109171821D01*
X121830500Y-109136107D01*
X121830500Y-109207535D01*
X121830500Y-108743250D02*
X121866214Y-108778964D01*
X121830500Y-108814678D01*
X121794785Y-108778964D01*
X121830500Y-108743250D01*
X121830500Y-108814678D01*
X122759071Y-109207535D02*
X122759071Y-108457535D01*
X123187642Y-109207535D01*
X123187642Y-108457535D01*
X123651928Y-109207535D02*
X123580500Y-109171821D01*
X123544785Y-109136107D01*
X123509071Y-109064678D01*
X123509071Y-108850392D01*
X123544785Y-108778964D01*
X123580500Y-108743250D01*
X123651928Y-108707535D01*
X123759071Y-108707535D01*
X123830500Y-108743250D01*
X123866214Y-108778964D01*
X123901928Y-108850392D01*
X123901928Y-109064678D01*
X123866214Y-109136107D01*
X123830500Y-109171821D01*
X123759071Y-109207535D01*
X123651928Y-109207535D01*
X124116214Y-108707535D02*
X124401928Y-108707535D01*
X124223357Y-108457535D02*
X124223357Y-109100392D01*
X124259071Y-109171821D01*
X124330500Y-109207535D01*
X124401928Y-109207535D01*
X125366214Y-108850392D02*
X125366214Y-109207535D01*
X125116214Y-108457535D02*
X125366214Y-108850392D01*
X125616214Y-108457535D01*
X125973357Y-109207535D02*
X125901928Y-109171821D01*
X125866214Y-109136107D01*
X125830500Y-109064678D01*
X125830500Y-108850392D01*
X125866214Y-108778964D01*
X125901928Y-108743250D01*
X125973357Y-108707535D01*
X126080500Y-108707535D01*
X126151928Y-108743250D01*
X126187642Y-108778964D01*
X126223357Y-108850392D01*
X126223357Y-109064678D01*
X126187642Y-109136107D01*
X126151928Y-109171821D01*
X126080500Y-109207535D01*
X125973357Y-109207535D01*
X126866214Y-108707535D02*
X126866214Y-109207535D01*
X126544785Y-108707535D02*
X126544785Y-109100392D01*
X126580500Y-109171821D01*
X126651928Y-109207535D01*
X126759071Y-109207535D01*
X126830500Y-109171821D01*
X126866214Y-109136107D01*
X127223357Y-109207535D02*
X127223357Y-108707535D01*
X127223357Y-108850392D02*
X127259071Y-108778964D01*
X127294785Y-108743250D01*
X127366214Y-108707535D01*
X127437642Y-108707535D01*
X128223357Y-108993250D02*
X128580500Y-108993250D01*
X128151928Y-109207535D02*
X128401928Y-108457535D01*
X128651928Y-109207535D01*
X128830500Y-108707535D02*
X129009071Y-109207535D01*
X129187642Y-108707535D01*
X129759071Y-109171821D02*
X129687642Y-109207535D01*
X129544785Y-109207535D01*
X129473357Y-109171821D01*
X129437642Y-109100392D01*
X129437642Y-108814678D01*
X129473357Y-108743250D01*
X129544785Y-108707535D01*
X129687642Y-108707535D01*
X129759071Y-108743250D01*
X129794785Y-108814678D01*
X129794785Y-108886107D01*
X129437642Y-108957535D01*
X130116214Y-109207535D02*
X130116214Y-108707535D01*
X130116214Y-108850392D02*
X130151928Y-108778964D01*
X130187642Y-108743250D01*
X130259071Y-108707535D01*
X130330500Y-108707535D01*
X130901928Y-109207535D02*
X130901928Y-108814678D01*
X130866214Y-108743250D01*
X130794785Y-108707535D01*
X130651928Y-108707535D01*
X130580500Y-108743250D01*
X130901928Y-109171821D02*
X130830500Y-109207535D01*
X130651928Y-109207535D01*
X130580500Y-109171821D01*
X130544785Y-109100392D01*
X130544785Y-109028964D01*
X130580500Y-108957535D01*
X130651928Y-108921821D01*
X130830500Y-108921821D01*
X130901928Y-108886107D01*
X131580500Y-108707535D02*
X131580500Y-109314678D01*
X131544785Y-109386107D01*
X131509071Y-109421821D01*
X131437642Y-109457535D01*
X131330500Y-109457535D01*
X131259071Y-109421821D01*
X131580500Y-109171821D02*
X131509071Y-109207535D01*
X131366214Y-109207535D01*
X131294785Y-109171821D01*
X131259071Y-109136107D01*
X131223357Y-109064678D01*
X131223357Y-108850392D01*
X131259071Y-108778964D01*
X131294785Y-108743250D01*
X131366214Y-108707535D01*
X131509071Y-108707535D01*
X131580500Y-108743250D01*
X132223357Y-109171821D02*
X132151928Y-109207535D01*
X132009071Y-109207535D01*
X131937642Y-109171821D01*
X131901928Y-109100392D01*
X131901928Y-108814678D01*
X131937642Y-108743250D01*
X132009071Y-108707535D01*
X132151928Y-108707535D01*
X132223357Y-108743250D01*
X132259071Y-108814678D01*
X132259071Y-108886107D01*
X131901928Y-108957535D01*
X133151928Y-109207535D02*
X133151928Y-108457535D01*
X133580500Y-109207535D02*
X133259071Y-108778964D01*
X133580500Y-108457535D02*
X133151928Y-108886107D01*
X134187642Y-109171821D02*
X134116214Y-109207535D01*
X133973357Y-109207535D01*
X133901928Y-109171821D01*
X133866214Y-109100392D01*
X133866214Y-108814678D01*
X133901928Y-108743250D01*
X133973357Y-108707535D01*
X134116214Y-108707535D01*
X134187642Y-108743250D01*
X134223357Y-108814678D01*
X134223357Y-108886107D01*
X133866214Y-108957535D01*
X134473357Y-108707535D02*
X134651928Y-109207535D01*
X134830500Y-108707535D02*
X134651928Y-109207535D01*
X134580500Y-109386107D01*
X134544785Y-109421821D01*
X134473357Y-109457535D01*
X135116214Y-109207535D02*
X135116214Y-108457535D01*
X135116214Y-108743250D02*
X135187642Y-108707535D01*
X135330500Y-108707535D01*
X135401928Y-108743250D01*
X135437642Y-108778964D01*
X135473357Y-108850392D01*
X135473357Y-109064678D01*
X135437642Y-109136107D01*
X135401928Y-109171821D01*
X135330500Y-109207535D01*
X135187642Y-109207535D01*
X135116214Y-109171821D01*
X135901928Y-109207535D02*
X135830500Y-109171821D01*
X135794785Y-109136107D01*
X135759071Y-109064678D01*
X135759071Y-108850392D01*
X135794785Y-108778964D01*
X135830500Y-108743250D01*
X135901928Y-108707535D01*
X136009071Y-108707535D01*
X136080500Y-108743250D01*
X136116214Y-108778964D01*
X136151928Y-108850392D01*
X136151928Y-109064678D01*
X136116214Y-109136107D01*
X136080500Y-109171821D01*
X136009071Y-109207535D01*
X135901928Y-109207535D01*
X136794785Y-109207535D02*
X136794785Y-108814678D01*
X136759071Y-108743250D01*
X136687642Y-108707535D01*
X136544785Y-108707535D01*
X136473357Y-108743250D01*
X136794785Y-109171821D02*
X136723357Y-109207535D01*
X136544785Y-109207535D01*
X136473357Y-109171821D01*
X136437642Y-109100392D01*
X136437642Y-109028964D01*
X136473357Y-108957535D01*
X136544785Y-108921821D01*
X136723357Y-108921821D01*
X136794785Y-108886107D01*
X137151928Y-109207535D02*
X137151928Y-108707535D01*
X137151928Y-108850392D02*
X137187642Y-108778964D01*
X137223357Y-108743250D01*
X137294785Y-108707535D01*
X137366214Y-108707535D01*
X137937642Y-109207535D02*
X137937642Y-108457535D01*
X137937642Y-109171821D02*
X137866214Y-109207535D01*
X137723357Y-109207535D01*
X137651928Y-109171821D01*
X137616214Y-109136107D01*
X137580500Y-109064678D01*
X137580500Y-108850392D01*
X137616214Y-108778964D01*
X137651928Y-108743250D01*
X137723357Y-108707535D01*
X137866214Y-108707535D01*
X137937642Y-108743250D01*
X138830500Y-109171821D02*
X138937642Y-109207535D01*
X139116214Y-109207535D01*
X139187642Y-109171821D01*
X139223357Y-109136107D01*
X139259071Y-109064678D01*
X139259071Y-108993250D01*
X139223357Y-108921821D01*
X139187642Y-108886107D01*
X139116214Y-108850392D01*
X138973357Y-108814678D01*
X138901928Y-108778964D01*
X138866214Y-108743250D01*
X138830500Y-108671821D01*
X138830500Y-108600392D01*
X138866214Y-108528964D01*
X138901928Y-108493250D01*
X138973357Y-108457535D01*
X139151928Y-108457535D01*
X139259071Y-108493250D01*
X139901928Y-108707535D02*
X139901928Y-109207535D01*
X139580500Y-108707535D02*
X139580500Y-109100392D01*
X139616214Y-109171821D01*
X139687642Y-109207535D01*
X139794785Y-109207535D01*
X139866214Y-109171821D01*
X139901928Y-109136107D01*
X140259071Y-109207535D02*
X140259071Y-108457535D01*
X140259071Y-108743250D02*
X140330500Y-108707535D01*
X140473357Y-108707535D01*
X140544785Y-108743250D01*
X140580500Y-108778964D01*
X140616214Y-108850392D01*
X140616214Y-109064678D01*
X140580500Y-109136107D01*
X140544785Y-109171821D01*
X140473357Y-109207535D01*
X140330500Y-109207535D01*
X140259071Y-109171821D01*
X140937642Y-108921821D02*
X141509071Y-108921821D01*
X141866214Y-109207535D02*
X141866214Y-108707535D01*
X141866214Y-108778964D02*
X141901928Y-108743250D01*
X141973357Y-108707535D01*
X142080500Y-108707535D01*
X142151928Y-108743250D01*
X142187642Y-108814678D01*
X142187642Y-109207535D01*
X142187642Y-108814678D02*
X142223357Y-108743250D01*
X142294785Y-108707535D01*
X142401928Y-108707535D01*
X142473357Y-108743250D01*
X142509071Y-108814678D01*
X142509071Y-109207535D01*
X142973357Y-109207535D02*
X142901928Y-109171821D01*
X142866214Y-109136107D01*
X142830500Y-109064678D01*
X142830500Y-108850392D01*
X142866214Y-108778964D01*
X142901928Y-108743250D01*
X142973357Y-108707535D01*
X143080500Y-108707535D01*
X143151928Y-108743250D01*
X143187642Y-108778964D01*
X143223357Y-108850392D01*
X143223357Y-109064678D01*
X143187642Y-109136107D01*
X143151928Y-109171821D01*
X143080500Y-109207535D01*
X142973357Y-109207535D01*
X143866214Y-109207535D02*
X143866214Y-108457535D01*
X143866214Y-109171821D02*
X143794785Y-109207535D01*
X143651928Y-109207535D01*
X143580500Y-109171821D01*
X143544785Y-109136107D01*
X143509071Y-109064678D01*
X143509071Y-108850392D01*
X143544785Y-108778964D01*
X143580500Y-108743250D01*
X143651928Y-108707535D01*
X143794785Y-108707535D01*
X143866214Y-108743250D01*
X144544785Y-108707535D02*
X144544785Y-109207535D01*
X144223357Y-108707535D02*
X144223357Y-109100392D01*
X144259071Y-109171821D01*
X144330500Y-109207535D01*
X144437642Y-109207535D01*
X144509071Y-109171821D01*
X144544785Y-109136107D01*
X145009071Y-109207535D02*
X144937642Y-109171821D01*
X144901928Y-109100392D01*
X144901928Y-108457535D01*
X145580500Y-109171821D02*
X145509071Y-109207535D01*
X145366214Y-109207535D01*
X145294785Y-109171821D01*
X145259071Y-109100392D01*
X145259071Y-108814678D01*
X145294785Y-108743250D01*
X145366214Y-108707535D01*
X145509071Y-108707535D01*
X145580500Y-108743250D01*
X145616214Y-108814678D01*
X145616214Y-108886107D01*
X145259071Y-108957535D01*
X118259071Y-110022178D02*
X118509071Y-110022178D01*
X118616214Y-110415035D02*
X118259071Y-110415035D01*
X118259071Y-109665035D01*
X118616214Y-109665035D01*
X119366214Y-110343607D02*
X119330500Y-110379321D01*
X119223357Y-110415035D01*
X119151928Y-110415035D01*
X119044785Y-110379321D01*
X118973357Y-110307892D01*
X118937642Y-110236464D01*
X118901928Y-110093607D01*
X118901928Y-109986464D01*
X118937642Y-109843607D01*
X118973357Y-109772178D01*
X119044785Y-109700750D01*
X119151928Y-109665035D01*
X119223357Y-109665035D01*
X119330500Y-109700750D01*
X119366214Y-109736464D01*
X119687642Y-110022178D02*
X119937642Y-110022178D01*
X120044785Y-110415035D02*
X119687642Y-110415035D01*
X119687642Y-109665035D01*
X120044785Y-109665035D01*
X121259071Y-109915035D02*
X121259071Y-110415035D01*
X121080500Y-109629321D02*
X120901928Y-110165035D01*
X121366214Y-110165035D01*
X121580500Y-109665035D02*
X122080500Y-109665035D01*
X121759071Y-110415035D01*
X122294785Y-109665035D02*
X122794785Y-109665035D01*
X122473357Y-110415035D01*
X123080500Y-110343607D02*
X123116214Y-110379321D01*
X123080500Y-110415035D01*
X123044785Y-110379321D01*
X123080500Y-110343607D01*
X123080500Y-110415035D01*
X123080500Y-109950750D02*
X123116214Y-109986464D01*
X123080500Y-110022178D01*
X123044785Y-109986464D01*
X123080500Y-109950750D01*
X123080500Y-110022178D01*
X123901928Y-109665035D02*
X124330500Y-109665035D01*
X124116214Y-110415035D02*
X124116214Y-109665035D01*
X124866214Y-110379321D02*
X124794785Y-110415035D01*
X124651928Y-110415035D01*
X124580500Y-110379321D01*
X124544785Y-110307892D01*
X124544785Y-110022178D01*
X124580500Y-109950750D01*
X124651928Y-109915035D01*
X124794785Y-109915035D01*
X124866214Y-109950750D01*
X124901928Y-110022178D01*
X124901928Y-110093607D01*
X124544785Y-110165035D01*
X125544785Y-110415035D02*
X125544785Y-110022178D01*
X125509071Y-109950750D01*
X125437642Y-109915035D01*
X125294785Y-109915035D01*
X125223357Y-109950750D01*
X125544785Y-110379321D02*
X125473357Y-110415035D01*
X125294785Y-110415035D01*
X125223357Y-110379321D01*
X125187642Y-110307892D01*
X125187642Y-110236464D01*
X125223357Y-110165035D01*
X125294785Y-110129321D01*
X125473357Y-110129321D01*
X125544785Y-110093607D01*
X125901928Y-110415035D02*
X125901928Y-109915035D01*
X125901928Y-109986464D02*
X125937642Y-109950750D01*
X126009071Y-109915035D01*
X126116214Y-109915035D01*
X126187642Y-109950750D01*
X126223357Y-110022178D01*
X126223357Y-110415035D01*
X126223357Y-110022178D02*
X126259071Y-109950750D01*
X126330500Y-109915035D01*
X126437642Y-109915035D01*
X126509071Y-109950750D01*
X126544785Y-110022178D01*
X126544785Y-110415035D01*
X127401928Y-109665035D02*
X127866214Y-109665035D01*
X127616214Y-109950750D01*
X127723357Y-109950750D01*
X127794785Y-109986464D01*
X127830500Y-110022178D01*
X127866214Y-110093607D01*
X127866214Y-110272178D01*
X127830500Y-110343607D01*
X127794785Y-110379321D01*
X127723357Y-110415035D01*
X127509071Y-110415035D01*
X127437642Y-110379321D01*
X127401928Y-110343607D01*
X118223357Y-111408250D02*
X118580500Y-111408250D01*
X118151928Y-111622535D02*
X118401928Y-110872535D01*
X118651928Y-111622535D01*
X118901928Y-111122535D02*
X118901928Y-111622535D01*
X118901928Y-111193964D02*
X118937642Y-111158250D01*
X119009071Y-111122535D01*
X119116214Y-111122535D01*
X119187642Y-111158250D01*
X119223357Y-111229678D01*
X119223357Y-111622535D01*
X119580500Y-111122535D02*
X119580500Y-111622535D01*
X119580500Y-111193964D02*
X119616214Y-111158250D01*
X119687642Y-111122535D01*
X119794785Y-111122535D01*
X119866214Y-111158250D01*
X119901928Y-111229678D01*
X119901928Y-111622535D01*
X120580500Y-111622535D02*
X120580500Y-111229678D01*
X120544785Y-111158250D01*
X120473357Y-111122535D01*
X120330500Y-111122535D01*
X120259071Y-111158250D01*
X120580500Y-111586821D02*
X120509071Y-111622535D01*
X120330500Y-111622535D01*
X120259071Y-111586821D01*
X120223357Y-111515392D01*
X120223357Y-111443964D01*
X120259071Y-111372535D01*
X120330500Y-111336821D01*
X120509071Y-111336821D01*
X120580500Y-111301107D01*
X121473357Y-111586821D02*
X121580500Y-111622535D01*
X121759071Y-111622535D01*
X121830500Y-111586821D01*
X121866214Y-111551107D01*
X121901928Y-111479678D01*
X121901928Y-111408250D01*
X121866214Y-111336821D01*
X121830500Y-111301107D01*
X121759071Y-111265392D01*
X121616214Y-111229678D01*
X121544785Y-111193964D01*
X121509071Y-111158250D01*
X121473357Y-111086821D01*
X121473357Y-111015392D01*
X121509071Y-110943964D01*
X121544785Y-110908250D01*
X121616214Y-110872535D01*
X121794785Y-110872535D01*
X121901928Y-110908250D01*
X122223357Y-111622535D02*
X122223357Y-110872535D01*
X122544785Y-111622535D02*
X122544785Y-111229678D01*
X122509071Y-111158250D01*
X122437642Y-111122535D01*
X122330500Y-111122535D01*
X122259071Y-111158250D01*
X122223357Y-111193964D01*
X123187642Y-111586821D02*
X123116214Y-111622535D01*
X122973357Y-111622535D01*
X122901928Y-111586821D01*
X122866214Y-111515392D01*
X122866214Y-111229678D01*
X122901928Y-111158250D01*
X122973357Y-111122535D01*
X123116214Y-111122535D01*
X123187642Y-111158250D01*
X123223357Y-111229678D01*
X123223357Y-111301107D01*
X122866214Y-111372535D01*
X123544785Y-111122535D02*
X123544785Y-111622535D01*
X123544785Y-111193964D02*
X123580500Y-111158250D01*
X123651928Y-111122535D01*
X123759071Y-111122535D01*
X123830500Y-111158250D01*
X123866214Y-111229678D01*
X123866214Y-111622535D01*
X118687642Y-112758607D02*
X118651928Y-112794321D01*
X118544785Y-112830035D01*
X118473357Y-112830035D01*
X118366214Y-112794321D01*
X118294785Y-112722892D01*
X118259071Y-112651464D01*
X118223357Y-112508607D01*
X118223357Y-112401464D01*
X118259071Y-112258607D01*
X118294785Y-112187178D01*
X118366214Y-112115750D01*
X118473357Y-112080035D01*
X118544785Y-112080035D01*
X118651928Y-112115750D01*
X118687642Y-112151464D01*
X119116214Y-112830035D02*
X119044785Y-112794321D01*
X119009071Y-112758607D01*
X118973357Y-112687178D01*
X118973357Y-112472892D01*
X119009071Y-112401464D01*
X119044785Y-112365750D01*
X119116214Y-112330035D01*
X119223357Y-112330035D01*
X119294785Y-112365750D01*
X119330500Y-112401464D01*
X119366214Y-112472892D01*
X119366214Y-112687178D01*
X119330500Y-112758607D01*
X119294785Y-112794321D01*
X119223357Y-112830035D01*
X119116214Y-112830035D01*
X119687642Y-112330035D02*
X119687642Y-112830035D01*
X119687642Y-112401464D02*
X119723357Y-112365750D01*
X119794785Y-112330035D01*
X119901928Y-112330035D01*
X119973357Y-112365750D01*
X120009071Y-112437178D01*
X120009071Y-112830035D01*
X120366214Y-112330035D02*
X120366214Y-112830035D01*
X120366214Y-112401464D02*
X120401928Y-112365750D01*
X120473357Y-112330035D01*
X120580500Y-112330035D01*
X120651928Y-112365750D01*
X120687642Y-112437178D01*
X120687642Y-112830035D01*
X121151928Y-112830035D02*
X121080500Y-112794321D01*
X121044785Y-112758607D01*
X121009071Y-112687178D01*
X121009071Y-112472892D01*
X121044785Y-112401464D01*
X121080500Y-112365750D01*
X121151928Y-112330035D01*
X121259071Y-112330035D01*
X121330500Y-112365750D01*
X121366214Y-112401464D01*
X121401928Y-112472892D01*
X121401928Y-112687178D01*
X121366214Y-112758607D01*
X121330500Y-112794321D01*
X121259071Y-112830035D01*
X121151928Y-112830035D01*
X121723357Y-112830035D02*
X121723357Y-112330035D01*
X121723357Y-112472892D02*
X121759071Y-112401464D01*
X121794785Y-112365750D01*
X121866214Y-112330035D01*
X121937642Y-112330035D01*
X123187642Y-112758607D02*
X123151928Y-112794321D01*
X123044785Y-112830035D01*
X122973357Y-112830035D01*
X122866214Y-112794321D01*
X122794785Y-112722892D01*
X122759071Y-112651464D01*
X122723357Y-112508607D01*
X122723357Y-112401464D01*
X122759071Y-112258607D01*
X122794785Y-112187178D01*
X122866214Y-112115750D01*
X122973357Y-112080035D01*
X123044785Y-112080035D01*
X123151928Y-112115750D01*
X123187642Y-112151464D01*
X123509071Y-112830035D02*
X123509071Y-112080035D01*
X123830500Y-112830035D02*
X123830500Y-112437178D01*
X123794785Y-112365750D01*
X123723357Y-112330035D01*
X123616214Y-112330035D01*
X123544785Y-112365750D01*
X123509071Y-112401464D01*
X124509071Y-112830035D02*
X124509071Y-112437178D01*
X124473357Y-112365750D01*
X124401928Y-112330035D01*
X124259071Y-112330035D01*
X124187642Y-112365750D01*
X124509071Y-112794321D02*
X124437642Y-112830035D01*
X124259071Y-112830035D01*
X124187642Y-112794321D01*
X124151928Y-112722892D01*
X124151928Y-112651464D01*
X124187642Y-112580035D01*
X124259071Y-112544321D01*
X124437642Y-112544321D01*
X124509071Y-112508607D01*
X125187642Y-112830035D02*
X125187642Y-112080035D01*
X125187642Y-112794321D02*
X125116214Y-112830035D01*
X124973357Y-112830035D01*
X124901928Y-112794321D01*
X124866214Y-112758607D01*
X124830500Y-112687178D01*
X124830500Y-112472892D01*
X124866214Y-112401464D01*
X124901928Y-112365750D01*
X124973357Y-112330035D01*
X125116214Y-112330035D01*
X125187642Y-112365750D01*
X125473357Y-112330035D02*
X125616214Y-112830035D01*
X125759071Y-112472892D01*
X125901928Y-112830035D01*
X126044785Y-112330035D01*
X126330500Y-112830035D02*
X126330500Y-112330035D01*
X126330500Y-112080035D02*
X126294785Y-112115750D01*
X126330500Y-112151464D01*
X126366214Y-112115750D01*
X126330500Y-112080035D01*
X126330500Y-112151464D01*
X127009071Y-112794321D02*
X126937642Y-112830035D01*
X126794785Y-112830035D01*
X126723357Y-112794321D01*
X126687642Y-112758607D01*
X126651928Y-112687178D01*
X126651928Y-112472892D01*
X126687642Y-112401464D01*
X126723357Y-112365750D01*
X126794785Y-112330035D01*
X126937642Y-112330035D01*
X127009071Y-112365750D01*
X127330500Y-112830035D02*
X127330500Y-112080035D01*
X127401928Y-112544321D02*
X127616214Y-112830035D01*
X127616214Y-112330035D02*
X127330500Y-112615750D01*
X118223357Y-113823250D02*
X118580500Y-113823250D01*
X118151928Y-114037535D02*
X118401928Y-113287535D01*
X118651928Y-114037535D01*
X118830500Y-113537535D02*
X119009071Y-114037535D01*
X119187642Y-113537535D01*
X119794785Y-114037535D02*
X119794785Y-113644678D01*
X119759071Y-113573250D01*
X119687642Y-113537535D01*
X119544785Y-113537535D01*
X119473357Y-113573250D01*
X119794785Y-114001821D02*
X119723357Y-114037535D01*
X119544785Y-114037535D01*
X119473357Y-114001821D01*
X119437642Y-113930392D01*
X119437642Y-113858964D01*
X119473357Y-113787535D01*
X119544785Y-113751821D01*
X119723357Y-113751821D01*
X119794785Y-113716107D01*
X120151928Y-113537535D02*
X120151928Y-114037535D01*
X120151928Y-113608964D02*
X120187642Y-113573250D01*
X120259071Y-113537535D01*
X120366214Y-113537535D01*
X120437642Y-113573250D01*
X120473357Y-113644678D01*
X120473357Y-114037535D01*
X120830500Y-114037535D02*
X120830500Y-113537535D01*
X120830500Y-113287535D02*
X120794785Y-113323250D01*
X120830500Y-113358964D01*
X120866214Y-113323250D01*
X120830500Y-113287535D01*
X120830500Y-113358964D01*
X121151928Y-114001821D02*
X121223357Y-114037535D01*
X121366214Y-114037535D01*
X121437642Y-114001821D01*
X121473357Y-113930392D01*
X121473357Y-113894678D01*
X121437642Y-113823250D01*
X121366214Y-113787535D01*
X121259071Y-113787535D01*
X121187642Y-113751821D01*
X121151928Y-113680392D01*
X121151928Y-113644678D01*
X121187642Y-113573250D01*
X121259071Y-113537535D01*
X121366214Y-113537535D01*
X121437642Y-113573250D01*
X121794785Y-114037535D02*
X121794785Y-113287535D01*
X122116214Y-114037535D02*
X122116214Y-113644678D01*
X122080500Y-113573250D01*
X122009071Y-113537535D01*
X121901928Y-113537535D01*
X121830500Y-113573250D01*
X121794785Y-113608964D01*
X123009071Y-114001821D02*
X123116214Y-114037535D01*
X123294785Y-114037535D01*
X123366214Y-114001821D01*
X123401928Y-113966107D01*
X123437642Y-113894678D01*
X123437642Y-113823250D01*
X123401928Y-113751821D01*
X123366214Y-113716107D01*
X123294785Y-113680392D01*
X123151928Y-113644678D01*
X123080500Y-113608964D01*
X123044785Y-113573250D01*
X123009071Y-113501821D01*
X123009071Y-113430392D01*
X123044785Y-113358964D01*
X123080500Y-113323250D01*
X123151928Y-113287535D01*
X123330500Y-113287535D01*
X123437642Y-113323250D01*
X124080500Y-113537535D02*
X124080500Y-114037535D01*
X123759071Y-113537535D02*
X123759071Y-113930392D01*
X123794785Y-114001821D01*
X123866214Y-114037535D01*
X123973357Y-114037535D01*
X124044785Y-114001821D01*
X124080500Y-113966107D01*
X124437642Y-114037535D02*
X124437642Y-113287535D01*
X124437642Y-113573250D02*
X124509071Y-113537535D01*
X124651928Y-113537535D01*
X124723357Y-113573250D01*
X124759071Y-113608964D01*
X124794785Y-113680392D01*
X124794785Y-113894678D01*
X124759071Y-113966107D01*
X124723357Y-114001821D01*
X124651928Y-114037535D01*
X124509071Y-114037535D01*
X124437642Y-114001821D01*
X125116214Y-114037535D02*
X125116214Y-113287535D01*
X125116214Y-113573250D02*
X125187642Y-113537535D01*
X125330500Y-113537535D01*
X125401928Y-113573250D01*
X125437642Y-113608964D01*
X125473357Y-113680392D01*
X125473357Y-113894678D01*
X125437642Y-113966107D01*
X125401928Y-114001821D01*
X125330500Y-114037535D01*
X125187642Y-114037535D01*
X125116214Y-114001821D01*
X125794785Y-114037535D02*
X125794785Y-113537535D01*
X125794785Y-113287535D02*
X125759071Y-113323250D01*
X125794785Y-113358964D01*
X125830500Y-113323250D01*
X125794785Y-113287535D01*
X125794785Y-113358964D01*
X126473357Y-114037535D02*
X126473357Y-113644678D01*
X126437642Y-113573250D01*
X126366214Y-113537535D01*
X126223357Y-113537535D01*
X126151928Y-113573250D01*
X126473357Y-114001821D02*
X126401928Y-114037535D01*
X126223357Y-114037535D01*
X126151928Y-114001821D01*
X126116214Y-113930392D01*
X126116214Y-113858964D01*
X126151928Y-113787535D01*
X126223357Y-113751821D01*
X126401928Y-113751821D01*
X126473357Y-113716107D01*
X126830500Y-114037535D02*
X126830500Y-113287535D01*
X127151928Y-114037535D02*
X127151928Y-113644678D01*
X127116214Y-113573250D01*
X127044785Y-113537535D01*
X126937642Y-113537535D01*
X126866214Y-113573250D01*
X126830500Y-113608964D01*
X118473357Y-114495035D02*
X118473357Y-115030750D01*
X118437642Y-115137892D01*
X118366214Y-115209321D01*
X118259071Y-115245035D01*
X118187642Y-115245035D01*
X119151928Y-115245035D02*
X119151928Y-114852178D01*
X119116214Y-114780750D01*
X119044785Y-114745035D01*
X118901928Y-114745035D01*
X118830500Y-114780750D01*
X119151928Y-115209321D02*
X119080500Y-115245035D01*
X118901928Y-115245035D01*
X118830500Y-115209321D01*
X118794785Y-115137892D01*
X118794785Y-115066464D01*
X118830500Y-114995035D01*
X118901928Y-114959321D01*
X119080500Y-114959321D01*
X119151928Y-114923607D01*
X119830500Y-115209321D02*
X119759071Y-115245035D01*
X119616214Y-115245035D01*
X119544785Y-115209321D01*
X119509071Y-115173607D01*
X119473357Y-115102178D01*
X119473357Y-114887892D01*
X119509071Y-114816464D01*
X119544785Y-114780750D01*
X119616214Y-114745035D01*
X119759071Y-114745035D01*
X119830500Y-114780750D01*
X120151928Y-115245035D02*
X120151928Y-114495035D01*
X120223357Y-114959321D02*
X120437642Y-115245035D01*
X120437642Y-114745035D02*
X120151928Y-115030750D01*
X120723357Y-115209321D02*
X120794785Y-115245035D01*
X120937642Y-115245035D01*
X121009071Y-115209321D01*
X121044785Y-115137892D01*
X121044785Y-115102178D01*
X121009071Y-115030750D01*
X120937642Y-114995035D01*
X120830500Y-114995035D01*
X120759071Y-114959321D01*
X120723357Y-114887892D01*
X120723357Y-114852178D01*
X120759071Y-114780750D01*
X120830500Y-114745035D01*
X120937642Y-114745035D01*
X121009071Y-114780750D01*
X121473357Y-115245035D02*
X121401928Y-115209321D01*
X121366214Y-115173607D01*
X121330500Y-115102178D01*
X121330500Y-114887892D01*
X121366214Y-114816464D01*
X121401928Y-114780750D01*
X121473357Y-114745035D01*
X121580500Y-114745035D01*
X121651928Y-114780750D01*
X121687642Y-114816464D01*
X121723357Y-114887892D01*
X121723357Y-115102178D01*
X121687642Y-115173607D01*
X121651928Y-115209321D01*
X121580500Y-115245035D01*
X121473357Y-115245035D01*
X122044785Y-114745035D02*
X122044785Y-115245035D01*
X122044785Y-114816464D02*
X122080500Y-114780750D01*
X122151928Y-114745035D01*
X122259071Y-114745035D01*
X122330500Y-114780750D01*
X122366214Y-114852178D01*
X122366214Y-115245035D01*
X123294785Y-115245035D02*
X123294785Y-114495035D01*
X123544785Y-115030750D01*
X123794785Y-114495035D01*
X123794785Y-115245035D01*
X124259071Y-115245035D02*
X124187642Y-115209321D01*
X124151928Y-115173607D01*
X124116214Y-115102178D01*
X124116214Y-114887892D01*
X124151928Y-114816464D01*
X124187642Y-114780750D01*
X124259071Y-114745035D01*
X124366214Y-114745035D01*
X124437642Y-114780750D01*
X124473357Y-114816464D01*
X124509071Y-114887892D01*
X124509071Y-115102178D01*
X124473357Y-115173607D01*
X124437642Y-115209321D01*
X124366214Y-115245035D01*
X124259071Y-115245035D01*
X124723357Y-114745035D02*
X125009071Y-114745035D01*
X124830500Y-115245035D02*
X124830500Y-114602178D01*
X124866214Y-114530750D01*
X124937642Y-114495035D01*
X125009071Y-114495035D01*
X125151928Y-114745035D02*
X125437642Y-114745035D01*
X125259071Y-115245035D02*
X125259071Y-114602178D01*
X125294785Y-114530750D01*
X125366214Y-114495035D01*
X125437642Y-114495035D01*
X125973357Y-115209321D02*
X125901928Y-115245035D01*
X125759071Y-115245035D01*
X125687642Y-115209321D01*
X125651928Y-115137892D01*
X125651928Y-114852178D01*
X125687642Y-114780750D01*
X125759071Y-114745035D01*
X125901928Y-114745035D01*
X125973357Y-114780750D01*
X126009071Y-114852178D01*
X126009071Y-114923607D01*
X125651928Y-114995035D01*
X126223357Y-114745035D02*
X126509071Y-114745035D01*
X126330500Y-114495035D02*
X126330500Y-115137892D01*
X126366214Y-115209321D01*
X126437642Y-115245035D01*
X126509071Y-115245035D01*
%TO.C,J2*%
X113991666Y-74162380D02*
X113991666Y-74876666D01*
X113944047Y-75019523D01*
X113848809Y-75114761D01*
X113705952Y-75162380D01*
X113610714Y-75162380D01*
X114420238Y-74257619D02*
X114467857Y-74210000D01*
X114563095Y-74162380D01*
X114801190Y-74162380D01*
X114896428Y-74210000D01*
X114944047Y-74257619D01*
X114991666Y-74352857D01*
X114991666Y-74448095D01*
X114944047Y-74590952D01*
X114372619Y-75162380D01*
X114991666Y-75162380D01*
%TO.C,U2*%
X118160895Y-72532380D02*
X118160895Y-73341904D01*
X118208514Y-73437142D01*
X118256133Y-73484761D01*
X118351371Y-73532380D01*
X118541847Y-73532380D01*
X118637085Y-73484761D01*
X118684704Y-73437142D01*
X118732323Y-73341904D01*
X118732323Y-72532380D01*
X119160895Y-72627619D02*
X119208514Y-72580000D01*
X119303752Y-72532380D01*
X119541847Y-72532380D01*
X119637085Y-72580000D01*
X119684704Y-72627619D01*
X119732323Y-72722857D01*
X119732323Y-72818095D01*
X119684704Y-72960952D01*
X119113276Y-73532380D01*
X119732323Y-73532380D01*
D11*
%TO.C,SW1*%
X160854866Y-80298847D02*
X161036295Y-80359323D01*
X161338676Y-80359323D01*
X161459628Y-80298847D01*
X161520104Y-80238371D01*
X161580580Y-80117419D01*
X161580580Y-79996466D01*
X161520104Y-79875514D01*
X161459628Y-79815038D01*
X161338676Y-79754561D01*
X161096771Y-79694085D01*
X160975819Y-79633609D01*
X160915342Y-79573133D01*
X160854866Y-79452180D01*
X160854866Y-79331228D01*
X160915342Y-79210276D01*
X160975819Y-79149800D01*
X161096771Y-79089323D01*
X161399152Y-79089323D01*
X161580580Y-79149800D01*
X162003914Y-79089323D02*
X162306295Y-80359323D01*
X162548200Y-79452180D01*
X162790104Y-80359323D01*
X163092485Y-79089323D01*
X164241533Y-80359323D02*
X163515819Y-80359323D01*
X163878676Y-80359323D02*
X163878676Y-79089323D01*
X163757723Y-79270752D01*
X163636771Y-79391704D01*
X163515819Y-79452180D01*
D10*
%TO.C,J4*%
X113966666Y-88562380D02*
X113966666Y-89276666D01*
X113919047Y-89419523D01*
X113823809Y-89514761D01*
X113680952Y-89562380D01*
X113585714Y-89562380D01*
X114871428Y-88895714D02*
X114871428Y-89562380D01*
X114633333Y-88514761D02*
X114395238Y-89229047D01*
X115014285Y-89229047D01*
%TO.C,J1*%
X159952380Y-98133333D02*
X160666666Y-98133333D01*
X160809523Y-98180952D01*
X160904761Y-98276190D01*
X160952380Y-98419047D01*
X160952380Y-98514285D01*
X160952380Y-97133333D02*
X160952380Y-97704761D01*
X160952380Y-97419047D02*
X159952380Y-97419047D01*
X160095238Y-97514285D01*
X160190476Y-97609523D01*
X160238095Y-97704761D01*
D11*
%TO.C,U1*%
X142288380Y-84140523D02*
X142288380Y-85168619D01*
X142348857Y-85289571D01*
X142409333Y-85350047D01*
X142530285Y-85410523D01*
X142772190Y-85410523D01*
X142893142Y-85350047D01*
X142953619Y-85289571D01*
X143014095Y-85168619D01*
X143014095Y-84140523D01*
X144284095Y-85410523D02*
X143558380Y-85410523D01*
X143921238Y-85410523D02*
X143921238Y-84140523D01*
X143800285Y-84321952D01*
X143679333Y-84442904D01*
X143558380Y-84503380D01*
D10*
%TO.C,J5*%
X167357466Y-88562380D02*
X167357466Y-89276666D01*
X167309847Y-89419523D01*
X167214609Y-89514761D01*
X167071752Y-89562380D01*
X166976514Y-89562380D01*
X168309847Y-88562380D02*
X167833657Y-88562380D01*
X167786038Y-89038571D01*
X167833657Y-88990952D01*
X167928895Y-88943333D01*
X168166990Y-88943333D01*
X168262228Y-88990952D01*
X168309847Y-89038571D01*
X168357466Y-89133809D01*
X168357466Y-89371904D01*
X168309847Y-89467142D01*
X168262228Y-89514761D01*
X168166990Y-89562380D01*
X167928895Y-89562380D01*
X167833657Y-89514761D01*
X167786038Y-89467142D01*
D12*
%TO.C,R6*%
X118618000Y-83075000D02*
X118618000Y-82025000D01*
D13*
%TO.C,J2*%
X115655000Y-76150000D02*
X115655000Y-77480000D01*
X112995000Y-78750000D02*
X112995000Y-86430000D01*
X112995000Y-78750000D02*
X115655000Y-78750000D01*
X112995000Y-86430000D02*
X115655000Y-86430000D01*
X114325000Y-76150000D02*
X115655000Y-76150000D01*
X115655000Y-78750000D02*
X115655000Y-86430000D01*
D12*
%TO.C,R3*%
X134865600Y-70561200D02*
X133815600Y-70561200D01*
D13*
%TO.C,U2*%
X120772800Y-65170000D02*
X117012800Y-65170000D01*
X117012800Y-65170000D02*
X117012800Y-66430000D01*
X123022800Y-71990000D02*
X117012800Y-71990000D01*
X117012800Y-71990000D02*
X117012800Y-70730000D01*
D12*
%TO.C,SW1*%
X159255200Y-82806800D02*
X165255200Y-82806800D01*
X165255200Y-82806800D02*
X165255200Y-76806800D01*
X159255200Y-76806800D02*
X159255200Y-82806800D01*
X165255200Y-76806800D02*
X159255200Y-76806800D01*
X160057200Y-86345800D02*
G75*
G03*
X160057200Y-86345800I-52000J0D01*
G01*
%TO.C,G\u002A\u002A\u002A*%
G36*
X126185544Y-70507626D02*
G01*
X126187325Y-70510599D01*
X126189951Y-70515821D01*
X126190121Y-70516160D01*
X126192950Y-70521728D01*
X126195175Y-70526010D01*
X126196401Y-70528247D01*
X126196500Y-70528393D01*
X126198268Y-70528431D01*
X126202464Y-70528009D01*
X126208227Y-70527216D01*
X126209031Y-70527093D01*
X126214961Y-70526272D01*
X126219463Y-70525834D01*
X126221661Y-70525863D01*
X126221730Y-70525903D01*
X126220941Y-70527282D01*
X126218245Y-70530338D01*
X126214174Y-70534479D01*
X126212986Y-70535631D01*
X126203566Y-70544684D01*
X126209604Y-70556674D01*
X126212276Y-70562207D01*
X126214080Y-70566389D01*
X126214723Y-70568526D01*
X126214641Y-70568664D01*
X126212801Y-70567906D01*
X126208868Y-70565905D01*
X126203647Y-70563073D01*
X126202910Y-70562662D01*
X126197759Y-70559804D01*
X126194116Y-70558264D01*
X126191147Y-70558221D01*
X126188015Y-70559854D01*
X126183885Y-70563341D01*
X126179137Y-70567738D01*
X126171841Y-70574498D01*
X126172861Y-70566997D01*
X126173753Y-70560798D01*
X126174688Y-70554833D01*
X126174885Y-70553663D01*
X126175285Y-70550624D01*
X126174819Y-70548507D01*
X126172910Y-70546665D01*
X126168978Y-70544450D01*
X126164829Y-70542387D01*
X126159629Y-70539591D01*
X126156008Y-70537182D01*
X126154639Y-70535618D01*
X126154677Y-70535473D01*
X126156677Y-70534585D01*
X126161068Y-70533650D01*
X126166917Y-70532864D01*
X126167175Y-70532837D01*
X126178763Y-70531674D01*
X126180580Y-70522250D01*
X126182126Y-70514216D01*
X126183258Y-70509234D01*
X126184293Y-70507105D01*
X126185544Y-70507626D01*
G37*
G36*
X126141433Y-70606006D02*
G01*
X126148933Y-70608847D01*
X126156433Y-70611689D01*
X126151741Y-70613511D01*
X126147212Y-70614859D01*
X126143824Y-70615334D01*
X126141885Y-70615806D01*
X126140918Y-70617764D01*
X126140610Y-70622017D01*
X126140600Y-70623668D01*
X126140375Y-70628407D01*
X126139801Y-70631396D01*
X126139350Y-70631937D01*
X126137732Y-70630620D01*
X126135302Y-70627440D01*
X126134700Y-70626520D01*
X126131582Y-70622878D01*
X126127703Y-70621337D01*
X126122203Y-70621690D01*
X126118310Y-70622582D01*
X126113520Y-70623835D01*
X126124302Y-70610221D01*
X126119927Y-70603610D01*
X126117471Y-70599471D01*
X126117238Y-70597480D01*
X126119454Y-70597457D01*
X126124350Y-70599220D01*
X126125076Y-70599521D01*
X126128998Y-70601019D01*
X126131327Y-70601641D01*
X126131544Y-70601605D01*
X126132740Y-70600161D01*
X126135325Y-70596948D01*
X126137277Y-70594499D01*
X126142577Y-70587832D01*
X126141433Y-70606006D01*
G37*
G36*
X126018112Y-70432000D02*
G01*
X126021032Y-70434466D01*
X126023394Y-70435004D01*
X126026746Y-70433796D01*
X126028061Y-70433176D01*
X126033830Y-70430425D01*
X126031079Y-70436194D01*
X126029420Y-70440100D01*
X126029471Y-70442619D01*
X126031434Y-70445338D01*
X126032380Y-70446380D01*
X126036433Y-70450796D01*
X126030170Y-70449829D01*
X126026057Y-70449455D01*
X126023580Y-70450470D01*
X126021423Y-70453590D01*
X126020660Y-70455009D01*
X126017413Y-70461157D01*
X126017314Y-70456157D01*
X126016645Y-70451001D01*
X126014356Y-70448037D01*
X126009638Y-70446295D01*
X126008933Y-70446135D01*
X126003100Y-70444862D01*
X126008516Y-70442290D01*
X126012274Y-70439948D01*
X126013747Y-70436891D01*
X126013933Y-70433896D01*
X126013933Y-70428074D01*
X126018112Y-70432000D01*
G37*
G36*
X125851080Y-70744509D02*
G01*
X126125600Y-70744509D01*
X126126433Y-70745342D01*
X126127266Y-70744509D01*
X126126433Y-70743675D01*
X126125600Y-70744509D01*
X125851080Y-70744509D01*
X125851641Y-70743993D01*
X125854344Y-70742184D01*
X125859502Y-70739180D01*
X125866733Y-70735179D01*
X125875650Y-70730375D01*
X125885872Y-70724966D01*
X125897012Y-70719148D01*
X125908686Y-70713117D01*
X125920512Y-70707071D01*
X125932103Y-70701205D01*
X125943076Y-70695715D01*
X125953047Y-70690799D01*
X125961631Y-70686652D01*
X125968445Y-70683472D01*
X125973103Y-70681454D01*
X125975222Y-70680795D01*
X125975254Y-70680801D01*
X125977323Y-70681607D01*
X125982139Y-70683598D01*
X125989390Y-70686642D01*
X125998759Y-70690604D01*
X126009935Y-70695352D01*
X126022602Y-70700754D01*
X126036447Y-70706674D01*
X126050434Y-70712672D01*
X126065009Y-70718912D01*
X126078625Y-70724710D01*
X126090983Y-70729940D01*
X126101780Y-70734475D01*
X126110716Y-70738189D01*
X126117489Y-70740958D01*
X126121799Y-70742654D01*
X126123343Y-70743155D01*
X126122013Y-70742317D01*
X126117981Y-70740130D01*
X126111524Y-70736736D01*
X126102919Y-70732277D01*
X126092445Y-70726897D01*
X126080378Y-70720739D01*
X126066997Y-70713945D01*
X126052579Y-70706659D01*
X126048508Y-70704608D01*
X125973100Y-70666634D01*
X125953100Y-70677362D01*
X125943535Y-70682471D01*
X125932418Y-70688378D01*
X125921149Y-70694339D01*
X125911433Y-70699452D01*
X125903036Y-70703882D01*
X125895062Y-70708136D01*
X125888284Y-70711798D01*
X125883474Y-70714454D01*
X125882583Y-70714962D01*
X125875399Y-70719108D01*
X125876433Y-70703064D01*
X125918100Y-70678352D01*
X125929781Y-70671427D01*
X125941449Y-70664514D01*
X125952530Y-70657952D01*
X125962452Y-70652082D01*
X125970641Y-70647241D01*
X125976433Y-70643824D01*
X125982403Y-70640304D01*
X125990662Y-70635429D01*
X126000628Y-70629543D01*
X126011722Y-70622987D01*
X126023363Y-70616105D01*
X126034243Y-70609670D01*
X126044812Y-70603432D01*
X126054423Y-70597785D01*
X126062711Y-70592943D01*
X126069309Y-70589117D01*
X126073852Y-70586522D01*
X126075973Y-70585370D01*
X126076077Y-70585332D01*
X126076494Y-70586870D01*
X126077024Y-70590983D01*
X126077578Y-70596920D01*
X126077807Y-70599916D01*
X126078754Y-70608798D01*
X126080271Y-70618480D01*
X126082043Y-70626973D01*
X126082182Y-70627524D01*
X126084928Y-70636953D01*
X126088210Y-70645273D01*
X126092416Y-70653098D01*
X126097937Y-70661041D01*
X126105163Y-70669716D01*
X126114485Y-70679735D01*
X126117146Y-70682478D01*
X126137944Y-70703785D01*
X126160522Y-70681444D01*
X126168810Y-70673353D01*
X126177458Y-70665099D01*
X126185743Y-70657361D01*
X126192940Y-70650817D01*
X126197116Y-70647161D01*
X126203910Y-70641580D01*
X126211282Y-70635864D01*
X126218689Y-70630397D01*
X126225585Y-70625564D01*
X126231425Y-70621748D01*
X126235665Y-70619333D01*
X126237562Y-70618667D01*
X126237209Y-70619811D01*
X126234974Y-70622915D01*
X126231234Y-70627490D01*
X126226934Y-70632418D01*
X126212927Y-70648598D01*
X126201240Y-70663325D01*
X126191503Y-70677115D01*
X126183343Y-70690481D01*
X126178549Y-70699506D01*
X126174536Y-70707669D01*
X126172158Y-70713073D01*
X126171469Y-70715895D01*
X126172527Y-70716314D01*
X126175388Y-70714506D01*
X126180108Y-70710649D01*
X126181661Y-70709321D01*
X126194936Y-70698252D01*
X126207056Y-70688949D01*
X126219043Y-70680655D01*
X126228788Y-70674503D01*
X126236465Y-70670091D01*
X126244784Y-70665746D01*
X126253054Y-70661783D01*
X126260582Y-70658518D01*
X126266675Y-70656267D01*
X126270641Y-70655344D01*
X126270877Y-70655336D01*
X126273194Y-70656547D01*
X126276415Y-70659597D01*
X126277764Y-70661183D01*
X126282428Y-70667029D01*
X126271931Y-70671484D01*
X126266220Y-70674033D01*
X126258995Y-70677443D01*
X126250835Y-70681419D01*
X126242321Y-70685665D01*
X126234033Y-70689888D01*
X126226551Y-70693791D01*
X126220456Y-70697080D01*
X126216328Y-70699461D01*
X126214837Y-70700507D01*
X126215097Y-70701018D01*
X126217727Y-70700268D01*
X126219766Y-70699447D01*
X126223415Y-70697908D01*
X126229529Y-70695366D01*
X126237487Y-70692076D01*
X126246669Y-70688296D01*
X126256245Y-70684367D01*
X126286057Y-70672156D01*
X126293328Y-70678115D01*
X126297280Y-70681422D01*
X126299920Y-70683764D01*
X126300600Y-70684501D01*
X126299345Y-70685665D01*
X126296056Y-70688205D01*
X126291446Y-70691609D01*
X126286227Y-70695364D01*
X126281112Y-70698958D01*
X126276813Y-70701879D01*
X126274042Y-70703614D01*
X126273959Y-70703659D01*
X126271040Y-70705478D01*
X126271157Y-70706165D01*
X126274215Y-70705732D01*
X126280119Y-70704195D01*
X126288776Y-70701568D01*
X126289909Y-70701207D01*
X126297975Y-70698628D01*
X126303385Y-70696918D01*
X126306663Y-70695950D01*
X126308335Y-70695599D01*
X126308926Y-70695739D01*
X126308961Y-70696244D01*
X126308933Y-70696649D01*
X126307469Y-70697618D01*
X126303310Y-70699777D01*
X126296806Y-70702958D01*
X126288308Y-70706994D01*
X126278166Y-70711719D01*
X126266731Y-70716965D01*
X126257376Y-70721205D01*
X126241768Y-70728279D01*
X126228957Y-70734162D01*
X126218980Y-70738837D01*
X126211871Y-70742285D01*
X126207666Y-70744489D01*
X126206399Y-70745431D01*
X126208106Y-70745094D01*
X126212822Y-70743458D01*
X126215901Y-70742306D01*
X126219734Y-70740852D01*
X126226198Y-70738400D01*
X126234808Y-70735133D01*
X126245078Y-70731235D01*
X126256522Y-70726892D01*
X126268656Y-70722287D01*
X126271234Y-70721309D01*
X126283043Y-70716856D01*
X126293909Y-70712817D01*
X126303424Y-70709337D01*
X126311178Y-70706565D01*
X126316764Y-70704647D01*
X126319775Y-70703730D01*
X126320123Y-70703673D01*
X126321736Y-70703921D01*
X126321920Y-70704732D01*
X126320500Y-70706210D01*
X126317300Y-70708454D01*
X126312146Y-70711568D01*
X126304860Y-70715653D01*
X126295269Y-70720811D01*
X126283196Y-70727144D01*
X126268467Y-70734754D01*
X126252670Y-70742842D01*
X126238580Y-70750059D01*
X126225337Y-70756892D01*
X126213251Y-70763175D01*
X126202632Y-70768747D01*
X126193791Y-70773443D01*
X126187038Y-70777099D01*
X126182683Y-70779553D01*
X126181098Y-70780571D01*
X126177634Y-70783215D01*
X126172833Y-70785975D01*
X126166456Y-70788936D01*
X126158267Y-70792180D01*
X126148029Y-70795791D01*
X126135505Y-70799852D01*
X126120457Y-70804449D01*
X126102649Y-70809663D01*
X126081843Y-70815578D01*
X126081433Y-70815693D01*
X126065271Y-70820139D01*
X126051900Y-70823569D01*
X126040955Y-70826036D01*
X126032068Y-70827590D01*
X126024874Y-70828281D01*
X126019005Y-70828161D01*
X126014095Y-70827281D01*
X126009777Y-70825691D01*
X126009677Y-70825644D01*
X126004460Y-70822376D01*
X125999121Y-70817806D01*
X125997177Y-70815726D01*
X125995620Y-70814036D01*
X125993757Y-70812398D01*
X125991298Y-70810673D01*
X125987956Y-70808725D01*
X125983442Y-70806416D01*
X125977467Y-70803609D01*
X125969743Y-70800166D01*
X125959981Y-70795950D01*
X125947893Y-70790823D01*
X125933190Y-70784649D01*
X125922658Y-70780244D01*
X125908310Y-70774227D01*
X125894849Y-70768537D01*
X125882599Y-70763315D01*
X125871887Y-70758704D01*
X125863039Y-70754843D01*
X125856381Y-70751874D01*
X125852239Y-70749937D01*
X125850991Y-70749257D01*
X125849141Y-70747444D01*
X125849549Y-70746176D01*
X126202266Y-70746176D01*
X126203100Y-70747009D01*
X126203933Y-70746176D01*
X126203100Y-70745342D01*
X126202266Y-70746176D01*
X125849549Y-70746176D01*
X125849668Y-70745807D01*
X125851080Y-70744509D01*
G37*
G36*
X126068825Y-70471635D02*
G01*
X126068933Y-70472352D01*
X126069494Y-70475057D01*
X126070908Y-70479478D01*
X126071632Y-70481448D01*
X126074331Y-70488515D01*
X126085211Y-70489004D01*
X126096091Y-70489492D01*
X126087515Y-70495326D01*
X126083018Y-70498664D01*
X126079912Y-70501505D01*
X126078936Y-70503033D01*
X126079456Y-70505655D01*
X126080768Y-70510040D01*
X126081433Y-70511994D01*
X126083229Y-70517452D01*
X126083509Y-70520102D01*
X126081950Y-70520167D01*
X126078229Y-70517866D01*
X126075600Y-70516001D01*
X126067266Y-70510014D01*
X126058933Y-70516001D01*
X126054621Y-70518888D01*
X126051610Y-70520500D01*
X126050600Y-70520534D01*
X126051115Y-70518190D01*
X126052415Y-70513989D01*
X126053100Y-70511994D01*
X126054623Y-70507282D01*
X126055507Y-70503788D01*
X126055596Y-70503033D01*
X126054313Y-70501179D01*
X126050976Y-70498232D01*
X126047017Y-70495326D01*
X126038442Y-70489492D01*
X126049369Y-70489003D01*
X126060296Y-70488513D01*
X126062948Y-70481885D01*
X126064613Y-70477173D01*
X126065535Y-70473495D01*
X126065600Y-70472791D01*
X126066510Y-70470594D01*
X126067266Y-70470324D01*
X126068825Y-70471635D01*
G37*
G36*
X126081383Y-70377990D02*
G01*
X126082626Y-70382911D01*
X126084112Y-70385437D01*
X126086539Y-70386476D01*
X126088103Y-70386697D01*
X126092784Y-70387619D01*
X126094187Y-70389072D01*
X126092342Y-70391154D01*
X126089800Y-70392684D01*
X126086256Y-70394839D01*
X126084773Y-70397037D01*
X126084746Y-70400598D01*
X126085056Y-70403048D01*
X126085519Y-70407421D01*
X126085529Y-70410014D01*
X126085377Y-70410320D01*
X126083896Y-70409254D01*
X126080982Y-70406578D01*
X126079691Y-70405309D01*
X126074680Y-70400298D01*
X126068473Y-70403463D01*
X126064668Y-70405277D01*
X126062476Y-70406077D01*
X126062266Y-70406030D01*
X126062914Y-70404292D01*
X126064524Y-70400709D01*
X126065081Y-70399530D01*
X126067896Y-70393627D01*
X126062298Y-70387851D01*
X126056699Y-70382075D01*
X126064976Y-70383055D01*
X126073253Y-70384036D01*
X126076457Y-70376932D01*
X126079660Y-70369828D01*
X126081383Y-70377990D01*
G37*
%TO.C,D1*%
X119702000Y-76830000D02*
X118042000Y-76830000D01*
X120554000Y-78110000D02*
X118042000Y-78110000D01*
D13*
%TO.C,J4*%
X112970000Y-91440000D02*
X112970000Y-90110000D01*
X112970000Y-92710000D02*
X115630000Y-92710000D01*
X112970000Y-92710000D02*
X112970000Y-110550000D01*
X112970000Y-90110000D02*
X114300000Y-90110000D01*
X115630000Y-92710000D02*
X115630000Y-110550000D01*
X112970000Y-110550000D02*
X115630000Y-110550000D01*
D12*
%TO.C,R4*%
X148615400Y-66277000D02*
X148615400Y-67327000D01*
%TO.C,D2*%
X132339600Y-70667800D02*
X129827600Y-70667800D01*
X131487600Y-69387800D02*
X129827600Y-69387800D01*
%TO.C,R2*%
X139787000Y-75288000D02*
X139787000Y-74238000D01*
D13*
%TO.C,J1*%
X156230000Y-100415000D02*
X123150000Y-100415000D01*
X123150000Y-97755000D02*
X123150000Y-100415000D01*
X158830000Y-99085000D02*
X158830000Y-100415000D01*
X158830000Y-100415000D02*
X157500000Y-100415000D01*
X156230000Y-97755000D02*
X156230000Y-100415000D01*
X156230000Y-97755000D02*
X123150000Y-97755000D01*
D12*
%TO.C,D3*%
X144898800Y-66187400D02*
X143238800Y-66187400D01*
X145750800Y-67467400D02*
X143238800Y-67467400D01*
%TO.C,U1*%
X136142200Y-80033600D02*
X145442200Y-80033600D01*
X136142200Y-89333600D02*
X136142200Y-80033600D01*
X145442200Y-80033600D02*
X145442200Y-89333600D01*
X145442200Y-89333600D02*
X136142200Y-89333600D01*
D14*
X134692200Y-80183600D02*
G75*
G03*
X134692200Y-80183600I-125000J0D01*
G01*
D13*
%TO.C,J3*%
X137220000Y-59670000D02*
X137220000Y-57070000D01*
X134620000Y-59670000D02*
X137220000Y-59670000D01*
X147440000Y-62270000D02*
X147440000Y-57070000D01*
X134620000Y-62270000D02*
X147440000Y-62270000D01*
X134620000Y-57070000D02*
X135950000Y-57070000D01*
X137220000Y-57070000D02*
X147440000Y-57070000D01*
X134620000Y-62270000D02*
X134620000Y-59670000D01*
X134620000Y-58400000D02*
X134620000Y-57070000D01*
D12*
%TO.C,R1*%
X154250000Y-78950000D02*
X155300000Y-78950000D01*
%TO.C,R5*%
X118618000Y-80535000D02*
X118618000Y-79485000D01*
D13*
%TO.C,J5*%
X166360800Y-90110000D02*
X167690800Y-90110000D01*
X166360800Y-110550000D02*
X169020800Y-110550000D01*
X166360800Y-92710000D02*
X166360800Y-110550000D01*
X166360800Y-92710000D02*
X169020800Y-92710000D01*
X166360800Y-91440000D02*
X166360800Y-90110000D01*
X169020800Y-92710000D02*
X169020800Y-110550000D01*
%TD*%
M02*
