%TF.GenerationSoftware,KiCad,Pcbnew,(6.0.7)*%
%TF.CreationDate,2022-10-18T11:50:53-04:00*%
%TF.ProjectId,LCDPCB,4c434450-4342-42e6-9b69-6361645f7063,rev?*%
%TF.SameCoordinates,Original*%
%TF.FileFunction,Soldermask,Bot*%
%TF.FilePolarity,Negative*%
%FSLAX46Y46*%
G04 Gerber Fmt 4.6, Leading zero omitted, Abs format (unit mm)*
G04 Created by KiCad (PCBNEW (6.0.7)) date 2022-10-18 11:50:53*
%MOMM*%
%LPD*%
G01*
G04 APERTURE LIST*
%ADD10R,1.700000X1.700000*%
%ADD11O,1.700000X1.700000*%
%ADD12C,2.200000*%
%ADD13R,1.070000X1.470000*%
%ADD14R,1.470000X1.070000*%
%ADD15R,1.390000X0.960000*%
%ADD16C,0.800000*%
%ADD17C,1.000000*%
%ADD18C,1.200000*%
%ADD19C,1.500000*%
G04 APERTURE END LIST*
D10*
%TO.C,J2*%
X114325000Y-77480000D03*
D11*
X114325000Y-80020000D03*
X114325000Y-82560000D03*
X114325000Y-85100000D03*
%TD*%
D10*
%TO.C,J4*%
X114300000Y-91440000D03*
D11*
X114300000Y-93980000D03*
X114300000Y-96520000D03*
X114300000Y-99060000D03*
X114300000Y-101600000D03*
X114300000Y-104140000D03*
X114300000Y-106680000D03*
X114300000Y-109220000D03*
%TD*%
D10*
%TO.C,J1*%
X157500000Y-99085000D03*
D11*
X154960000Y-99085000D03*
X152420000Y-99085000D03*
X149880000Y-99085000D03*
X147340000Y-99085000D03*
X144800000Y-99085000D03*
X142260000Y-99085000D03*
X139720000Y-99085000D03*
X137180000Y-99085000D03*
X134640000Y-99085000D03*
X132100000Y-99085000D03*
X129560000Y-99085000D03*
X127020000Y-99085000D03*
X124480000Y-99085000D03*
%TD*%
D10*
%TO.C,J3*%
X135950000Y-58400000D03*
D11*
X135950000Y-60940000D03*
X138490000Y-58400000D03*
X138490000Y-60940000D03*
X141030000Y-58400000D03*
X141030000Y-60940000D03*
X143570000Y-58400000D03*
X143570000Y-60940000D03*
X146110000Y-58400000D03*
X146110000Y-60940000D03*
%TD*%
D12*
%TO.C,H3*%
X114000000Y-57000000D03*
%TD*%
%TO.C,H1*%
X168000000Y-57000000D03*
%TD*%
%TO.C,H4*%
X114000000Y-115000000D03*
%TD*%
D10*
%TO.C,J5*%
X167690800Y-91440000D03*
D11*
X167690800Y-93980000D03*
X167690800Y-96520000D03*
X167690800Y-99060000D03*
X167690800Y-101600000D03*
X167690800Y-104140000D03*
X167690800Y-106680000D03*
X167690800Y-109220000D03*
%TD*%
D12*
%TO.C,H2*%
X168000000Y-115000000D03*
%TD*%
D13*
%TO.C,C9*%
X146997000Y-92710000D03*
X145357000Y-92710000D03*
%TD*%
%TO.C,C6*%
X140088200Y-76327000D03*
X138448200Y-76327000D03*
%TD*%
%TO.C,C8*%
X138564200Y-93218000D03*
X136924200Y-93218000D03*
%TD*%
D14*
%TO.C,C7*%
X132969000Y-82365000D03*
X132969000Y-84005000D03*
%TD*%
%TO.C,C10*%
X149352000Y-79952000D03*
X149352000Y-81592000D03*
%TD*%
D15*
%TO.C,FB1*%
X136779000Y-76629000D03*
X136779000Y-75009000D03*
%TD*%
D16*
X154432000Y-71120000D03*
X130556000Y-91186000D03*
X136640000Y-70878000D03*
D17*
X127254000Y-72136000D03*
X122174000Y-59944000D03*
X134366000Y-72644000D03*
D16*
X147906875Y-81496845D03*
X144202243Y-91864197D03*
X161544000Y-84328000D03*
D18*
X124714000Y-63246000D03*
D16*
X141825000Y-76375000D03*
D18*
X150876000Y-66802000D03*
D16*
X138236323Y-77610225D03*
X137033000Y-91758602D03*
D17*
X122174000Y-72644000D03*
D16*
X157480000Y-81026000D03*
X132969000Y-85356500D03*
D17*
X124714000Y-72136000D03*
D16*
X138430000Y-91758602D03*
X145057558Y-91207003D03*
X131350000Y-82225000D03*
X133604000Y-81026000D03*
X134975000Y-76475000D03*
X139775000Y-93250000D03*
X147828000Y-80391000D03*
X136750000Y-77600000D03*
X148577500Y-92675000D03*
X149375000Y-78775000D03*
D18*
X126746000Y-66802000D03*
X144399000Y-68707000D03*
D16*
X152425000Y-86500000D03*
X138430000Y-85344000D03*
X152450000Y-103375000D03*
X149860000Y-96520000D03*
X150114000Y-104140000D03*
X143256000Y-96520000D03*
X147320000Y-106680000D03*
X160274000Y-102616000D03*
X160274000Y-99060000D03*
X144780000Y-95758000D03*
X144780000Y-102616000D03*
X140990500Y-86106108D03*
X142494000Y-87122000D03*
X146050000Y-94234000D03*
X159512000Y-101854000D03*
X159512000Y-96520000D03*
X137160000Y-101600000D03*
X140970000Y-87884000D03*
X138671500Y-81280000D03*
X120142000Y-85852000D03*
X145251961Y-82024748D03*
X145288000Y-73406000D03*
X138176000Y-86614000D03*
X119888000Y-97282000D03*
X137414000Y-72898000D03*
X135636000Y-96266000D03*
X137398101Y-83413726D03*
X133604000Y-94996000D03*
X121941977Y-95017977D03*
X121920000Y-106172000D03*
X143764000Y-80772000D03*
X124714000Y-80264000D03*
X124587000Y-97015500D03*
X124714000Y-87376000D03*
X139446000Y-88900000D03*
X120904000Y-80264000D03*
X125730000Y-101346000D03*
X120650000Y-82550000D03*
X139192000Y-87884000D03*
X125476000Y-82550000D03*
X126259977Y-87862023D03*
X133500469Y-86976975D03*
X116459000Y-77470000D03*
X126492000Y-79502000D03*
X126492000Y-86614000D03*
X116459000Y-80035400D03*
X116459000Y-82550000D03*
D19*
X113550000Y-67875000D03*
X114925000Y-63800000D03*
X119250000Y-63775000D03*
M02*
