%TF.GenerationSoftware,KiCad,Pcbnew,(6.0.7)*%
%TF.CreationDate,2022-10-18T11:50:53-04:00*%
%TF.ProjectId,LCDPCB,4c434450-4342-42e6-9b69-6361645f7063,rev?*%
%TF.SameCoordinates,Original*%
%TF.FileFunction,Paste,Top*%
%TF.FilePolarity,Positive*%
%FSLAX46Y46*%
G04 Gerber Fmt 4.6, Leading zero omitted, Abs format (unit mm)*
G04 Created by KiCad (PCBNEW (6.0.7)) date 2022-10-18 11:50:53*
%MOMM*%
%LPD*%
G01*
G04 APERTURE LIST*
%ADD10R,1.000000X1.400000*%
%ADD11R,1.450000X0.900000*%
%ADD12R,1.470000X1.070000*%
%ADD13R,2.000000X1.500000*%
%ADD14R,2.000000X3.800000*%
%ADD15R,1.400000X2.100000*%
%ADD16R,1.085000X0.550000*%
%ADD17R,0.950000X1.450000*%
%ADD18R,1.475000X0.300000*%
%ADD19R,0.300000X1.475000*%
%ADD20R,1.400000X1.000000*%
%ADD21R,1.390000X0.960000*%
G04 APERTURE END LIST*
D10*
%TO.C,R6*%
X119568000Y-82550000D03*
X117668000Y-82550000D03*
%TD*%
D11*
%TO.C,R3*%
X134340600Y-69561200D03*
X134340600Y-71561200D03*
%TD*%
D12*
%TO.C,C4*%
X124841000Y-69411000D03*
X124841000Y-71051000D03*
%TD*%
D13*
%TO.C,U2*%
X122072800Y-70880000D03*
D14*
X115772800Y-68580000D03*
D13*
X122072800Y-68580000D03*
X122072800Y-66280000D03*
%TD*%
D15*
%TO.C,SW1*%
X160005200Y-84356800D03*
X160005200Y-75256800D03*
X164505200Y-84356800D03*
X164505200Y-75256800D03*
%TD*%
D16*
%TO.C,D1*%
X120012000Y-77470000D03*
X117732000Y-77470000D03*
%TD*%
D17*
%TO.C,R4*%
X147615400Y-66802000D03*
X149615400Y-66802000D03*
%TD*%
D16*
%TO.C,D2*%
X131797600Y-70027800D03*
X129517600Y-70027800D03*
%TD*%
D10*
%TO.C,R2*%
X140737000Y-74763000D03*
X138837000Y-74763000D03*
%TD*%
D16*
%TO.C,D3*%
X145208800Y-66827400D03*
X142928800Y-66827400D03*
%TD*%
D18*
%TO.C,U1*%
X135054200Y-80933600D03*
X135054200Y-81433600D03*
X135054200Y-81933600D03*
X135054200Y-82433600D03*
X135054200Y-82933600D03*
X135054200Y-83433600D03*
X135054200Y-83933600D03*
X135054200Y-84433600D03*
X135054200Y-84933600D03*
X135054200Y-85433600D03*
X135054200Y-85933600D03*
X135054200Y-86433600D03*
X135054200Y-86933600D03*
X135054200Y-87433600D03*
X135054200Y-87933600D03*
X135054200Y-88433600D03*
D19*
X137042200Y-90421600D03*
X137542200Y-90421600D03*
X138042200Y-90421600D03*
X138542200Y-90421600D03*
X139042200Y-90421600D03*
X139542200Y-90421600D03*
X140042200Y-90421600D03*
X140542200Y-90421600D03*
X141042200Y-90421600D03*
X141542200Y-90421600D03*
X142042200Y-90421600D03*
X142542200Y-90421600D03*
X143042200Y-90421600D03*
X143542200Y-90421600D03*
X144042200Y-90421600D03*
X144542200Y-90421600D03*
D18*
X146530200Y-88433600D03*
X146530200Y-87933600D03*
X146530200Y-87433600D03*
X146530200Y-86933600D03*
X146530200Y-86433600D03*
X146530200Y-85933600D03*
X146530200Y-85433600D03*
X146530200Y-84933600D03*
X146530200Y-84433600D03*
X146530200Y-83933600D03*
X146530200Y-83433600D03*
X146530200Y-82933600D03*
X146530200Y-82433600D03*
X146530200Y-81933600D03*
X146530200Y-81433600D03*
X146530200Y-80933600D03*
D19*
X144542200Y-78945600D03*
X144042200Y-78945600D03*
X143542200Y-78945600D03*
X143042200Y-78945600D03*
X142542200Y-78945600D03*
X142042200Y-78945600D03*
X141542200Y-78945600D03*
X141042200Y-78945600D03*
X140542200Y-78945600D03*
X140042200Y-78945600D03*
X139542200Y-78945600D03*
X139042200Y-78945600D03*
X138542200Y-78945600D03*
X138042200Y-78945600D03*
X137542200Y-78945600D03*
X137042200Y-78945600D03*
%TD*%
D20*
%TO.C,R1*%
X154775000Y-79900000D03*
X154775000Y-78000000D03*
%TD*%
D21*
%TO.C,C5*%
X127254000Y-69415600D03*
X127254000Y-70995600D03*
%TD*%
D10*
%TO.C,R5*%
X119568000Y-80010000D03*
X117668000Y-80010000D03*
%TD*%
D21*
%TO.C,C2*%
X122123200Y-63223200D03*
X122123200Y-61643200D03*
%TD*%
D12*
%TO.C,C1*%
X157500000Y-78030000D03*
X157500000Y-79670000D03*
%TD*%
%TO.C,C3*%
X124714000Y-66301200D03*
X124714000Y-64661200D03*
%TD*%
M02*
