%TF.GenerationSoftware,KiCad,Pcbnew,6.0.2+dfsg-1*%
%TF.CreationDate,2022-10-18T14:42:53-04:00*%
%TF.ProjectId,main-keyboard-pcb,6d61696e-2d6b-4657-9962-6f6172642d70,1.0*%
%TF.SameCoordinates,Original*%
%TF.FileFunction,Paste,Top*%
%TF.FilePolarity,Positive*%
%FSLAX46Y46*%
G04 Gerber Fmt 4.6, Leading zero omitted, Abs format (unit mm)*
G04 Created by KiCad (PCBNEW 6.0.2+dfsg-1) date 2022-10-18 14:42:53*
%MOMM*%
%LPD*%
G01*
G04 APERTURE LIST*
G04 Aperture macros list*
%AMRoundRect*
0 Rectangle with rounded corners*
0 $1 Rounding radius*
0 $2 $3 $4 $5 $6 $7 $8 $9 X,Y pos of 4 corners*
0 Add a 4 corners polygon primitive as box body*
4,1,4,$2,$3,$4,$5,$6,$7,$8,$9,$2,$3,0*
0 Add four circle primitives for the rounded corners*
1,1,$1+$1,$2,$3*
1,1,$1+$1,$4,$5*
1,1,$1+$1,$6,$7*
1,1,$1+$1,$8,$9*
0 Add four rect primitives between the rounded corners*
20,1,$1+$1,$2,$3,$4,$5,0*
20,1,$1+$1,$4,$5,$6,$7,0*
20,1,$1+$1,$6,$7,$8,$9,0*
20,1,$1+$1,$8,$9,$2,$3,0*%
G04 Aperture macros list end*
%ADD10R,1.150000X1.150000*%
%ADD11R,1.450000X1.150000*%
%ADD12R,1.150000X1.450000*%
%ADD13R,0.670000X0.300000*%
%ADD14R,1.050000X1.050000*%
%ADD15R,2.600000X8.199999*%
%ADD16R,1.470000X0.970000*%
%ADD17R,1.020000X1.470000*%
%ADD18R,0.960000X1.390000*%
%ADD19R,0.400000X1.400000*%
%ADD20R,1.750000X1.900000*%
%ADD21R,1.470000X1.020000*%
%ADD22RoundRect,0.075000X-0.725000X-0.075000X0.725000X-0.075000X0.725000X0.075000X-0.725000X0.075000X0*%
%ADD23RoundRect,0.075000X-0.075000X-0.725000X0.075000X-0.725000X0.075000X0.725000X-0.075000X0.725000X0*%
%ADD24R,1.400000X1.000000*%
%ADD25R,1.750000X1.350000*%
%ADD26RoundRect,0.150000X0.150000X-0.512500X0.150000X0.512500X-0.150000X0.512500X-0.150000X-0.512500X0*%
%ADD27R,2.100000X1.400000*%
G04 APERTURE END LIST*
D10*
%TO.C,R29*%
X323247000Y-84328000D03*
X320897000Y-84328000D03*
%TD*%
%TO.C,R28*%
X304387000Y-83820000D03*
X306737000Y-83820000D03*
%TD*%
%TO.C,R27*%
X293973000Y-83566000D03*
X296323000Y-83566000D03*
%TD*%
%TO.C,R25*%
X258159000Y-83566000D03*
X260509000Y-83566000D03*
%TD*%
%TO.C,R22*%
X192278000Y-117856000D03*
X192278000Y-120206000D03*
%TD*%
%TO.C,R21*%
X192278000Y-112427000D03*
X192278000Y-110077000D03*
%TD*%
D11*
%TO.C,Cboot1*%
X241880000Y-90796000D03*
X241880000Y-88996000D03*
%TD*%
D12*
%TO.C,C15*%
X177400000Y-88250000D03*
X175600000Y-88250000D03*
%TD*%
D10*
%TO.C,R4*%
X172466000Y-93123000D03*
X172466000Y-90773000D03*
%TD*%
D13*
%TO.C,IC1*%
X235802500Y-91006000D03*
X235802500Y-91506000D03*
X235802500Y-92006000D03*
X237282500Y-92006000D03*
X237282500Y-91506000D03*
X237282500Y-91006000D03*
%TD*%
D10*
%TO.C,R6*%
X168910000Y-94901000D03*
X168910000Y-92551000D03*
%TD*%
D14*
%TO.C,Cin_2*%
X235727500Y-82276000D03*
X237577500Y-82276000D03*
%TD*%
D15*
%TO.C,L1*%
X227350000Y-86995999D03*
X221750000Y-86995999D03*
%TD*%
D12*
%TO.C,C13*%
X177400000Y-96450000D03*
X175600000Y-96450000D03*
%TD*%
D16*
%TO.C,Cout_1*%
X215900000Y-92716000D03*
X215900000Y-94376000D03*
%TD*%
D17*
%TO.C,C7*%
X182156000Y-95250000D03*
X180556000Y-95250000D03*
%TD*%
D10*
%TO.C,R8*%
X375317000Y-143510000D03*
X372967000Y-143510000D03*
%TD*%
D18*
%TO.C,Cinx1*%
X235610000Y-88746000D03*
X237190000Y-88746000D03*
%TD*%
D10*
%TO.C,R9*%
X375317000Y-147066000D03*
X372967000Y-147066000D03*
%TD*%
%TO.C,R5*%
X165354000Y-94901000D03*
X165354000Y-92551000D03*
%TD*%
%TO.C,Rfbb1*%
X250237500Y-87746000D03*
X252587500Y-87746000D03*
%TD*%
D19*
%TO.C,J3*%
X213644000Y-86216000D03*
X212994000Y-86216000D03*
X212344000Y-86216000D03*
X211694000Y-86216000D03*
X211044000Y-86216000D03*
D20*
X213469000Y-83566000D03*
X211219000Y-83566000D03*
D12*
X214664000Y-85796000D03*
X210024000Y-85796000D03*
%TD*%
D10*
%TO.C,Rfbt1*%
X252412500Y-83156000D03*
X250062500Y-83156000D03*
%TD*%
D14*
%TO.C,Cin_1*%
X235730000Y-85986000D03*
X237580000Y-85986000D03*
%TD*%
D21*
%TO.C,Coutx1*%
X218280000Y-92746000D03*
X218280000Y-94346000D03*
%TD*%
D10*
%TO.C,R2*%
X165354000Y-87217000D03*
X165354000Y-89567000D03*
%TD*%
D22*
%TO.C,U2*%
X184095000Y-86710000D03*
X184095000Y-87210000D03*
X184095000Y-87710000D03*
X184095000Y-88210000D03*
X184095000Y-88710000D03*
X184095000Y-89210000D03*
X184095000Y-89710000D03*
X184095000Y-90210000D03*
X184095000Y-90710000D03*
X184095000Y-91210000D03*
X184095000Y-91710000D03*
X184095000Y-92210000D03*
X184095000Y-92710000D03*
X184095000Y-93210000D03*
X184095000Y-93710000D03*
X184095000Y-94210000D03*
X184095000Y-94710000D03*
X184095000Y-95210000D03*
X184095000Y-95710000D03*
X184095000Y-96210000D03*
X184095000Y-96710000D03*
X184095000Y-97210000D03*
X184095000Y-97710000D03*
X184095000Y-98210000D03*
X184095000Y-98710000D03*
D23*
X185770000Y-100385000D03*
X186270000Y-100385000D03*
X186770000Y-100385000D03*
X187270000Y-100385000D03*
X187770000Y-100385000D03*
X188270000Y-100385000D03*
X188770000Y-100385000D03*
X189270000Y-100385000D03*
X189770000Y-100385000D03*
X190270000Y-100385000D03*
X190770000Y-100385000D03*
X191270000Y-100385000D03*
X191770000Y-100385000D03*
X192270000Y-100385000D03*
X192770000Y-100385000D03*
X193270000Y-100385000D03*
X193770000Y-100385000D03*
X194270000Y-100385000D03*
X194770000Y-100385000D03*
X195270000Y-100385000D03*
X195770000Y-100385000D03*
X196270000Y-100385000D03*
X196770000Y-100385000D03*
X197270000Y-100385000D03*
X197770000Y-100385000D03*
D22*
X199445000Y-98710000D03*
X199445000Y-98210000D03*
X199445000Y-97710000D03*
X199445000Y-97210000D03*
X199445000Y-96710000D03*
X199445000Y-96210000D03*
X199445000Y-95710000D03*
X199445000Y-95210000D03*
X199445000Y-94710000D03*
X199445000Y-94210000D03*
X199445000Y-93710000D03*
X199445000Y-93210000D03*
X199445000Y-92710000D03*
X199445000Y-92210000D03*
X199445000Y-91710000D03*
X199445000Y-91210000D03*
X199445000Y-90710000D03*
X199445000Y-90210000D03*
X199445000Y-89710000D03*
X199445000Y-89210000D03*
X199445000Y-88710000D03*
X199445000Y-88210000D03*
X199445000Y-87710000D03*
X199445000Y-87210000D03*
X199445000Y-86710000D03*
D23*
X197770000Y-85035000D03*
X197270000Y-85035000D03*
X196770000Y-85035000D03*
X196270000Y-85035000D03*
X195770000Y-85035000D03*
X195270000Y-85035000D03*
X194770000Y-85035000D03*
X194270000Y-85035000D03*
X193770000Y-85035000D03*
X193270000Y-85035000D03*
X192770000Y-85035000D03*
X192270000Y-85035000D03*
X191770000Y-85035000D03*
X191270000Y-85035000D03*
X190770000Y-85035000D03*
X190270000Y-85035000D03*
X189770000Y-85035000D03*
X189270000Y-85035000D03*
X188770000Y-85035000D03*
X188270000Y-85035000D03*
X187770000Y-85035000D03*
X187270000Y-85035000D03*
X186770000Y-85035000D03*
X186270000Y-85035000D03*
X185770000Y-85035000D03*
%TD*%
D24*
%TO.C,R3*%
X138430000Y-89154000D03*
X138430000Y-91054000D03*
%TD*%
D25*
%TO.C,Y1*%
X175575000Y-93000000D03*
X177825000Y-93000000D03*
X177825000Y-91350000D03*
X175575000Y-91350000D03*
%TD*%
D26*
%TO.C,U1*%
X206300000Y-93137500D03*
X207250000Y-93137500D03*
X208200000Y-93137500D03*
X208200000Y-90862500D03*
X207250000Y-90862500D03*
X206300000Y-90862500D03*
%TD*%
D27*
%TO.C,SW68*%
X133902000Y-87465000D03*
X124802000Y-87465000D03*
X133902000Y-82965000D03*
X124802000Y-82965000D03*
%TD*%
D21*
%TO.C,C17*%
X181864000Y-97244000D03*
X181864000Y-98844000D03*
%TD*%
D17*
%TO.C,C12*%
X199898000Y-85090000D03*
X201498000Y-85090000D03*
%TD*%
D16*
%TO.C,Cout_2*%
X213540000Y-92706000D03*
X213540000Y-94366000D03*
%TD*%
D10*
%TO.C,R7*%
X168910000Y-87217000D03*
X168910000Y-89567000D03*
%TD*%
D21*
%TO.C,C3*%
X141224000Y-88862000D03*
X141224000Y-90462000D03*
%TD*%
D16*
%TO.C,Cout_3*%
X211150000Y-92696000D03*
X211150000Y-94356000D03*
%TD*%
M02*
