%TF.GenerationSoftware,KiCad,Pcbnew,6.0.2+dfsg-1*%
%TF.CreationDate,2022-10-18T15:59:08-04:00*%
%TF.ProjectId,main-keyboard-pcb,6d61696e-2d6b-4657-9962-6f6172642d70,1.0*%
%TF.SameCoordinates,Original*%
%TF.FileFunction,Soldermask,Bot*%
%TF.FilePolarity,Negative*%
%FSLAX46Y46*%
G04 Gerber Fmt 4.6, Leading zero omitted, Abs format (unit mm)*
G04 Created by KiCad (PCBNEW 6.0.2+dfsg-1) date 2022-10-18 15:59:08*
%MOMM*%
%LPD*%
G01*
G04 APERTURE LIST*
G04 Aperture macros list*
%AMRotRect*
0 Rectangle, with rotation*
0 The origin of the aperture is its center*
0 $1 length*
0 $2 width*
0 $3 Rotation angle, in degrees counterclockwise*
0 Add horizontal line*
21,1,$1,$2,0,0,$3*%
G04 Aperture macros list end*
%ADD10C,3.000000*%
%ADD11C,1.750000*%
%ADD12C,3.987800*%
%ADD13R,2.550000X2.500000*%
%ADD14RotRect,2.550000X2.500000X348.000000*%
%ADD15C,4.400000*%
%ADD16RotRect,2.550000X2.500000X12.000000*%
%ADD17C,3.048000*%
%ADD18R,1.700000X1.700000*%
%ADD19O,1.700000X1.700000*%
%ADD20C,1.850000*%
%ADD21R,1.150000X1.150000*%
%ADD22RotRect,0.750000X1.200000X348.000000*%
%ADD23RotRect,0.750000X1.200000X12.000000*%
%ADD24R,0.750000X1.200000*%
%ADD25R,1.020000X1.470000*%
%ADD26R,1.470000X1.020000*%
%ADD27R,1.450000X1.150000*%
%ADD28C,0.800000*%
G04 APERTURE END LIST*
D10*
%TO.C,SW52*%
X298336650Y-109563633D03*
D11*
X300876650Y-114643633D03*
D10*
X291986650Y-112103633D03*
D11*
X290716650Y-114643633D03*
D12*
X295796650Y-114643633D03*
D13*
X288711650Y-112103633D03*
X301638650Y-109563633D03*
%TD*%
D11*
%TO.C,SW16*%
X132391698Y-119984389D03*
D10*
X130963394Y-114487304D03*
X124224061Y-115651559D03*
D11*
X122453718Y-117872006D03*
D12*
X127422708Y-118928198D03*
D14*
X121020628Y-114970649D03*
X134193238Y-115173828D03*
%TD*%
D15*
%TO.C,H7*%
X357716650Y-100356149D03*
%TD*%
D10*
%TO.C,SW20*%
X142857771Y-119612286D03*
D11*
X151025408Y-123945116D03*
X141087428Y-121832733D03*
D12*
X146056418Y-122888925D03*
D10*
X149597104Y-118448031D03*
D14*
X139654338Y-118931376D03*
X152826948Y-119134555D03*
%TD*%
D12*
%TO.C,SW44*%
X265289544Y-136571056D03*
D10*
X266717847Y-131073971D03*
D11*
X270258534Y-135514865D03*
D10*
X261034706Y-134878705D03*
D11*
X260320554Y-137627247D03*
D16*
X257831272Y-135559615D03*
X269947691Y-130387446D03*
%TD*%
D10*
%TO.C,SW42*%
X244821242Y-96777038D03*
D12*
X243392939Y-102274123D03*
D10*
X239138101Y-100581772D03*
D11*
X238423949Y-103330314D03*
X248361929Y-101217932D03*
D16*
X235934667Y-101262682D03*
X248051086Y-96090513D03*
%TD*%
D10*
%TO.C,SW47*%
X257771812Y-96621054D03*
D11*
X257057660Y-99369596D03*
D10*
X263454953Y-92816320D03*
D12*
X262026650Y-98313405D03*
D11*
X266995640Y-97257214D03*
D16*
X254568378Y-97301964D03*
X266684797Y-92129795D03*
%TD*%
D15*
%TO.C,H4*%
X126496086Y-177483001D03*
%TD*%
D11*
%TO.C,SW58*%
X338491599Y-176556136D03*
D10*
X329601599Y-174016136D03*
D11*
X328331599Y-176556136D03*
D12*
X333411599Y-176556136D03*
D10*
X335951599Y-171476136D03*
D13*
X326326599Y-174016136D03*
X339253599Y-171476136D03*
%TD*%
D10*
%TO.C,SW1*%
X60066650Y-93053633D03*
D11*
X58796650Y-95593633D03*
D10*
X66416650Y-90513633D03*
D12*
X63876650Y-95593633D03*
D11*
X68956650Y-95593633D03*
D13*
X56791650Y-93053633D03*
X69718650Y-90513633D03*
%TD*%
D11*
%TO.C,SW3*%
X57712900Y-133693633D03*
D12*
X62792900Y-133693633D03*
D10*
X65332900Y-128613633D03*
X58982900Y-131153633D03*
D11*
X67872900Y-133693633D03*
D13*
X55707900Y-131153633D03*
X68634900Y-128613633D03*
%TD*%
D10*
%TO.C,SW10*%
X104516650Y-89013248D03*
D11*
X107056650Y-94093248D03*
D12*
X101976650Y-94093248D03*
D10*
X98166650Y-91553248D03*
D11*
X96896650Y-94093248D03*
D13*
X94891650Y-91553248D03*
X107818650Y-89013248D03*
%TD*%
D11*
%TO.C,SW31*%
X214357399Y-147397018D03*
D12*
X209388409Y-148453209D03*
D10*
X210816712Y-142956124D03*
X205133571Y-146760858D03*
D11*
X204419419Y-149509400D03*
D16*
X201930137Y-147441768D03*
X214046556Y-142269599D03*
%TD*%
D10*
%TO.C,SW27*%
X174284562Y-162646720D03*
X167545229Y-163810975D03*
D12*
X170743876Y-167087614D03*
D11*
X175712866Y-168143805D03*
X165774886Y-166031422D03*
D14*
X164341796Y-163130065D03*
X177514406Y-163333244D03*
%TD*%
D10*
%TO.C,SW38*%
X220504389Y-104542489D03*
D11*
X229728217Y-105178649D03*
X219790237Y-107291031D03*
D12*
X224759227Y-106234840D03*
D10*
X226187530Y-100737755D03*
D16*
X217300955Y-105223399D03*
X229417374Y-100051230D03*
%TD*%
D11*
%TO.C,SW40*%
X251624822Y-139475583D03*
X241686842Y-141587965D03*
D10*
X248084135Y-135034689D03*
X242400994Y-138839423D03*
D12*
X246655832Y-140531774D03*
D16*
X239197560Y-139520333D03*
X251313979Y-134348164D03*
%TD*%
D12*
%TO.C,SW39*%
X238036711Y-122888222D03*
D11*
X243005701Y-121832031D03*
D10*
X233781873Y-121195871D03*
D11*
X233067721Y-123944413D03*
D10*
X239465014Y-117391137D03*
D16*
X230578439Y-121876781D03*
X242694858Y-116704612D03*
%TD*%
D17*
%TO.C,SW57*%
X323854900Y-140678633D03*
D11*
X340872900Y-133693633D03*
D10*
X331982900Y-131153633D03*
X338332900Y-128613633D03*
D12*
X335792900Y-133693633D03*
X323854900Y-125438633D03*
D11*
X330712900Y-133693633D03*
D12*
X347730900Y-125438633D03*
D17*
X347730900Y-140678633D03*
D13*
X328707900Y-131153633D03*
X341634900Y-128613633D03*
%TD*%
D10*
%TO.C,SW62*%
X355001599Y-171476136D03*
D12*
X352461599Y-176556136D03*
D11*
X347381599Y-176556136D03*
X357541599Y-176556136D03*
D10*
X348651599Y-174016136D03*
D13*
X345376599Y-174016136D03*
X358303599Y-171476136D03*
%TD*%
D11*
%TO.C,SW30*%
X205738278Y-129753466D03*
X195800298Y-131865848D03*
D10*
X196514450Y-129117306D03*
X202197591Y-125312572D03*
D12*
X200769288Y-130809657D03*
D16*
X193311016Y-129798216D03*
X205427435Y-124626047D03*
%TD*%
D12*
%TO.C,SW23*%
X161542876Y-176168016D03*
D10*
X151690125Y-177319680D03*
D11*
X153118429Y-182816766D03*
D12*
X148149439Y-181760575D03*
D17*
X135020050Y-186110886D03*
D11*
X143180449Y-180704383D03*
D10*
X144950792Y-178483936D03*
D17*
X158374302Y-191074985D03*
D12*
X138188624Y-171203916D03*
D14*
X141747359Y-177803025D03*
X154919969Y-178006205D03*
%TD*%
D10*
%TO.C,SW9*%
X90526650Y-150203633D03*
D11*
X89256650Y-152743633D03*
D10*
X96876650Y-147663633D03*
D11*
X99416650Y-152743633D03*
D12*
X94336650Y-152743633D03*
D13*
X87251650Y-150203633D03*
X100178650Y-147663633D03*
%TD*%
D18*
%TO.C,J1*%
X156020000Y-87246000D03*
D19*
X156020000Y-84706000D03*
X153480000Y-87246000D03*
X153480000Y-84706000D03*
X150940000Y-87246000D03*
X150940000Y-84706000D03*
X148400000Y-87246000D03*
X148400000Y-84706000D03*
X145860000Y-87246000D03*
X145860000Y-84706000D03*
%TD*%
D12*
%TO.C,SW60*%
X338666650Y-114643633D03*
D10*
X334856650Y-112103633D03*
D11*
X333586650Y-114643633D03*
X343746650Y-114643633D03*
D10*
X341206650Y-109563633D03*
D13*
X331581650Y-112103633D03*
X344508650Y-109563633D03*
%TD*%
D11*
%TO.C,SW2*%
X69556650Y-114643633D03*
D12*
X64476650Y-114643633D03*
D11*
X59396650Y-114643633D03*
D10*
X60666650Y-112103633D03*
X67016650Y-109563633D03*
D13*
X57391650Y-112103633D03*
X70318650Y-109563633D03*
%TD*%
D15*
%TO.C,H3*%
X138363870Y-84806142D03*
%TD*%
D12*
%TO.C,SW43*%
X256670423Y-118927504D03*
D10*
X252415585Y-117235153D03*
D11*
X251701433Y-119983695D03*
X261639413Y-117871313D03*
D10*
X258098726Y-113430419D03*
D16*
X249212151Y-117916063D03*
X261328570Y-112743894D03*
%TD*%
D11*
%TO.C,SW34*%
X214434009Y-127905130D03*
X224371989Y-125792748D03*
D10*
X220831302Y-121351854D03*
X215148161Y-125156588D03*
D12*
X219402999Y-126848939D03*
D16*
X211944727Y-125837498D03*
X224061146Y-120665329D03*
%TD*%
D10*
%TO.C,SW67*%
X374051599Y-171476136D03*
D12*
X371511599Y-176556136D03*
D11*
X366431599Y-176556136D03*
X376591599Y-176556136D03*
D10*
X367701599Y-174016136D03*
D13*
X364426599Y-174016136D03*
X377353599Y-171476136D03*
%TD*%
D10*
%TO.C,SW22*%
X148911519Y-159850248D03*
D11*
X157079156Y-164183078D03*
D12*
X152110166Y-163126887D03*
D10*
X155650852Y-158685993D03*
D11*
X147141176Y-162070695D03*
D14*
X145708086Y-159169338D03*
X158880696Y-159372517D03*
%TD*%
D10*
%TO.C,SW18*%
X137017143Y-154725266D03*
D12*
X133476457Y-159166160D03*
D11*
X128507467Y-158109968D03*
X138445447Y-160222351D03*
D10*
X130277810Y-155889521D03*
D14*
X127074377Y-155208611D03*
X140246987Y-155411790D03*
%TD*%
D11*
%TO.C,SW25*%
X159721138Y-125793460D03*
D10*
X168230814Y-122408758D03*
D11*
X169659118Y-127905843D03*
D10*
X161491481Y-123573013D03*
D12*
X164690128Y-126849652D03*
D14*
X158288048Y-122892103D03*
X171460658Y-123095282D03*
%TD*%
D10*
%TO.C,SW7*%
X84476650Y-112103633D03*
D11*
X83206650Y-114643633D03*
D10*
X90826650Y-109563633D03*
D12*
X88286650Y-114643633D03*
D11*
X93366650Y-114643633D03*
D13*
X81201650Y-112103633D03*
X94128650Y-109563633D03*
%TD*%
D15*
%TO.C,H5*%
X245729435Y-84806142D03*
%TD*%
D11*
%TO.C,SW41*%
X260243943Y-157119135D03*
X250305963Y-159231517D03*
D10*
X251020115Y-156482975D03*
X256703256Y-152678241D03*
D12*
X255274953Y-158175326D03*
D16*
X247816681Y-157163885D03*
X259933100Y-151991716D03*
%TD*%
D20*
%TO.C,J3*%
X215919000Y-83566000D03*
X208769000Y-83566000D03*
%TD*%
D11*
%TO.C,SW14*%
X120509438Y-175885514D03*
D12*
X115540448Y-174829322D03*
D10*
X119081134Y-170388428D03*
D11*
X110571458Y-173773131D03*
D10*
X112341801Y-171552684D03*
D14*
X109138368Y-170871773D03*
X122310978Y-171074952D03*
%TD*%
D15*
%TO.C,H8*%
X361986599Y-167031136D03*
%TD*%
D12*
%TO.C,SW36*%
X236641242Y-162136043D03*
D11*
X231672252Y-163192234D03*
X241610232Y-161079852D03*
D10*
X238069545Y-156638958D03*
X232386404Y-160443692D03*
D16*
X229182970Y-161124602D03*
X241299389Y-155952433D03*
%TD*%
D18*
%TO.C,J2*%
X163271200Y-82956400D03*
D19*
X165811200Y-82956400D03*
X168351200Y-82956400D03*
X170891200Y-82956400D03*
%TD*%
D18*
%TO.C,J4*%
X379476000Y-141986000D03*
D19*
X379476000Y-144526000D03*
X379476000Y-147066000D03*
X379476000Y-149606000D03*
%TD*%
D10*
%TO.C,SW51*%
X284646650Y-89013248D03*
D11*
X277026650Y-94093248D03*
D10*
X278296650Y-91553248D03*
D12*
X282106650Y-94093248D03*
D11*
X287186650Y-94093248D03*
D13*
X275021650Y-91553248D03*
X287948650Y-89013248D03*
%TD*%
D10*
%TO.C,SW54*%
X324045419Y-147663631D03*
D12*
X321505419Y-152743631D03*
D11*
X326585419Y-152743631D03*
X316425419Y-152743631D03*
D10*
X317695419Y-150203631D03*
D13*
X314420419Y-150203631D03*
X327347419Y-147663631D03*
%TD*%
D11*
%TO.C,SW63*%
X344336650Y-95593633D03*
X334176650Y-95593633D03*
D10*
X341796650Y-90513633D03*
X335446650Y-93053633D03*
D12*
X339256650Y-95593633D03*
D13*
X332171650Y-93053633D03*
X345098650Y-90513633D03*
%TD*%
D11*
%TO.C,SW19*%
X135731377Y-101218655D03*
D12*
X140700367Y-102274847D03*
D11*
X145669357Y-103331038D03*
D10*
X144241053Y-97833953D03*
X137501720Y-98998208D03*
D14*
X134298287Y-98317298D03*
X147470897Y-98520477D03*
%TD*%
D10*
%TO.C,SW55*%
X303696650Y-90513633D03*
X297346650Y-93053633D03*
D12*
X301156650Y-95593633D03*
D11*
X306236650Y-95593633D03*
X296076650Y-95593633D03*
D13*
X294071650Y-93053633D03*
X306998650Y-90513633D03*
%TD*%
D12*
%TO.C,SW53*%
X304836650Y-133693633D03*
D11*
X299756650Y-133693633D03*
X309916650Y-133693633D03*
D10*
X301026650Y-131153633D03*
X307376650Y-128613633D03*
D13*
X297751650Y-131153633D03*
X310678650Y-128613633D03*
%TD*%
D10*
%TO.C,SW50*%
X291501669Y-150203631D03*
D11*
X300391669Y-152743631D03*
D12*
X295311669Y-152743631D03*
D10*
X297851669Y-147663631D03*
D11*
X290231669Y-152743631D03*
D13*
X288226669Y-150203631D03*
X301153669Y-147663631D03*
%TD*%
D10*
%TO.C,SW28*%
X179640699Y-183260749D03*
D11*
X171131023Y-186645451D03*
D10*
X172901366Y-184425004D03*
D11*
X181069003Y-188757834D03*
D12*
X176100013Y-187701643D03*
D14*
X169697933Y-183744094D03*
X182870543Y-183947273D03*
%TD*%
D15*
%TO.C,H1*%
X73401650Y-105118633D03*
%TD*%
D12*
%TO.C,SW45*%
X273908665Y-154214608D03*
D11*
X268939675Y-155270799D03*
D10*
X269653827Y-152522257D03*
X275336968Y-148717523D03*
D11*
X278877655Y-153158417D03*
D16*
X266450393Y-153203167D03*
X278566812Y-148030998D03*
%TD*%
D11*
%TO.C,SW49*%
X280706650Y-133693633D03*
D12*
X285786650Y-133693633D03*
D11*
X290866650Y-133693633D03*
D10*
X288326650Y-128613633D03*
X281976650Y-131153633D03*
D13*
X278701650Y-131153633D03*
X291628650Y-128613633D03*
%TD*%
D12*
%TO.C,SW5*%
X56246650Y-171793633D03*
D10*
X52436650Y-169253633D03*
X58786650Y-166713633D03*
D11*
X61326650Y-171793633D03*
X51166650Y-171793633D03*
D13*
X49161650Y-169253633D03*
X62088650Y-166713633D03*
%TD*%
D10*
%TO.C,SW61*%
X348651599Y-154966136D03*
D12*
X352461599Y-157506136D03*
D11*
X347381599Y-157506136D03*
X357541599Y-157506136D03*
D10*
X355001599Y-152426136D03*
D13*
X345376599Y-154966136D03*
X358303599Y-152426136D03*
%TD*%
D10*
%TO.C,SW8*%
X85176650Y-131153633D03*
D12*
X88986650Y-133693633D03*
D10*
X91526650Y-128613633D03*
D11*
X94066650Y-133693633D03*
X83906650Y-133693633D03*
D13*
X81901650Y-131153633D03*
X94828650Y-128613633D03*
%TD*%
D10*
%TO.C,SW26*%
X168928481Y-142032652D03*
D11*
X170356785Y-147529737D03*
X160418805Y-145417354D03*
D12*
X165387795Y-146473546D03*
D10*
X162189148Y-143196907D03*
D14*
X158985715Y-142515997D03*
X172158325Y-142719176D03*
%TD*%
D12*
%TO.C,SW37*%
X228955916Y-183245171D03*
D11*
X233924905Y-182188980D03*
D17*
X242085305Y-187595482D03*
X218731053Y-192559582D03*
D12*
X215562479Y-177652612D03*
D10*
X224701078Y-181552820D03*
X230384219Y-177748086D03*
D11*
X223986926Y-184301362D03*
D12*
X238916731Y-172688513D03*
D16*
X221497644Y-182233730D03*
X233614062Y-177061561D03*
%TD*%
D12*
%TO.C,SW13*%
X114842747Y-155205434D03*
D10*
X118383433Y-150764540D03*
D11*
X109873757Y-154149242D03*
X119811737Y-156261625D03*
D10*
X111644100Y-151928795D03*
D14*
X108440667Y-151247885D03*
X121613277Y-151451064D03*
%TD*%
D15*
%TO.C,H6*%
X257596916Y-177482353D03*
%TD*%
D11*
%TO.C,SW59*%
X315126650Y-95593633D03*
D10*
X322746650Y-90513633D03*
D12*
X320206650Y-95593633D03*
D11*
X325286650Y-95593633D03*
D10*
X316396650Y-93053633D03*
D13*
X313121650Y-93053633D03*
X326048650Y-90513633D03*
%TD*%
D12*
%TO.C,SW66*%
X371511599Y-128931152D03*
D11*
X376591599Y-128931152D03*
D10*
X367701599Y-126391152D03*
X374051599Y-123851152D03*
D11*
X366431599Y-128931152D03*
D13*
X364426599Y-126391152D03*
X377353599Y-123851152D03*
%TD*%
D12*
%TO.C,SW4*%
X51442400Y-160998633D03*
D11*
X68460400Y-152743633D03*
D12*
X63380400Y-152743633D03*
D17*
X75318400Y-145758633D03*
D12*
X75318400Y-160998633D03*
D10*
X59570400Y-150203633D03*
D11*
X58300400Y-152743633D03*
D17*
X51442400Y-145758633D03*
D10*
X65920400Y-147663633D03*
D13*
X56295400Y-150203633D03*
X69222400Y-147663633D03*
%TD*%
D10*
%TO.C,SW11*%
X105590351Y-111690833D03*
X112329684Y-110526578D03*
D11*
X113757988Y-116023663D03*
X103820008Y-113911280D03*
D12*
X108788998Y-114967472D03*
D14*
X102386918Y-111009923D03*
X115559528Y-111213102D03*
%TD*%
D10*
%TO.C,SW21*%
X150294771Y-138071925D03*
X143555438Y-139236180D03*
D11*
X151723075Y-143569010D03*
D12*
X146754085Y-142512819D03*
D11*
X141785095Y-141456627D03*
D14*
X140352005Y-138555270D03*
X153524615Y-138758449D03*
%TD*%
D10*
%TO.C,SW65*%
X363431650Y-107341149D03*
D12*
X367241650Y-109881149D03*
D10*
X369781650Y-104801149D03*
D11*
X362161650Y-109881149D03*
X372321650Y-109881149D03*
D13*
X360156650Y-107341149D03*
X373083650Y-104801149D03*
%TD*%
D10*
%TO.C,SW32*%
X219435833Y-160599676D03*
D11*
X213038540Y-167152952D03*
X222976520Y-165040570D03*
D12*
X218007530Y-166096761D03*
D10*
X213752692Y-164404410D03*
D16*
X210549258Y-165085320D03*
X222665677Y-159913151D03*
%TD*%
D11*
%TO.C,SW12*%
X114455655Y-135647556D03*
D10*
X106288018Y-131314726D03*
D12*
X109486665Y-134591365D03*
D10*
X113027351Y-130150471D03*
D11*
X104517675Y-133535173D03*
D14*
X103084585Y-130633816D03*
X116257195Y-130836995D03*
%TD*%
D11*
%TO.C,SW64*%
X357989192Y-90831142D03*
X368149192Y-90831142D03*
D10*
X365609192Y-85751142D03*
X359259192Y-88291142D03*
D12*
X363069192Y-90831142D03*
D13*
X355984192Y-88291142D03*
X368911192Y-85751142D03*
%TD*%
D11*
%TO.C,SW46*%
X273521542Y-173772467D03*
D10*
X269980855Y-169331573D03*
X264297714Y-173136307D03*
D11*
X263583562Y-175884850D03*
D12*
X268552552Y-174828659D03*
D16*
X261094280Y-173817218D03*
X273210699Y-168645049D03*
%TD*%
D11*
%TO.C,SW17*%
X133089365Y-139608283D03*
D12*
X128120375Y-138552092D03*
D10*
X124921728Y-135275453D03*
X131661061Y-134111198D03*
D11*
X123151385Y-137495900D03*
D14*
X121718295Y-134594543D03*
X134890905Y-134797722D03*
%TD*%
D11*
%TO.C,SW35*%
X223053130Y-145548682D03*
D12*
X228022120Y-144492491D03*
D10*
X229450423Y-138995406D03*
X223767282Y-142800140D03*
D11*
X232991110Y-143436300D03*
D16*
X220563848Y-143481050D03*
X232680267Y-138308881D03*
%TD*%
D10*
%TO.C,SW48*%
X276732438Y-109469701D03*
D11*
X270335145Y-116022977D03*
D10*
X271049297Y-113274435D03*
D12*
X275304135Y-114966786D03*
D11*
X280273125Y-113910595D03*
D16*
X267845863Y-113955345D03*
X279962282Y-108783176D03*
%TD*%
D12*
%TO.C,SW29*%
X177967791Y-110196282D03*
D10*
X174769144Y-106919643D03*
D11*
X182936781Y-111252473D03*
D10*
X181508477Y-105755388D03*
D11*
X172998801Y-109140090D03*
D14*
X171565711Y-106238733D03*
X184738321Y-106441912D03*
%TD*%
D12*
%TO.C,SW56*%
X314846650Y-114643633D03*
D10*
X311036650Y-112103633D03*
D11*
X309766650Y-114643633D03*
X319926650Y-114643633D03*
D10*
X317386650Y-109563633D03*
D13*
X307761650Y-112103633D03*
X320688650Y-109563633D03*
%TD*%
D12*
%TO.C,SW24*%
X159334079Y-106235565D03*
D10*
X162874765Y-101794671D03*
X156135432Y-102958926D03*
D11*
X164303069Y-107291756D03*
X154365089Y-105179373D03*
D14*
X152931999Y-102278016D03*
X166104609Y-102481195D03*
%TD*%
D12*
%TO.C,SW15*%
X122066656Y-98314129D03*
D11*
X127035646Y-99370320D03*
D10*
X125607342Y-93873235D03*
X118868009Y-95037490D03*
D11*
X117097666Y-97257937D03*
D14*
X115664576Y-94356580D03*
X128837186Y-94559759D03*
%TD*%
D10*
%TO.C,SW33*%
X207553818Y-104698473D03*
X201870677Y-108503207D03*
D12*
X206125515Y-110195558D03*
D11*
X201156525Y-111251749D03*
X211094505Y-109139367D03*
D16*
X198667243Y-109184117D03*
X210783662Y-104011948D03*
%TD*%
D15*
%TO.C,H2*%
X67734150Y-171793633D03*
%TD*%
D11*
%TO.C,SW6*%
X77846650Y-95593633D03*
D10*
X85466650Y-90513633D03*
D11*
X88006650Y-95593633D03*
D10*
X79116650Y-93053633D03*
D12*
X82926650Y-95593633D03*
D13*
X75841650Y-93053633D03*
X88768650Y-90513633D03*
%TD*%
D21*
%TO.C,R16*%
X80264000Y-85090000D03*
X77914000Y-85090000D03*
%TD*%
D22*
%TO.C,D25*%
X160400181Y-131535288D03*
X161107081Y-128209586D03*
%TD*%
D23*
%TO.C,D46*%
X266536802Y-180855010D03*
X265829902Y-177529308D03*
%TD*%
D24*
%TO.C,D59*%
X316981650Y-101068633D03*
X316981650Y-97668633D03*
%TD*%
D22*
%TO.C,D13*%
X110552800Y-159891070D03*
X111259700Y-156565368D03*
%TD*%
D24*
%TO.C,D7*%
X85061650Y-120118633D03*
X85061650Y-116718633D03*
%TD*%
D22*
%TO.C,D18*%
X129186510Y-163851796D03*
X129893410Y-160526094D03*
%TD*%
D21*
%TO.C,R11*%
X45720000Y-115221000D03*
X45720000Y-112871000D03*
%TD*%
D24*
%TO.C,D2*%
X61251650Y-120118633D03*
X61251650Y-116718633D03*
%TD*%
D22*
%TO.C,D26*%
X161097848Y-151159182D03*
X161804748Y-147833480D03*
%TD*%
D21*
%TO.C,R14*%
X75692000Y-182372000D03*
X75692000Y-180022000D03*
%TD*%
D24*
%TO.C,D67*%
X368286599Y-182031136D03*
X368286599Y-178631136D03*
%TD*%
D23*
%TO.C,D41*%
X253259188Y-164201680D03*
X252552288Y-160875978D03*
%TD*%
D21*
%TO.C,R23*%
X212757000Y-98298000D03*
X210407000Y-98298000D03*
%TD*%
D25*
%TO.C,C14*%
X185890000Y-86868000D03*
X187490000Y-86868000D03*
%TD*%
D24*
%TO.C,D57*%
X332567900Y-139168633D03*
X332567900Y-135768633D03*
%TD*%
D22*
%TO.C,D16*%
X123132761Y-123613834D03*
X123839661Y-120288132D03*
%TD*%
D21*
%TO.C,R13*%
X81788000Y-167132000D03*
X81788000Y-164782000D03*
%TD*%
D22*
%TO.C,D17*%
X123830428Y-143237728D03*
X124537328Y-139912026D03*
%TD*%
D24*
%TO.C,D8*%
X85761650Y-139168633D03*
X85761650Y-135768633D03*
%TD*%
D23*
%TO.C,D36*%
X234625477Y-168162397D03*
X233918577Y-164836695D03*
%TD*%
D24*
%TO.C,D64*%
X359844192Y-96306142D03*
X359844192Y-92906142D03*
%TD*%
D22*
%TO.C,D29*%
X173677844Y-114881918D03*
X174384744Y-111556216D03*
%TD*%
D24*
%TO.C,D62*%
X349236599Y-182031136D03*
X349236599Y-178631136D03*
%TD*%
D23*
%TO.C,D33*%
X204109750Y-116221912D03*
X203402850Y-112896210D03*
%TD*%
D22*
%TO.C,D12*%
X105196718Y-139277001D03*
X105903618Y-135951299D03*
%TD*%
D21*
%TO.C,R24*%
X222091000Y-95250000D03*
X224441000Y-95250000D03*
%TD*%
D23*
%TO.C,D45*%
X271892900Y-160240962D03*
X271186000Y-156915260D03*
%TD*%
D22*
%TO.C,D23*%
X143859493Y-186446233D03*
X144566393Y-183120531D03*
%TD*%
D26*
%TO.C,C1*%
X194170000Y-101866000D03*
X194170000Y-100246000D03*
%TD*%
D21*
%TO.C,R1*%
X190575000Y-86750000D03*
X192925000Y-86750000D03*
%TD*%
D22*
%TO.C,D15*%
X117776709Y-102999765D03*
X118483609Y-99674063D03*
%TD*%
D25*
%TO.C,C4*%
X202360000Y-87306000D03*
X203980000Y-87306000D03*
%TD*%
D24*
%TO.C,D51*%
X278881650Y-99568248D03*
X278881650Y-96168248D03*
%TD*%
D22*
%TO.C,D11*%
X104499051Y-119653108D03*
X105205951Y-116327406D03*
%TD*%
D23*
%TO.C,D42*%
X241377174Y-108300477D03*
X240670274Y-104974775D03*
%TD*%
D24*
%TO.C,D49*%
X282561650Y-139168633D03*
X282561650Y-135768633D03*
%TD*%
D23*
%TO.C,D40*%
X244640067Y-146558128D03*
X243933167Y-143232426D03*
%TD*%
D21*
%TO.C,R20*%
X155607000Y-95250000D03*
X153257000Y-95250000D03*
%TD*%
D23*
%TO.C,D34*%
X217387234Y-132875293D03*
X216680334Y-129549591D03*
%TD*%
%TO.C,D32*%
X215991765Y-172123115D03*
X215284865Y-168797413D03*
%TD*%
D24*
%TO.C,D65*%
X364016650Y-115356149D03*
X364016650Y-111956149D03*
%TD*%
D26*
%TO.C,C6*%
X186944000Y-92494000D03*
X186944000Y-90894000D03*
%TD*%
D22*
%TO.C,D19*%
X136410420Y-106960483D03*
X137117320Y-103634781D03*
%TD*%
D23*
%TO.C,D30*%
X198753523Y-136836011D03*
X198046623Y-133510309D03*
%TD*%
D24*
%TO.C,D56*%
X311621650Y-120118633D03*
X311621650Y-116718633D03*
%TD*%
%TO.C,D4*%
X60155400Y-158218633D03*
X60155400Y-154818633D03*
%TD*%
%TO.C,D55*%
X297931650Y-101068633D03*
X297931650Y-97668633D03*
%TD*%
D23*
%TO.C,D37*%
X226940166Y-189271522D03*
X226233266Y-185945820D03*
%TD*%
D22*
%TO.C,D28*%
X171810066Y-192387279D03*
X172516966Y-189061577D03*
%TD*%
D24*
%TO.C,D54*%
X318280419Y-158218631D03*
X318280419Y-154818631D03*
%TD*%
D21*
%TO.C,R17*%
X118269000Y-84836000D03*
X115919000Y-84836000D03*
%TD*%
D22*
%TO.C,D27*%
X166453929Y-171773250D03*
X167160829Y-168447548D03*
%TD*%
D24*
%TO.C,D5*%
X53021650Y-177268633D03*
X53021650Y-173868633D03*
%TD*%
D23*
%TO.C,D38*%
X222743462Y-112261194D03*
X222036562Y-108935492D03*
%TD*%
%TO.C,D31*%
X207372644Y-154479563D03*
X206665744Y-151153861D03*
%TD*%
D22*
%TO.C,D22*%
X147820219Y-167812523D03*
X148527119Y-164486821D03*
%TD*%
D23*
%TO.C,D43*%
X254654658Y-124953858D03*
X253947758Y-121628156D03*
%TD*%
D21*
%TO.C,R19*%
X140970000Y-90424000D03*
X138620000Y-90424000D03*
%TD*%
D23*
%TO.C,D48*%
X273288370Y-120993140D03*
X272581470Y-117667438D03*
%TD*%
D22*
%TO.C,D14*%
X111250501Y-179514958D03*
X111957401Y-176189256D03*
%TD*%
D21*
%TO.C,R15*%
X60611000Y-84074000D03*
X58261000Y-84074000D03*
%TD*%
%TO.C,R26*%
X268573000Y-85090000D03*
X270923000Y-85090000D03*
%TD*%
D24*
%TO.C,D52*%
X292571650Y-120118633D03*
X292571650Y-116718633D03*
%TD*%
D22*
%TO.C,D24*%
X155044132Y-110921201D03*
X155751032Y-107595499D03*
%TD*%
D24*
%TO.C,D6*%
X79701650Y-101068633D03*
X79701650Y-97668633D03*
%TD*%
D21*
%TO.C,R12*%
X45466000Y-135446000D03*
X45466000Y-133096000D03*
%TD*%
D24*
%TO.C,D9*%
X91111650Y-158218633D03*
X91111650Y-154818633D03*
%TD*%
D21*
%TO.C,R18*%
X130048000Y-86614000D03*
X127698000Y-86614000D03*
%TD*%
%TO.C,R10*%
X50800000Y-99378000D03*
X50800000Y-97028000D03*
%TD*%
D24*
%TO.C,D3*%
X59567900Y-139168633D03*
X59567900Y-135768633D03*
%TD*%
D23*
%TO.C,D39*%
X236020946Y-128914576D03*
X235314046Y-125588874D03*
%TD*%
D24*
%TO.C,D61*%
X349236599Y-162981136D03*
X349236599Y-159581136D03*
%TD*%
%TO.C,D66*%
X368286599Y-134406152D03*
X368286599Y-131006152D03*
%TD*%
%TO.C,D60*%
X335441650Y-120118633D03*
X335441650Y-116718633D03*
%TD*%
%TO.C,D58*%
X330186599Y-182031136D03*
X330186599Y-178631136D03*
%TD*%
%TO.C,D50*%
X292086669Y-158218631D03*
X292086669Y-154818631D03*
%TD*%
D27*
%TO.C,C2*%
X183388000Y-85736000D03*
X183388000Y-83936000D03*
%TD*%
D26*
%TO.C,C11*%
X196596000Y-98336000D03*
X196596000Y-96736000D03*
%TD*%
D24*
%TO.C,D63*%
X336031650Y-101068633D03*
X336031650Y-97668633D03*
%TD*%
%TO.C,D10*%
X98751650Y-99568248D03*
X98751650Y-96168248D03*
%TD*%
D23*
%TO.C,D47*%
X260010885Y-104339759D03*
X259303985Y-101014057D03*
%TD*%
%TO.C,D35*%
X226006355Y-150518845D03*
X225299455Y-147193143D03*
%TD*%
%TO.C,D44*%
X263273779Y-142597410D03*
X262566879Y-139271708D03*
%TD*%
D25*
%TO.C,C10*%
X187528000Y-97536000D03*
X185928000Y-97536000D03*
%TD*%
D22*
%TO.C,D20*%
X141766471Y-127574561D03*
X142473371Y-124248859D03*
%TD*%
D24*
%TO.C,D1*%
X60651650Y-101068633D03*
X60651650Y-97668633D03*
%TD*%
D22*
%TO.C,D21*%
X142464138Y-147198455D03*
X143171038Y-143872753D03*
%TD*%
D24*
%TO.C,D53*%
X301611650Y-139168633D03*
X301611650Y-135768633D03*
%TD*%
D25*
%TO.C,C5*%
X184366000Y-89154000D03*
X185966000Y-89154000D03*
%TD*%
D28*
X210058000Y-87122000D03*
X186182000Y-96012000D03*
X152146000Y-88900000D03*
X238506000Y-88646000D03*
X215910000Y-95536000D03*
X184912000Y-84344497D03*
X171704000Y-88392000D03*
X140250000Y-93250000D03*
X178000000Y-83311989D03*
X163068000Y-90424000D03*
X211140000Y-95506000D03*
X207010000Y-94488000D03*
X201422000Y-83566000D03*
X161036000Y-87376000D03*
X238700000Y-85926000D03*
X175260000Y-94996000D03*
X185494434Y-90794465D03*
X143250000Y-90000000D03*
X238680000Y-82276000D03*
X173482000Y-88138000D03*
X182095023Y-88154977D03*
X181356000Y-100584000D03*
X180250000Y-87500000D03*
X213570000Y-95526000D03*
X253790000Y-87766000D03*
X218290000Y-95516000D03*
X166624000Y-87884000D03*
X183127795Y-99775500D03*
X180594000Y-89916000D03*
X235712000Y-92964000D03*
X186123962Y-99045890D03*
X173736000Y-91948000D03*
X133858000Y-94488000D03*
X147828000Y-110490000D03*
X260858000Y-105410000D03*
X53848000Y-102108000D03*
X94000000Y-100000000D03*
X77000000Y-101000000D03*
X279654000Y-100838000D03*
X258000000Y-105500000D03*
X135047787Y-106500000D03*
X116500000Y-103000000D03*
X189636262Y-98805104D03*
X242062000Y-109474000D03*
X203000000Y-115500000D03*
X323500000Y-101000000D03*
X133000000Y-106500000D03*
X196850000Y-115824000D03*
X296926000Y-99822000D03*
X60706000Y-102616000D03*
X223774000Y-113538000D03*
X320960023Y-101039977D03*
X277000000Y-100500000D03*
X238500000Y-109500000D03*
X220000000Y-113500000D03*
X295000000Y-101000000D03*
X96500000Y-100000000D03*
X75000000Y-101000000D03*
X154000000Y-110500000D03*
X114500000Y-102500000D03*
X210500000Y-134500000D03*
X159037548Y-131500000D03*
X61214000Y-121666000D03*
X100500000Y-120000000D03*
X287528000Y-120396000D03*
X189484000Y-124206000D03*
X354417639Y-99314000D03*
X213500000Y-134000000D03*
X189529977Y-107529977D03*
X157000000Y-131000000D03*
X189325889Y-130095146D03*
X82500000Y-120000000D03*
X189500000Y-116000000D03*
X290322000Y-120396000D03*
X268224000Y-122174000D03*
X312674000Y-120650000D03*
X140500000Y-127000000D03*
X188636766Y-98808687D03*
X119500000Y-123000000D03*
X103136418Y-119500000D03*
X247396000Y-126492000D03*
X192500000Y-136500000D03*
X229000000Y-130500000D03*
X332740000Y-120142000D03*
X250698000Y-125730000D03*
X314706000Y-120142000D03*
X189500000Y-114000000D03*
X194500000Y-136500000D03*
X189470023Y-105470023D03*
X330454000Y-120142000D03*
X53594000Y-120904000D03*
X122000000Y-123500000D03*
X356362000Y-97282000D03*
X138500000Y-127000000D03*
X232000000Y-130000000D03*
X80000000Y-120000000D03*
X270510000Y-121666000D03*
X188500000Y-116000000D03*
X342000000Y-139000000D03*
X358000000Y-120500000D03*
X188000000Y-130000000D03*
X218500000Y-152000000D03*
X222500000Y-151500000D03*
X361500000Y-117500000D03*
X302500000Y-140500000D03*
X188500497Y-114000000D03*
X277000000Y-140000000D03*
X81000000Y-139000000D03*
X104140000Y-139000000D03*
X102000000Y-139000000D03*
X188000000Y-137500000D03*
X120500000Y-142500000D03*
X158000000Y-151000000D03*
X201000000Y-154000000D03*
X237500000Y-148000000D03*
X188529977Y-108529977D03*
X122500000Y-143000000D03*
X203000000Y-154000000D03*
X160000000Y-151000000D03*
X59690000Y-140970000D03*
X338500000Y-139500000D03*
X188468000Y-124206000D03*
X259500000Y-143500000D03*
X256500000Y-144000000D03*
X280000000Y-139500000D03*
X139500000Y-146500000D03*
X51308000Y-138176000D03*
X305000000Y-139000000D03*
X240500000Y-147500000D03*
X141500000Y-147000000D03*
X330500000Y-139000000D03*
X188000000Y-135750500D03*
X83000000Y-139000000D03*
X327000000Y-139500000D03*
X109500000Y-159500000D03*
X187452000Y-123698000D03*
X165500000Y-171500000D03*
X107500000Y-159500000D03*
X187000000Y-155000000D03*
X187500000Y-116000000D03*
X187000000Y-153000000D03*
X187500000Y-107000000D03*
X143000000Y-166500000D03*
X140500000Y-166500000D03*
X259000000Y-163000000D03*
X344000000Y-162500000D03*
X163000000Y-171500000D03*
X223000000Y-171000000D03*
X187000000Y-135750500D03*
X332000000Y-160500000D03*
X187000000Y-129500000D03*
X363500000Y-146000000D03*
X262500000Y-162500000D03*
X346500000Y-162500000D03*
X328000000Y-160000000D03*
X187500000Y-114000000D03*
X219500000Y-171500000D03*
X187529977Y-109529977D03*
X366000000Y-144500000D03*
X187000000Y-137500000D03*
X187452977Y-104393023D03*
X186000000Y-135750500D03*
X186000000Y-137500000D03*
X181000000Y-114000000D03*
X181000000Y-116000000D03*
X186690000Y-102362000D03*
X186000000Y-129000000D03*
X186000000Y-155000000D03*
X186000000Y-171373615D03*
X186436000Y-122936000D03*
X186000000Y-153000000D03*
X186000000Y-173000000D03*
X182523949Y-93876602D03*
X137414000Y-92964000D03*
X133096000Y-92964000D03*
X192532000Y-93726000D03*
X191516000Y-94996000D03*
X181064470Y-83425152D03*
X180066070Y-84051789D03*
X179750000Y-85000000D03*
X156972000Y-97536000D03*
X193294000Y-95758000D03*
X191250000Y-107000000D03*
X192024000Y-104902000D03*
X192278000Y-96774000D03*
X196010000Y-101876000D03*
X199389996Y-106437657D03*
X204724000Y-98525500D03*
X215000000Y-98525500D03*
X203708000Y-99025500D03*
X199390359Y-105438155D03*
X222919842Y-97419842D03*
X202692000Y-99575980D03*
X199377631Y-104438733D03*
X199644000Y-103475377D03*
X271250000Y-89000000D03*
X200828842Y-101260842D03*
X219202000Y-101600000D03*
X217932000Y-98298000D03*
X194989227Y-98621727D03*
X200152000Y-100076000D03*
X219456000Y-97536000D03*
X201168000Y-97282000D03*
X223266000Y-102616000D03*
X196088000Y-94488000D03*
X210666685Y-89273585D03*
X209142685Y-95403315D03*
X209957315Y-88564215D03*
X208433315Y-96112685D03*
X159069977Y-84516023D03*
X197612000Y-88138000D03*
X201168000Y-87630000D03*
X186915704Y-83340297D03*
X171500000Y-87000000D03*
X197358000Y-83566000D03*
X191516000Y-82550000D03*
X196088000Y-90436500D03*
X218186000Y-112268000D03*
X197358000Y-91186000D03*
X238760000Y-150622000D03*
X193281500Y-91886520D03*
X338582000Y-133858000D03*
X340106000Y-131064000D03*
X321056000Y-98806000D03*
X319786000Y-100076000D03*
X239776000Y-91186000D03*
X244090000Y-89226000D03*
X182845648Y-89210729D03*
X184912000Y-85344000D03*
X207772000Y-87630000D03*
X187307344Y-98985500D03*
X201676000Y-90424000D03*
X188214000Y-93472000D03*
X214122000Y-89408000D03*
X191008000Y-98552000D03*
X205232000Y-89154000D03*
X198045500Y-98215631D03*
X193548000Y-88138000D03*
X185470730Y-91957513D03*
X233426000Y-87884000D03*
X233172000Y-90932000D03*
X196642424Y-93656364D03*
X195763783Y-93179925D03*
X94996000Y-82550000D03*
X94996000Y-88392000D03*
X116586000Y-92189500D03*
X117750000Y-88250000D03*
X136398000Y-90932000D03*
X134298287Y-96201713D03*
X177800000Y-117094000D03*
X170000000Y-113289203D03*
X175006000Y-114300000D03*
X196850000Y-107188000D03*
X252750000Y-91275500D03*
X293500000Y-86000000D03*
X310250000Y-90000000D03*
X330000000Y-91000000D03*
M02*
