%TF.GenerationSoftware,KiCad,Pcbnew,6.0.2+dfsg-1*%
%TF.CreationDate,2022-10-18T16:07:57-04:00*%
%TF.ProjectId,main-keyboard-pcb,6d61696e-2d6b-4657-9962-6f6172642d70,1.0*%
%TF.SameCoordinates,Original*%
%TF.FileFunction,Legend,Bot*%
%TF.FilePolarity,Positive*%
%FSLAX46Y46*%
G04 Gerber Fmt 4.6, Leading zero omitted, Abs format (unit mm)*
G04 Created by KiCad (PCBNEW 6.0.2+dfsg-1) date 2022-10-18 16:07:57*
%MOMM*%
%LPD*%
G01*
G04 APERTURE LIST*
%ADD10C,0.075000*%
%ADD11C,0.200000*%
G04 APERTURE END LIST*
D10*
X310816571Y-89275428D02*
X310845142Y-89289714D01*
X310902285Y-89289714D01*
X310930857Y-89275428D01*
X310945142Y-89261142D01*
X310959428Y-89232571D01*
X310959428Y-89146857D01*
X310945142Y-89118285D01*
X310930857Y-89104000D01*
X310902285Y-89089714D01*
X310845142Y-89089714D01*
X310816571Y-89104000D01*
X310645142Y-89289714D02*
X310673714Y-89275428D01*
X310688000Y-89261142D01*
X310702285Y-89232571D01*
X310702285Y-89146857D01*
X310688000Y-89118285D01*
X310673714Y-89104000D01*
X310645142Y-89089714D01*
X310602285Y-89089714D01*
X310573714Y-89104000D01*
X310559428Y-89118285D01*
X310545142Y-89146857D01*
X310545142Y-89232571D01*
X310559428Y-89261142D01*
X310573714Y-89275428D01*
X310602285Y-89289714D01*
X310645142Y-89289714D01*
X310373714Y-89289714D02*
X310402285Y-89275428D01*
X310416571Y-89246857D01*
X310416571Y-88989714D01*
X310102285Y-89289714D02*
X310273714Y-89289714D01*
X310188000Y-89289714D02*
X310188000Y-88989714D01*
X310216571Y-89032571D01*
X310245142Y-89061142D01*
X310273714Y-89075428D01*
X310002285Y-88989714D02*
X309816571Y-88989714D01*
X309916571Y-89104000D01*
X309873714Y-89104000D01*
X309845142Y-89118285D01*
X309830857Y-89132571D01*
X309816571Y-89161142D01*
X309816571Y-89232571D01*
X309830857Y-89261142D01*
X309845142Y-89275428D01*
X309873714Y-89289714D01*
X309959428Y-89289714D01*
X309988000Y-89275428D01*
X310002285Y-89261142D01*
X190449142Y-99703714D02*
X190449142Y-99503714D01*
X190449142Y-99560857D02*
X190434857Y-99532285D01*
X190420571Y-99518000D01*
X190392000Y-99503714D01*
X190363428Y-99503714D01*
X190220571Y-99703714D02*
X190249142Y-99689428D01*
X190263428Y-99675142D01*
X190277714Y-99646571D01*
X190277714Y-99560857D01*
X190263428Y-99532285D01*
X190249142Y-99518000D01*
X190220571Y-99503714D01*
X190177714Y-99503714D01*
X190149142Y-99518000D01*
X190134857Y-99532285D01*
X190120571Y-99560857D01*
X190120571Y-99646571D01*
X190134857Y-99675142D01*
X190149142Y-99689428D01*
X190177714Y-99703714D01*
X190220571Y-99703714D01*
X190020571Y-99503714D02*
X189963428Y-99703714D01*
X189906285Y-99560857D01*
X189849142Y-99703714D01*
X189792000Y-99503714D01*
X189620571Y-99403714D02*
X189592000Y-99403714D01*
X189563428Y-99418000D01*
X189549142Y-99432285D01*
X189534857Y-99460857D01*
X189520571Y-99518000D01*
X189520571Y-99589428D01*
X189534857Y-99646571D01*
X189549142Y-99675142D01*
X189563428Y-99689428D01*
X189592000Y-99703714D01*
X189620571Y-99703714D01*
X189649142Y-99689428D01*
X189663428Y-99675142D01*
X189677714Y-99646571D01*
X189692000Y-99589428D01*
X189692000Y-99518000D01*
X189677714Y-99460857D01*
X189663428Y-99432285D01*
X189649142Y-99418000D01*
X189620571Y-99403714D01*
X183062857Y-94695714D02*
X183062857Y-94395714D01*
X182891428Y-94695714D01*
X182891428Y-94395714D01*
X182577142Y-94695714D02*
X182677142Y-94552857D01*
X182748571Y-94695714D02*
X182748571Y-94395714D01*
X182634285Y-94395714D01*
X182605714Y-94410000D01*
X182591428Y-94424285D01*
X182577142Y-94452857D01*
X182577142Y-94495714D01*
X182591428Y-94524285D01*
X182605714Y-94538571D01*
X182634285Y-94552857D01*
X182748571Y-94552857D01*
X182462857Y-94681428D02*
X182420000Y-94695714D01*
X182348571Y-94695714D01*
X182320000Y-94681428D01*
X182305714Y-94667142D01*
X182291428Y-94638571D01*
X182291428Y-94610000D01*
X182305714Y-94581428D01*
X182320000Y-94567142D01*
X182348571Y-94552857D01*
X182405714Y-94538571D01*
X182434285Y-94524285D01*
X182448571Y-94510000D01*
X182462857Y-94481428D01*
X182462857Y-94452857D01*
X182448571Y-94424285D01*
X182434285Y-94410000D01*
X182405714Y-94395714D01*
X182334285Y-94395714D01*
X182291428Y-94410000D01*
X182205714Y-94395714D02*
X182034285Y-94395714D01*
X182120000Y-94695714D02*
X182120000Y-94395714D01*
X194595714Y-95879428D02*
X194624285Y-95893714D01*
X194681428Y-95893714D01*
X194710000Y-95879428D01*
X194724285Y-95865142D01*
X194738571Y-95836571D01*
X194738571Y-95750857D01*
X194724285Y-95722285D01*
X194710000Y-95708000D01*
X194681428Y-95693714D01*
X194624285Y-95693714D01*
X194595714Y-95708000D01*
X194424285Y-95893714D02*
X194452857Y-95879428D01*
X194467142Y-95865142D01*
X194481428Y-95836571D01*
X194481428Y-95750857D01*
X194467142Y-95722285D01*
X194452857Y-95708000D01*
X194424285Y-95693714D01*
X194381428Y-95693714D01*
X194352857Y-95708000D01*
X194338571Y-95722285D01*
X194324285Y-95750857D01*
X194324285Y-95836571D01*
X194338571Y-95865142D01*
X194352857Y-95879428D01*
X194381428Y-95893714D01*
X194424285Y-95893714D01*
X194152857Y-95893714D02*
X194181428Y-95879428D01*
X194195714Y-95850857D01*
X194195714Y-95593714D01*
X193895714Y-95593714D02*
X194038571Y-95593714D01*
X194052857Y-95736571D01*
X194038571Y-95722285D01*
X194010000Y-95708000D01*
X193938571Y-95708000D01*
X193910000Y-95722285D01*
X193895714Y-95736571D01*
X193881428Y-95765142D01*
X193881428Y-95836571D01*
X193895714Y-95865142D01*
X193910000Y-95879428D01*
X193938571Y-95893714D01*
X194010000Y-95893714D01*
X194038571Y-95879428D01*
X194052857Y-95865142D01*
X198151714Y-107309428D02*
X198180285Y-107323714D01*
X198237428Y-107323714D01*
X198266000Y-107309428D01*
X198280285Y-107295142D01*
X198294571Y-107266571D01*
X198294571Y-107180857D01*
X198280285Y-107152285D01*
X198266000Y-107138000D01*
X198237428Y-107123714D01*
X198180285Y-107123714D01*
X198151714Y-107138000D01*
X197980285Y-107323714D02*
X198008857Y-107309428D01*
X198023142Y-107295142D01*
X198037428Y-107266571D01*
X198037428Y-107180857D01*
X198023142Y-107152285D01*
X198008857Y-107138000D01*
X197980285Y-107123714D01*
X197937428Y-107123714D01*
X197908857Y-107138000D01*
X197894571Y-107152285D01*
X197880285Y-107180857D01*
X197880285Y-107266571D01*
X197894571Y-107295142D01*
X197908857Y-107309428D01*
X197937428Y-107323714D01*
X197980285Y-107323714D01*
X197708857Y-107323714D02*
X197737428Y-107309428D01*
X197751714Y-107280857D01*
X197751714Y-107023714D01*
X197623142Y-107023714D02*
X197423142Y-107023714D01*
X197551714Y-107323714D01*
X187401142Y-103259714D02*
X187401142Y-103059714D01*
X187401142Y-103116857D02*
X187386857Y-103088285D01*
X187372571Y-103074000D01*
X187344000Y-103059714D01*
X187315428Y-103059714D01*
X187172571Y-103259714D02*
X187201142Y-103245428D01*
X187215428Y-103231142D01*
X187229714Y-103202571D01*
X187229714Y-103116857D01*
X187215428Y-103088285D01*
X187201142Y-103074000D01*
X187172571Y-103059714D01*
X187129714Y-103059714D01*
X187101142Y-103074000D01*
X187086857Y-103088285D01*
X187072571Y-103116857D01*
X187072571Y-103202571D01*
X187086857Y-103231142D01*
X187101142Y-103245428D01*
X187129714Y-103259714D01*
X187172571Y-103259714D01*
X186972571Y-103059714D02*
X186915428Y-103259714D01*
X186858285Y-103116857D01*
X186801142Y-103259714D01*
X186744000Y-103059714D01*
X186501142Y-103059714D02*
X186501142Y-103259714D01*
X186572571Y-102945428D02*
X186644000Y-103159714D01*
X186458285Y-103159714D01*
X174600285Y-94831714D02*
X174543142Y-94831714D01*
X174514571Y-94846000D01*
X174486000Y-94874571D01*
X174471714Y-94931714D01*
X174471714Y-95031714D01*
X174486000Y-95088857D01*
X174514571Y-95117428D01*
X174543142Y-95131714D01*
X174600285Y-95131714D01*
X174628857Y-95117428D01*
X174657428Y-95088857D01*
X174671714Y-95031714D01*
X174671714Y-94931714D01*
X174657428Y-94874571D01*
X174628857Y-94846000D01*
X174600285Y-94831714D01*
X174357428Y-95117428D02*
X174314571Y-95131714D01*
X174243142Y-95131714D01*
X174214571Y-95117428D01*
X174200285Y-95103142D01*
X174186000Y-95074571D01*
X174186000Y-95046000D01*
X174200285Y-95017428D01*
X174214571Y-95003142D01*
X174243142Y-94988857D01*
X174300285Y-94974571D01*
X174328857Y-94960285D01*
X174343142Y-94946000D01*
X174357428Y-94917428D01*
X174357428Y-94888857D01*
X174343142Y-94860285D01*
X174328857Y-94846000D01*
X174300285Y-94831714D01*
X174228857Y-94831714D01*
X174186000Y-94846000D01*
X173886000Y-95103142D02*
X173900285Y-95117428D01*
X173943142Y-95131714D01*
X173971714Y-95131714D01*
X174014571Y-95117428D01*
X174043142Y-95088857D01*
X174057428Y-95060285D01*
X174071714Y-95003142D01*
X174071714Y-94960285D01*
X174057428Y-94903142D01*
X174043142Y-94874571D01*
X174014571Y-94846000D01*
X173971714Y-94831714D01*
X173943142Y-94831714D01*
X173900285Y-94846000D01*
X173886000Y-94860285D01*
X173828857Y-95160285D02*
X173600285Y-95160285D01*
X173471714Y-94831714D02*
X173414571Y-94831714D01*
X173386000Y-94846000D01*
X173357428Y-94874571D01*
X173343142Y-94931714D01*
X173343142Y-95031714D01*
X173357428Y-95088857D01*
X173386000Y-95117428D01*
X173414571Y-95131714D01*
X173471714Y-95131714D01*
X173500285Y-95117428D01*
X173528857Y-95088857D01*
X173543142Y-95031714D01*
X173543142Y-94931714D01*
X173528857Y-94874571D01*
X173500285Y-94846000D01*
X173471714Y-94831714D01*
X173214571Y-94831714D02*
X173214571Y-95074571D01*
X173200285Y-95103142D01*
X173186000Y-95117428D01*
X173157428Y-95131714D01*
X173100285Y-95131714D01*
X173071714Y-95117428D01*
X173057428Y-95103142D01*
X173043142Y-95074571D01*
X173043142Y-94831714D01*
X172943142Y-94831714D02*
X172771714Y-94831714D01*
X172857428Y-95131714D02*
X172857428Y-94831714D01*
X189179142Y-99703714D02*
X189179142Y-99503714D01*
X189179142Y-99560857D02*
X189164857Y-99532285D01*
X189150571Y-99518000D01*
X189122000Y-99503714D01*
X189093428Y-99503714D01*
X188950571Y-99703714D02*
X188979142Y-99689428D01*
X188993428Y-99675142D01*
X189007714Y-99646571D01*
X189007714Y-99560857D01*
X188993428Y-99532285D01*
X188979142Y-99518000D01*
X188950571Y-99503714D01*
X188907714Y-99503714D01*
X188879142Y-99518000D01*
X188864857Y-99532285D01*
X188850571Y-99560857D01*
X188850571Y-99646571D01*
X188864857Y-99675142D01*
X188879142Y-99689428D01*
X188907714Y-99703714D01*
X188950571Y-99703714D01*
X188750571Y-99503714D02*
X188693428Y-99703714D01*
X188636285Y-99560857D01*
X188579142Y-99703714D01*
X188522000Y-99503714D01*
X188250571Y-99703714D02*
X188422000Y-99703714D01*
X188336285Y-99703714D02*
X188336285Y-99403714D01*
X188364857Y-99446571D01*
X188393428Y-99475142D01*
X188422000Y-99489428D01*
X271700571Y-88259428D02*
X271729142Y-88273714D01*
X271786285Y-88273714D01*
X271814857Y-88259428D01*
X271829142Y-88245142D01*
X271843428Y-88216571D01*
X271843428Y-88130857D01*
X271829142Y-88102285D01*
X271814857Y-88088000D01*
X271786285Y-88073714D01*
X271729142Y-88073714D01*
X271700571Y-88088000D01*
X271529142Y-88273714D02*
X271557714Y-88259428D01*
X271572000Y-88245142D01*
X271586285Y-88216571D01*
X271586285Y-88130857D01*
X271572000Y-88102285D01*
X271557714Y-88088000D01*
X271529142Y-88073714D01*
X271486285Y-88073714D01*
X271457714Y-88088000D01*
X271443428Y-88102285D01*
X271429142Y-88130857D01*
X271429142Y-88216571D01*
X271443428Y-88245142D01*
X271457714Y-88259428D01*
X271486285Y-88273714D01*
X271529142Y-88273714D01*
X271257714Y-88273714D02*
X271286285Y-88259428D01*
X271300571Y-88230857D01*
X271300571Y-87973714D01*
X270986285Y-88273714D02*
X271157714Y-88273714D01*
X271072000Y-88273714D02*
X271072000Y-87973714D01*
X271100571Y-88016571D01*
X271129142Y-88045142D01*
X271157714Y-88059428D01*
X270700571Y-88273714D02*
X270872000Y-88273714D01*
X270786285Y-88273714D02*
X270786285Y-87973714D01*
X270814857Y-88016571D01*
X270843428Y-88045142D01*
X270872000Y-88059428D01*
X188163142Y-110371714D02*
X188163142Y-110171714D01*
X188163142Y-110228857D02*
X188148857Y-110200285D01*
X188134571Y-110186000D01*
X188106000Y-110171714D01*
X188077428Y-110171714D01*
X187934571Y-110371714D02*
X187963142Y-110357428D01*
X187977428Y-110343142D01*
X187991714Y-110314571D01*
X187991714Y-110228857D01*
X187977428Y-110200285D01*
X187963142Y-110186000D01*
X187934571Y-110171714D01*
X187891714Y-110171714D01*
X187863142Y-110186000D01*
X187848857Y-110200285D01*
X187834571Y-110228857D01*
X187834571Y-110314571D01*
X187848857Y-110343142D01*
X187863142Y-110357428D01*
X187891714Y-110371714D01*
X187934571Y-110371714D01*
X187734571Y-110171714D02*
X187677428Y-110371714D01*
X187620285Y-110228857D01*
X187563142Y-110371714D01*
X187506000Y-110171714D01*
X187420285Y-110071714D02*
X187234571Y-110071714D01*
X187334571Y-110186000D01*
X187291714Y-110186000D01*
X187263142Y-110200285D01*
X187248857Y-110214571D01*
X187234571Y-110243142D01*
X187234571Y-110314571D01*
X187248857Y-110343142D01*
X187263142Y-110357428D01*
X187291714Y-110371714D01*
X187377428Y-110371714D01*
X187406000Y-110357428D01*
X187420285Y-110343142D01*
X192817714Y-95117428D02*
X192846285Y-95131714D01*
X192903428Y-95131714D01*
X192932000Y-95117428D01*
X192946285Y-95103142D01*
X192960571Y-95074571D01*
X192960571Y-94988857D01*
X192946285Y-94960285D01*
X192932000Y-94946000D01*
X192903428Y-94931714D01*
X192846285Y-94931714D01*
X192817714Y-94946000D01*
X192646285Y-95131714D02*
X192674857Y-95117428D01*
X192689142Y-95103142D01*
X192703428Y-95074571D01*
X192703428Y-94988857D01*
X192689142Y-94960285D01*
X192674857Y-94946000D01*
X192646285Y-94931714D01*
X192603428Y-94931714D01*
X192574857Y-94946000D01*
X192560571Y-94960285D01*
X192546285Y-94988857D01*
X192546285Y-95074571D01*
X192560571Y-95103142D01*
X192574857Y-95117428D01*
X192603428Y-95131714D01*
X192646285Y-95131714D01*
X192374857Y-95131714D02*
X192403428Y-95117428D01*
X192417714Y-95088857D01*
X192417714Y-94831714D01*
X192103428Y-95131714D02*
X192274857Y-95131714D01*
X192189142Y-95131714D02*
X192189142Y-94831714D01*
X192217714Y-94874571D01*
X192246285Y-94903142D01*
X192274857Y-94917428D01*
X293798571Y-85211428D02*
X293827142Y-85225714D01*
X293884285Y-85225714D01*
X293912857Y-85211428D01*
X293927142Y-85197142D01*
X293941428Y-85168571D01*
X293941428Y-85082857D01*
X293927142Y-85054285D01*
X293912857Y-85040000D01*
X293884285Y-85025714D01*
X293827142Y-85025714D01*
X293798571Y-85040000D01*
X293627142Y-85225714D02*
X293655714Y-85211428D01*
X293670000Y-85197142D01*
X293684285Y-85168571D01*
X293684285Y-85082857D01*
X293670000Y-85054285D01*
X293655714Y-85040000D01*
X293627142Y-85025714D01*
X293584285Y-85025714D01*
X293555714Y-85040000D01*
X293541428Y-85054285D01*
X293527142Y-85082857D01*
X293527142Y-85168571D01*
X293541428Y-85197142D01*
X293555714Y-85211428D01*
X293584285Y-85225714D01*
X293627142Y-85225714D01*
X293355714Y-85225714D02*
X293384285Y-85211428D01*
X293398571Y-85182857D01*
X293398571Y-84925714D01*
X293084285Y-85225714D02*
X293255714Y-85225714D01*
X293170000Y-85225714D02*
X293170000Y-84925714D01*
X293198571Y-84968571D01*
X293227142Y-84997142D01*
X293255714Y-85011428D01*
X292970000Y-84954285D02*
X292955714Y-84940000D01*
X292927142Y-84925714D01*
X292855714Y-84925714D01*
X292827142Y-84940000D01*
X292812857Y-84954285D01*
X292798571Y-84982857D01*
X292798571Y-85011428D01*
X292812857Y-85054285D01*
X292984285Y-85225714D01*
X292798571Y-85225714D01*
X209362571Y-88481714D02*
X209362571Y-88724571D01*
X209348285Y-88753142D01*
X209334000Y-88767428D01*
X209305428Y-88781714D01*
X209248285Y-88781714D01*
X209219714Y-88767428D01*
X209205428Y-88753142D01*
X209191142Y-88724571D01*
X209191142Y-88481714D01*
X209062571Y-88767428D02*
X209019714Y-88781714D01*
X208948285Y-88781714D01*
X208919714Y-88767428D01*
X208905428Y-88753142D01*
X208891142Y-88724571D01*
X208891142Y-88696000D01*
X208905428Y-88667428D01*
X208919714Y-88653142D01*
X208948285Y-88638857D01*
X209005428Y-88624571D01*
X209034000Y-88610285D01*
X209048285Y-88596000D01*
X209062571Y-88567428D01*
X209062571Y-88538857D01*
X209048285Y-88510285D01*
X209034000Y-88496000D01*
X209005428Y-88481714D01*
X208934000Y-88481714D01*
X208891142Y-88496000D01*
X208662571Y-88624571D02*
X208619714Y-88638857D01*
X208605428Y-88653142D01*
X208591142Y-88681714D01*
X208591142Y-88724571D01*
X208605428Y-88753142D01*
X208619714Y-88767428D01*
X208648285Y-88781714D01*
X208762571Y-88781714D01*
X208762571Y-88481714D01*
X208662571Y-88481714D01*
X208634000Y-88496000D01*
X208619714Y-88510285D01*
X208605428Y-88538857D01*
X208605428Y-88567428D01*
X208619714Y-88596000D01*
X208634000Y-88610285D01*
X208662571Y-88624571D01*
X208762571Y-88624571D01*
X208534000Y-88810285D02*
X208305428Y-88810285D01*
X208234000Y-88781714D02*
X208234000Y-88481714D01*
X208162571Y-88481714D01*
X208119714Y-88496000D01*
X208091142Y-88524571D01*
X208076857Y-88553142D01*
X208062571Y-88610285D01*
X208062571Y-88653142D01*
X208076857Y-88710285D01*
X208091142Y-88738857D01*
X208119714Y-88767428D01*
X208162571Y-88781714D01*
X208234000Y-88781714D01*
X207934000Y-88667428D02*
X207705428Y-88667428D01*
X207819714Y-88781714D02*
X207819714Y-88553142D01*
X253158571Y-90545428D02*
X253187142Y-90559714D01*
X253244285Y-90559714D01*
X253272857Y-90545428D01*
X253287142Y-90531142D01*
X253301428Y-90502571D01*
X253301428Y-90416857D01*
X253287142Y-90388285D01*
X253272857Y-90374000D01*
X253244285Y-90359714D01*
X253187142Y-90359714D01*
X253158571Y-90374000D01*
X252987142Y-90559714D02*
X253015714Y-90545428D01*
X253030000Y-90531142D01*
X253044285Y-90502571D01*
X253044285Y-90416857D01*
X253030000Y-90388285D01*
X253015714Y-90374000D01*
X252987142Y-90359714D01*
X252944285Y-90359714D01*
X252915714Y-90374000D01*
X252901428Y-90388285D01*
X252887142Y-90416857D01*
X252887142Y-90502571D01*
X252901428Y-90531142D01*
X252915714Y-90545428D01*
X252944285Y-90559714D01*
X252987142Y-90559714D01*
X252715714Y-90559714D02*
X252744285Y-90545428D01*
X252758571Y-90516857D01*
X252758571Y-90259714D01*
X252444285Y-90559714D02*
X252615714Y-90559714D01*
X252530000Y-90559714D02*
X252530000Y-90259714D01*
X252558571Y-90302571D01*
X252587142Y-90331142D01*
X252615714Y-90345428D01*
X252258571Y-90259714D02*
X252230000Y-90259714D01*
X252201428Y-90274000D01*
X252187142Y-90288285D01*
X252172857Y-90316857D01*
X252158571Y-90374000D01*
X252158571Y-90445428D01*
X252172857Y-90502571D01*
X252187142Y-90531142D01*
X252201428Y-90545428D01*
X252230000Y-90559714D01*
X252258571Y-90559714D01*
X252287142Y-90545428D01*
X252301428Y-90531142D01*
X252315714Y-90502571D01*
X252330000Y-90445428D01*
X252330000Y-90374000D01*
X252315714Y-90316857D01*
X252301428Y-90288285D01*
X252287142Y-90274000D01*
X252258571Y-90259714D01*
X210124571Y-89497714D02*
X210124571Y-89740571D01*
X210110285Y-89769142D01*
X210096000Y-89783428D01*
X210067428Y-89797714D01*
X210010285Y-89797714D01*
X209981714Y-89783428D01*
X209967428Y-89769142D01*
X209953142Y-89740571D01*
X209953142Y-89497714D01*
X209824571Y-89783428D02*
X209781714Y-89797714D01*
X209710285Y-89797714D01*
X209681714Y-89783428D01*
X209667428Y-89769142D01*
X209653142Y-89740571D01*
X209653142Y-89712000D01*
X209667428Y-89683428D01*
X209681714Y-89669142D01*
X209710285Y-89654857D01*
X209767428Y-89640571D01*
X209796000Y-89626285D01*
X209810285Y-89612000D01*
X209824571Y-89583428D01*
X209824571Y-89554857D01*
X209810285Y-89526285D01*
X209796000Y-89512000D01*
X209767428Y-89497714D01*
X209696000Y-89497714D01*
X209653142Y-89512000D01*
X209424571Y-89640571D02*
X209381714Y-89654857D01*
X209367428Y-89669142D01*
X209353142Y-89697714D01*
X209353142Y-89740571D01*
X209367428Y-89769142D01*
X209381714Y-89783428D01*
X209410285Y-89797714D01*
X209524571Y-89797714D01*
X209524571Y-89497714D01*
X209424571Y-89497714D01*
X209396000Y-89512000D01*
X209381714Y-89526285D01*
X209367428Y-89554857D01*
X209367428Y-89583428D01*
X209381714Y-89612000D01*
X209396000Y-89626285D01*
X209424571Y-89640571D01*
X209524571Y-89640571D01*
X209296000Y-89826285D02*
X209067428Y-89826285D01*
X208996000Y-89797714D02*
X208996000Y-89497714D01*
X208924571Y-89497714D01*
X208881714Y-89512000D01*
X208853142Y-89540571D01*
X208838857Y-89569142D01*
X208824571Y-89626285D01*
X208824571Y-89669142D01*
X208838857Y-89726285D01*
X208853142Y-89754857D01*
X208881714Y-89783428D01*
X208924571Y-89797714D01*
X208996000Y-89797714D01*
X208696000Y-89683428D02*
X208467428Y-89683428D01*
X223297714Y-96641428D02*
X223326285Y-96655714D01*
X223383428Y-96655714D01*
X223412000Y-96641428D01*
X223426285Y-96627142D01*
X223440571Y-96598571D01*
X223440571Y-96512857D01*
X223426285Y-96484285D01*
X223412000Y-96470000D01*
X223383428Y-96455714D01*
X223326285Y-96455714D01*
X223297714Y-96470000D01*
X223126285Y-96655714D02*
X223154857Y-96641428D01*
X223169142Y-96627142D01*
X223183428Y-96598571D01*
X223183428Y-96512857D01*
X223169142Y-96484285D01*
X223154857Y-96470000D01*
X223126285Y-96455714D01*
X223083428Y-96455714D01*
X223054857Y-96470000D01*
X223040571Y-96484285D01*
X223026285Y-96512857D01*
X223026285Y-96598571D01*
X223040571Y-96627142D01*
X223054857Y-96641428D01*
X223083428Y-96655714D01*
X223126285Y-96655714D01*
X222854857Y-96655714D02*
X222883428Y-96641428D01*
X222897714Y-96612857D01*
X222897714Y-96355714D01*
X222726285Y-96655714D02*
X222669142Y-96655714D01*
X222640571Y-96641428D01*
X222626285Y-96627142D01*
X222597714Y-96584285D01*
X222583428Y-96527142D01*
X222583428Y-96412857D01*
X222597714Y-96384285D01*
X222612000Y-96370000D01*
X222640571Y-96355714D01*
X222697714Y-96355714D01*
X222726285Y-96370000D01*
X222740571Y-96384285D01*
X222754857Y-96412857D01*
X222754857Y-96484285D01*
X222740571Y-96512857D01*
X222726285Y-96527142D01*
X222697714Y-96541428D01*
X222640571Y-96541428D01*
X222612000Y-96527142D01*
X222597714Y-96512857D01*
X222583428Y-96484285D01*
X330374571Y-90291428D02*
X330403142Y-90305714D01*
X330460285Y-90305714D01*
X330488857Y-90291428D01*
X330503142Y-90277142D01*
X330517428Y-90248571D01*
X330517428Y-90162857D01*
X330503142Y-90134285D01*
X330488857Y-90120000D01*
X330460285Y-90105714D01*
X330403142Y-90105714D01*
X330374571Y-90120000D01*
X330203142Y-90305714D02*
X330231714Y-90291428D01*
X330246000Y-90277142D01*
X330260285Y-90248571D01*
X330260285Y-90162857D01*
X330246000Y-90134285D01*
X330231714Y-90120000D01*
X330203142Y-90105714D01*
X330160285Y-90105714D01*
X330131714Y-90120000D01*
X330117428Y-90134285D01*
X330103142Y-90162857D01*
X330103142Y-90248571D01*
X330117428Y-90277142D01*
X330131714Y-90291428D01*
X330160285Y-90305714D01*
X330203142Y-90305714D01*
X329931714Y-90305714D02*
X329960285Y-90291428D01*
X329974571Y-90262857D01*
X329974571Y-90005714D01*
X329660285Y-90305714D02*
X329831714Y-90305714D01*
X329746000Y-90305714D02*
X329746000Y-90005714D01*
X329774571Y-90048571D01*
X329803142Y-90077142D01*
X329831714Y-90091428D01*
X329403142Y-90105714D02*
X329403142Y-90305714D01*
X329474571Y-89991428D02*
X329546000Y-90205714D01*
X329360285Y-90205714D01*
X198322285Y-93099714D02*
X198322285Y-92799714D01*
X198193714Y-92828285D02*
X198179428Y-92814000D01*
X198150857Y-92799714D01*
X198079428Y-92799714D01*
X198050857Y-92814000D01*
X198036571Y-92828285D01*
X198022285Y-92856857D01*
X198022285Y-92885428D01*
X198036571Y-92928285D01*
X198208000Y-93099714D01*
X198022285Y-93099714D01*
X197722285Y-93071142D02*
X197736571Y-93085428D01*
X197779428Y-93099714D01*
X197808000Y-93099714D01*
X197850857Y-93085428D01*
X197879428Y-93056857D01*
X197893714Y-93028285D01*
X197908000Y-92971142D01*
X197908000Y-92928285D01*
X197893714Y-92871142D01*
X197879428Y-92842571D01*
X197850857Y-92814000D01*
X197808000Y-92799714D01*
X197779428Y-92799714D01*
X197736571Y-92814000D01*
X197722285Y-92828285D01*
X197608000Y-92828285D02*
X197593714Y-92814000D01*
X197565142Y-92799714D01*
X197493714Y-92799714D01*
X197465142Y-92814000D01*
X197450857Y-92828285D01*
X197436571Y-92856857D01*
X197436571Y-92885428D01*
X197450857Y-92928285D01*
X197622285Y-93099714D01*
X197436571Y-93099714D01*
X197379428Y-93128285D02*
X197150857Y-93128285D01*
X197093714Y-93085428D02*
X197050857Y-93099714D01*
X196979428Y-93099714D01*
X196950857Y-93085428D01*
X196936571Y-93071142D01*
X196922285Y-93042571D01*
X196922285Y-93014000D01*
X196936571Y-92985428D01*
X196950857Y-92971142D01*
X196979428Y-92956857D01*
X197036571Y-92942571D01*
X197065142Y-92928285D01*
X197079428Y-92914000D01*
X197093714Y-92885428D01*
X197093714Y-92856857D01*
X197079428Y-92828285D01*
X197065142Y-92814000D01*
X197036571Y-92799714D01*
X196965142Y-92799714D01*
X196922285Y-92814000D01*
X196622285Y-93071142D02*
X196636571Y-93085428D01*
X196679428Y-93099714D01*
X196708000Y-93099714D01*
X196750857Y-93085428D01*
X196779428Y-93056857D01*
X196793714Y-93028285D01*
X196808000Y-92971142D01*
X196808000Y-92928285D01*
X196793714Y-92871142D01*
X196779428Y-92842571D01*
X196750857Y-92814000D01*
X196708000Y-92799714D01*
X196679428Y-92799714D01*
X196636571Y-92814000D01*
X196622285Y-92828285D01*
X196350857Y-93099714D02*
X196493714Y-93099714D01*
X196493714Y-92799714D01*
X193579714Y-96895428D02*
X193608285Y-96909714D01*
X193665428Y-96909714D01*
X193694000Y-96895428D01*
X193708285Y-96881142D01*
X193722571Y-96852571D01*
X193722571Y-96766857D01*
X193708285Y-96738285D01*
X193694000Y-96724000D01*
X193665428Y-96709714D01*
X193608285Y-96709714D01*
X193579714Y-96724000D01*
X193408285Y-96909714D02*
X193436857Y-96895428D01*
X193451142Y-96881142D01*
X193465428Y-96852571D01*
X193465428Y-96766857D01*
X193451142Y-96738285D01*
X193436857Y-96724000D01*
X193408285Y-96709714D01*
X193365428Y-96709714D01*
X193336857Y-96724000D01*
X193322571Y-96738285D01*
X193308285Y-96766857D01*
X193308285Y-96852571D01*
X193322571Y-96881142D01*
X193336857Y-96895428D01*
X193365428Y-96909714D01*
X193408285Y-96909714D01*
X193136857Y-96909714D02*
X193165428Y-96895428D01*
X193179714Y-96866857D01*
X193179714Y-96609714D01*
X192894000Y-96609714D02*
X192951142Y-96609714D01*
X192979714Y-96624000D01*
X192994000Y-96638285D01*
X193022571Y-96681142D01*
X193036857Y-96738285D01*
X193036857Y-96852571D01*
X193022571Y-96881142D01*
X193008285Y-96895428D01*
X192979714Y-96909714D01*
X192922571Y-96909714D01*
X192894000Y-96895428D01*
X192879714Y-96881142D01*
X192865428Y-96852571D01*
X192865428Y-96781142D01*
X192879714Y-96752571D01*
X192894000Y-96738285D01*
X192922571Y-96724000D01*
X192979714Y-96724000D01*
X193008285Y-96738285D01*
X193022571Y-96752571D01*
X193036857Y-96781142D01*
X189179142Y-109355714D02*
X189179142Y-109155714D01*
X189179142Y-109212857D02*
X189164857Y-109184285D01*
X189150571Y-109170000D01*
X189122000Y-109155714D01*
X189093428Y-109155714D01*
X188950571Y-109355714D02*
X188979142Y-109341428D01*
X188993428Y-109327142D01*
X189007714Y-109298571D01*
X189007714Y-109212857D01*
X188993428Y-109184285D01*
X188979142Y-109170000D01*
X188950571Y-109155714D01*
X188907714Y-109155714D01*
X188879142Y-109170000D01*
X188864857Y-109184285D01*
X188850571Y-109212857D01*
X188850571Y-109298571D01*
X188864857Y-109327142D01*
X188879142Y-109341428D01*
X188907714Y-109355714D01*
X188950571Y-109355714D01*
X188750571Y-109155714D02*
X188693428Y-109355714D01*
X188636285Y-109212857D01*
X188579142Y-109355714D01*
X188522000Y-109155714D01*
X188422000Y-109084285D02*
X188407714Y-109070000D01*
X188379142Y-109055714D01*
X188307714Y-109055714D01*
X188279142Y-109070000D01*
X188264857Y-109084285D01*
X188250571Y-109112857D01*
X188250571Y-109141428D01*
X188264857Y-109184285D01*
X188436285Y-109355714D01*
X188250571Y-109355714D01*
X193833714Y-93847428D02*
X193862285Y-93861714D01*
X193919428Y-93861714D01*
X193948000Y-93847428D01*
X193962285Y-93833142D01*
X193976571Y-93804571D01*
X193976571Y-93718857D01*
X193962285Y-93690285D01*
X193948000Y-93676000D01*
X193919428Y-93661714D01*
X193862285Y-93661714D01*
X193833714Y-93676000D01*
X193662285Y-93861714D02*
X193690857Y-93847428D01*
X193705142Y-93833142D01*
X193719428Y-93804571D01*
X193719428Y-93718857D01*
X193705142Y-93690285D01*
X193690857Y-93676000D01*
X193662285Y-93661714D01*
X193619428Y-93661714D01*
X193590857Y-93676000D01*
X193576571Y-93690285D01*
X193562285Y-93718857D01*
X193562285Y-93804571D01*
X193576571Y-93833142D01*
X193590857Y-93847428D01*
X193619428Y-93861714D01*
X193662285Y-93861714D01*
X193390857Y-93861714D02*
X193419428Y-93847428D01*
X193433714Y-93818857D01*
X193433714Y-93561714D01*
X193219428Y-93561714D02*
X193190857Y-93561714D01*
X193162285Y-93576000D01*
X193148000Y-93590285D01*
X193133714Y-93618857D01*
X193119428Y-93676000D01*
X193119428Y-93747428D01*
X193133714Y-93804571D01*
X193148000Y-93833142D01*
X193162285Y-93847428D01*
X193190857Y-93861714D01*
X193219428Y-93861714D01*
X193248000Y-93847428D01*
X193262285Y-93833142D01*
X193276571Y-93804571D01*
X193290857Y-93747428D01*
X193290857Y-93676000D01*
X193276571Y-93618857D01*
X193262285Y-93590285D01*
X193248000Y-93576000D01*
X193219428Y-93561714D01*
X215423714Y-97911428D02*
X215452285Y-97925714D01*
X215509428Y-97925714D01*
X215538000Y-97911428D01*
X215552285Y-97897142D01*
X215566571Y-97868571D01*
X215566571Y-97782857D01*
X215552285Y-97754285D01*
X215538000Y-97740000D01*
X215509428Y-97725714D01*
X215452285Y-97725714D01*
X215423714Y-97740000D01*
X215252285Y-97925714D02*
X215280857Y-97911428D01*
X215295142Y-97897142D01*
X215309428Y-97868571D01*
X215309428Y-97782857D01*
X215295142Y-97754285D01*
X215280857Y-97740000D01*
X215252285Y-97725714D01*
X215209428Y-97725714D01*
X215180857Y-97740000D01*
X215166571Y-97754285D01*
X215152285Y-97782857D01*
X215152285Y-97868571D01*
X215166571Y-97897142D01*
X215180857Y-97911428D01*
X215209428Y-97925714D01*
X215252285Y-97925714D01*
X214980857Y-97925714D02*
X215009428Y-97911428D01*
X215023714Y-97882857D01*
X215023714Y-97625714D01*
X214823714Y-97754285D02*
X214852285Y-97740000D01*
X214866571Y-97725714D01*
X214880857Y-97697142D01*
X214880857Y-97682857D01*
X214866571Y-97654285D01*
X214852285Y-97640000D01*
X214823714Y-97625714D01*
X214766571Y-97625714D01*
X214738000Y-97640000D01*
X214723714Y-97654285D01*
X214709428Y-97682857D01*
X214709428Y-97697142D01*
X214723714Y-97725714D01*
X214738000Y-97740000D01*
X214766571Y-97754285D01*
X214823714Y-97754285D01*
X214852285Y-97768571D01*
X214866571Y-97782857D01*
X214880857Y-97811428D01*
X214880857Y-97868571D01*
X214866571Y-97897142D01*
X214852285Y-97911428D01*
X214823714Y-97925714D01*
X214766571Y-97925714D01*
X214738000Y-97911428D01*
X214723714Y-97897142D01*
X214709428Y-97868571D01*
X214709428Y-97811428D01*
X214723714Y-97782857D01*
X214738000Y-97768571D01*
X214766571Y-97754285D01*
X197313428Y-92591714D02*
X197313428Y-92291714D01*
X197184857Y-92320285D02*
X197170571Y-92306000D01*
X197142000Y-92291714D01*
X197070571Y-92291714D01*
X197042000Y-92306000D01*
X197027714Y-92320285D01*
X197013428Y-92348857D01*
X197013428Y-92377428D01*
X197027714Y-92420285D01*
X197199142Y-92591714D01*
X197013428Y-92591714D01*
X196713428Y-92563142D02*
X196727714Y-92577428D01*
X196770571Y-92591714D01*
X196799142Y-92591714D01*
X196842000Y-92577428D01*
X196870571Y-92548857D01*
X196884857Y-92520285D01*
X196899142Y-92463142D01*
X196899142Y-92420285D01*
X196884857Y-92363142D01*
X196870571Y-92334571D01*
X196842000Y-92306000D01*
X196799142Y-92291714D01*
X196770571Y-92291714D01*
X196727714Y-92306000D01*
X196713428Y-92320285D01*
X196599142Y-92320285D02*
X196584857Y-92306000D01*
X196556285Y-92291714D01*
X196484857Y-92291714D01*
X196456285Y-92306000D01*
X196442000Y-92320285D01*
X196427714Y-92348857D01*
X196427714Y-92377428D01*
X196442000Y-92420285D01*
X196613428Y-92591714D01*
X196427714Y-92591714D01*
X196370571Y-92620285D02*
X196142000Y-92620285D01*
X196084857Y-92577428D02*
X196042000Y-92591714D01*
X195970571Y-92591714D01*
X195942000Y-92577428D01*
X195927714Y-92563142D01*
X195913428Y-92534571D01*
X195913428Y-92506000D01*
X195927714Y-92477428D01*
X195942000Y-92463142D01*
X195970571Y-92448857D01*
X196027714Y-92434571D01*
X196056285Y-92420285D01*
X196070571Y-92406000D01*
X196084857Y-92377428D01*
X196084857Y-92348857D01*
X196070571Y-92320285D01*
X196056285Y-92306000D01*
X196027714Y-92291714D01*
X195956285Y-92291714D01*
X195913428Y-92306000D01*
X195784857Y-92591714D02*
X195784857Y-92291714D01*
X195713428Y-92291714D01*
X195670571Y-92306000D01*
X195642000Y-92334571D01*
X195627714Y-92363142D01*
X195613428Y-92420285D01*
X195613428Y-92463142D01*
X195627714Y-92520285D01*
X195642000Y-92548857D01*
X195670571Y-92577428D01*
X195713428Y-92591714D01*
X195784857Y-92591714D01*
X195499142Y-92506000D02*
X195356285Y-92506000D01*
X195527714Y-92591714D02*
X195427714Y-92291714D01*
X195327714Y-92591714D01*
D11*
%TO.C,R16*%
X81414000Y-85090000D02*
G75*
G03*
X81414000Y-85090000I-50000J0D01*
G01*
%TO.C,D25*%
X161033499Y-132283308D02*
X161792376Y-128713069D01*
X159714886Y-131031805D02*
X160276247Y-128390806D01*
%TO.C,D46*%
X265705968Y-180673790D02*
X265144607Y-178032791D01*
X267419613Y-181280767D02*
X266660736Y-177710528D01*
%TO.C,D59*%
X317756650Y-101668633D02*
X317756650Y-98018633D01*
X316206650Y-100718633D02*
X316206650Y-98018633D01*
%TO.C,D13*%
X109867505Y-159387587D02*
X110428866Y-156746588D01*
X111186118Y-160639090D02*
X111944995Y-157068851D01*
%TO.C,D7*%
X84286650Y-119768633D02*
X84286650Y-117068633D01*
X85836650Y-120718633D02*
X85836650Y-117068633D01*
%TO.C,D18*%
X129819828Y-164599816D02*
X130578705Y-161029577D01*
X128501215Y-163348313D02*
X129062576Y-160707314D01*
%TO.C,R11*%
X45770000Y-116321000D02*
G75*
G03*
X45770000Y-116321000I-50000J0D01*
G01*
%TO.C,D2*%
X60476650Y-119768633D02*
X60476650Y-117068633D01*
X62026650Y-120718633D02*
X62026650Y-117068633D01*
%TO.C,D26*%
X160412553Y-150655699D02*
X160973914Y-148014700D01*
X161731166Y-151907202D02*
X162490043Y-148336963D01*
%TO.C,R14*%
X75742000Y-183472000D02*
G75*
G03*
X75742000Y-183472000I-50000J0D01*
G01*
%TO.C,D67*%
X369061599Y-182631136D02*
X369061599Y-178981136D01*
X367511599Y-181681136D02*
X367511599Y-178981136D01*
%TO.C,D41*%
X252428354Y-164020460D02*
X251866993Y-161379461D01*
X254141999Y-164627437D02*
X253383122Y-161057198D01*
%TO.C,R23*%
X213907000Y-98298000D02*
G75*
G03*
X213907000Y-98298000I-50000J0D01*
G01*
%TO.C,D57*%
X331792900Y-138818633D02*
X331792900Y-136118633D01*
X333342900Y-139768633D02*
X333342900Y-136118633D01*
%TO.C,D16*%
X123766079Y-124361854D02*
X124524956Y-120791615D01*
X122447466Y-123110351D02*
X123008827Y-120469352D01*
%TO.C,R13*%
X81838000Y-168232000D02*
G75*
G03*
X81838000Y-168232000I-50000J0D01*
G01*
%TO.C,D17*%
X124463746Y-143985748D02*
X125222623Y-140415509D01*
X123145133Y-142734245D02*
X123706494Y-140093246D01*
%TO.C,D8*%
X84986650Y-138818633D02*
X84986650Y-136118633D01*
X86536650Y-139768633D02*
X86536650Y-136118633D01*
%TO.C,D36*%
X235508288Y-168588154D02*
X234749411Y-165017915D01*
X233794643Y-167981177D02*
X233233282Y-165340178D01*
%TO.C,D64*%
X359069192Y-95956142D02*
X359069192Y-93256142D01*
X360619192Y-96906142D02*
X360619192Y-93256142D01*
%TO.C,D29*%
X174311162Y-115629938D02*
X175070039Y-112059699D01*
X172992549Y-114378435D02*
X173553910Y-111737436D01*
%TO.C,D62*%
X350011599Y-182631136D02*
X350011599Y-178981136D01*
X348461599Y-181681136D02*
X348461599Y-178981136D01*
%TO.C,D33*%
X204992561Y-116647669D02*
X204233684Y-113077430D01*
X203278916Y-116040692D02*
X202717555Y-113399693D01*
%TO.C,D12*%
X104511423Y-138773518D02*
X105072784Y-136132519D01*
X105830036Y-140025021D02*
X106588913Y-136454782D01*
%TO.C,R24*%
X221041000Y-95250000D02*
G75*
G03*
X221041000Y-95250000I-50000J0D01*
G01*
%TO.C,D45*%
X272775711Y-160666719D02*
X272016834Y-157096480D01*
X271062066Y-160059742D02*
X270500705Y-157418743D01*
%TO.C,D23*%
X144492811Y-187194253D02*
X145251688Y-183624014D01*
X143174198Y-185942750D02*
X143735559Y-183301751D01*
%TO.C,R1*%
X189525000Y-86750000D02*
G75*
G03*
X189525000Y-86750000I-50000J0D01*
G01*
%TO.C,D15*%
X117091414Y-102496282D02*
X117652775Y-99855283D01*
X118410027Y-103747785D02*
X119168904Y-100177546D01*
%TO.C,D51*%
X278106650Y-99218248D02*
X278106650Y-96518248D01*
X279656650Y-100168248D02*
X279656650Y-96518248D01*
%TO.C,D11*%
X103813756Y-119149625D02*
X104375117Y-116508626D01*
X105132369Y-120401128D02*
X105891246Y-116830889D01*
%TO.C,D42*%
X242259985Y-108726234D02*
X241501108Y-105155995D01*
X240546340Y-108119257D02*
X239984979Y-105478258D01*
%TO.C,D49*%
X281786650Y-138818633D02*
X281786650Y-136118633D01*
X283336650Y-139768633D02*
X283336650Y-136118633D01*
%TO.C,D40*%
X243809233Y-146376908D02*
X243247872Y-143735909D01*
X245522878Y-146983885D02*
X244764001Y-143413646D01*
%TO.C,R20*%
X156757000Y-95250000D02*
G75*
G03*
X156757000Y-95250000I-50000J0D01*
G01*
%TO.C,D34*%
X216556400Y-132694073D02*
X215995039Y-130053074D01*
X218270045Y-133301050D02*
X217511168Y-129730811D01*
%TO.C,D32*%
X215160931Y-171941895D02*
X214599570Y-169300896D01*
X216874576Y-172548872D02*
X216115699Y-168978633D01*
%TO.C,D65*%
X364791650Y-115956149D02*
X364791650Y-112306149D01*
X363241650Y-115006149D02*
X363241650Y-112306149D01*
%TO.C,D19*%
X137043738Y-107708503D02*
X137802615Y-104138264D01*
X135725125Y-106457000D02*
X136286486Y-103816001D01*
%TO.C,D30*%
X199636334Y-137261768D02*
X198877457Y-133691529D01*
X197922689Y-136654791D02*
X197361328Y-134013792D01*
%TO.C,D56*%
X312396650Y-120718633D02*
X312396650Y-117068633D01*
X310846650Y-119768633D02*
X310846650Y-117068633D01*
%TO.C,D4*%
X60930400Y-158818633D02*
X60930400Y-155168633D01*
X59380400Y-157868633D02*
X59380400Y-155168633D01*
%TO.C,D55*%
X298706650Y-101668633D02*
X298706650Y-98018633D01*
X297156650Y-100718633D02*
X297156650Y-98018633D01*
%TO.C,D37*%
X227822977Y-189697279D02*
X227064100Y-186127040D01*
X226109332Y-189090302D02*
X225547971Y-186449303D01*
%TO.C,D28*%
X171124771Y-191883796D02*
X171686132Y-189242797D01*
X172443384Y-193135299D02*
X173202261Y-189565060D01*
%TO.C,D54*%
X319055419Y-158818631D02*
X319055419Y-155168631D01*
X317505419Y-157868631D02*
X317505419Y-155168631D01*
%TO.C,R17*%
X119419000Y-84836000D02*
G75*
G03*
X119419000Y-84836000I-50000J0D01*
G01*
%TO.C,D27*%
X165768634Y-171269767D02*
X166329995Y-168628768D01*
X167087247Y-172521270D02*
X167846124Y-168951031D01*
%TO.C,D5*%
X53796650Y-177868633D02*
X53796650Y-174218633D01*
X52246650Y-176918633D02*
X52246650Y-174218633D01*
%TO.C,D38*%
X221912628Y-112079974D02*
X221351267Y-109438975D01*
X223626273Y-112686951D02*
X222867396Y-109116712D01*
%TO.C,D31*%
X208255455Y-154905320D02*
X207496578Y-151335081D01*
X206541810Y-154298343D02*
X205980449Y-151657344D01*
%TO.C,D22*%
X148453537Y-168560543D02*
X149212414Y-164990304D01*
X147134924Y-167309040D02*
X147696285Y-164668041D01*
%TO.C,D43*%
X253823824Y-124772638D02*
X253262463Y-122131639D01*
X255537469Y-125379615D02*
X254778592Y-121809376D01*
%TO.C,R19*%
X142120000Y-90424000D02*
G75*
G03*
X142120000Y-90424000I-50000J0D01*
G01*
%TO.C,D48*%
X272457536Y-120811920D02*
X271896175Y-118170921D01*
X274171181Y-121418897D02*
X273412304Y-117848658D01*
%TO.C,D14*%
X111883819Y-180262978D02*
X112642696Y-176692739D01*
X110565206Y-179011475D02*
X111126567Y-176370476D01*
%TO.C,R15*%
X61761000Y-84074000D02*
G75*
G03*
X61761000Y-84074000I-50000J0D01*
G01*
%TO.C,R26*%
X267523000Y-85090000D02*
G75*
G03*
X267523000Y-85090000I-50000J0D01*
G01*
%TO.C,D52*%
X291796650Y-119768633D02*
X291796650Y-117068633D01*
X293346650Y-120718633D02*
X293346650Y-117068633D01*
%TO.C,D24*%
X155677450Y-111669221D02*
X156436327Y-108098982D01*
X154358837Y-110417718D02*
X154920198Y-107776719D01*
%TO.C,D6*%
X80476650Y-101668633D02*
X80476650Y-98018633D01*
X78926650Y-100718633D02*
X78926650Y-98018633D01*
%TO.C,R12*%
X45516000Y-136546000D02*
G75*
G03*
X45516000Y-136546000I-50000J0D01*
G01*
%TO.C,D9*%
X90336650Y-157868633D02*
X90336650Y-155168633D01*
X91886650Y-158818633D02*
X91886650Y-155168633D01*
%TO.C,R18*%
X131198000Y-86614000D02*
G75*
G03*
X131198000Y-86614000I-50000J0D01*
G01*
%TO.C,R10*%
X50850000Y-100478000D02*
G75*
G03*
X50850000Y-100478000I-50000J0D01*
G01*
%TO.C,D3*%
X60342900Y-139768633D02*
X60342900Y-136118633D01*
X58792900Y-138818633D02*
X58792900Y-136118633D01*
%TO.C,D39*%
X236903757Y-129340333D02*
X236144880Y-125770094D01*
X235190112Y-128733356D02*
X234628751Y-126092357D01*
%TO.C,D61*%
X348461599Y-162631136D02*
X348461599Y-159931136D01*
X350011599Y-163581136D02*
X350011599Y-159931136D01*
%TO.C,D66*%
X367511599Y-134056152D02*
X367511599Y-131356152D01*
X369061599Y-135006152D02*
X369061599Y-131356152D01*
%TO.C,D60*%
X334666650Y-119768633D02*
X334666650Y-117068633D01*
X336216650Y-120718633D02*
X336216650Y-117068633D01*
%TO.C,D58*%
X330961599Y-182631136D02*
X330961599Y-178981136D01*
X329411599Y-181681136D02*
X329411599Y-178981136D01*
%TO.C,D50*%
X292861669Y-158818631D02*
X292861669Y-155168631D01*
X291311669Y-157868631D02*
X291311669Y-155168631D01*
%TO.C,C2*%
X183438000Y-86586000D02*
G75*
G03*
X183438000Y-86586000I-50000J0D01*
G01*
%TO.C,D63*%
X335256650Y-100718633D02*
X335256650Y-98018633D01*
X336806650Y-101668633D02*
X336806650Y-98018633D01*
%TO.C,D10*%
X97976650Y-99218248D02*
X97976650Y-96518248D01*
X99526650Y-100168248D02*
X99526650Y-96518248D01*
%TO.C,G\u002A\u002A\u002A*%
G36*
X76273849Y-173495096D02*
G01*
X76367719Y-173534208D01*
X76404785Y-173598239D01*
X76404684Y-173609138D01*
X76395115Y-173648148D01*
X76354419Y-173647257D01*
X76260771Y-173607935D01*
X76245362Y-173600577D01*
X76171646Y-173549023D01*
X76159070Y-173506924D01*
X76213689Y-173489507D01*
X76273849Y-173495096D01*
G37*
G36*
X78815491Y-175900213D02*
G01*
X78803160Y-175909575D01*
X78716394Y-175938753D01*
X78596526Y-175950755D01*
X78581973Y-175951056D01*
X78449636Y-175964510D01*
X78275749Y-175993900D01*
X78093948Y-176033678D01*
X78064733Y-176040754D01*
X77884432Y-176079063D01*
X77719533Y-176106174D01*
X77602543Y-176116601D01*
X77509834Y-176110401D01*
X77345101Y-176071404D01*
X77206615Y-176006266D01*
X77122925Y-175926312D01*
X77120747Y-175922484D01*
X77093924Y-175894929D01*
X77072954Y-175929673D01*
X77051106Y-176037101D01*
X77049926Y-176044042D01*
X77005275Y-176218984D01*
X76940072Y-176375053D01*
X76865157Y-176491025D01*
X76791372Y-176545671D01*
X76790242Y-176545937D01*
X76711166Y-176554234D01*
X76577729Y-176559035D01*
X76418179Y-176559308D01*
X76382839Y-176558642D01*
X76211273Y-176547253D01*
X76092581Y-176519198D01*
X76001102Y-176468917D01*
X75864401Y-176323101D01*
X75762675Y-176110054D01*
X75707876Y-175847118D01*
X75707583Y-175844289D01*
X75691673Y-175714161D01*
X75669365Y-175646398D01*
X75626701Y-175620660D01*
X75549726Y-175616601D01*
X75471474Y-175620850D01*
X75431098Y-175648587D01*
X75434988Y-175719241D01*
X75439825Y-175763166D01*
X75429043Y-175908553D01*
X75391415Y-176070454D01*
X75336106Y-176215562D01*
X75272281Y-176310567D01*
X75224374Y-176342464D01*
X75096661Y-176381120D01*
X74900117Y-176402144D01*
X74802465Y-176405570D01*
X74628961Y-176393172D01*
X74497183Y-176345884D01*
X74398758Y-176253999D01*
X74325313Y-176107814D01*
X74268474Y-175897623D01*
X74219868Y-175613722D01*
X74168996Y-175233867D01*
X74128660Y-174830429D01*
X74107365Y-174444055D01*
X74102570Y-174040670D01*
X74102690Y-174004185D01*
X74310575Y-174004185D01*
X74312962Y-174215774D01*
X74319852Y-174452407D01*
X74330797Y-174699131D01*
X74345347Y-174940996D01*
X74363054Y-175163050D01*
X74383469Y-175350343D01*
X74386757Y-175375294D01*
X74428944Y-175664648D01*
X74472382Y-175881113D01*
X74523095Y-176034327D01*
X74587107Y-176133928D01*
X74670441Y-176189553D01*
X74779123Y-176210842D01*
X74919176Y-176207433D01*
X74948884Y-176204509D01*
X75085269Y-176166571D01*
X75170689Y-176084291D01*
X75212346Y-175946424D01*
X75217443Y-175741724D01*
X75216677Y-175649181D01*
X75226977Y-175528843D01*
X75248054Y-175460197D01*
X75257410Y-175452223D01*
X75335791Y-175427649D01*
X75461368Y-175412193D01*
X75605846Y-175407138D01*
X75740928Y-175413772D01*
X75838320Y-175433378D01*
X75873453Y-175463365D01*
X75897615Y-175545749D01*
X75905209Y-175694051D01*
X75905223Y-175696764D01*
X75927286Y-175911484D01*
X75985238Y-176100590D01*
X76070929Y-176245077D01*
X76176207Y-176325942D01*
X76224734Y-176339623D01*
X76357118Y-176359518D01*
X76507241Y-176367340D01*
X76628634Y-176364972D01*
X76706005Y-176347842D01*
X76751635Y-176301015D01*
X76792521Y-176209560D01*
X76795230Y-176202728D01*
X76832102Y-176092708D01*
X76860935Y-175964969D01*
X76882604Y-175808571D01*
X76897986Y-175612571D01*
X76898189Y-175607555D01*
X77066468Y-175607555D01*
X77104997Y-175683917D01*
X77210246Y-175810267D01*
X77310329Y-175905326D01*
X77412238Y-175955111D01*
X77554334Y-175975340D01*
X77684333Y-175973168D01*
X77876030Y-175949547D01*
X78073094Y-175908095D01*
X78083406Y-175905428D01*
X78259429Y-175865467D01*
X78424317Y-175836925D01*
X78543615Y-175825825D01*
X78652610Y-175812722D01*
X78725745Y-175764118D01*
X78722879Y-175687001D01*
X78640807Y-175589174D01*
X78630433Y-175580489D01*
X78534408Y-175517192D01*
X78456565Y-175491006D01*
X78418010Y-175497606D01*
X78309430Y-175528682D01*
X78156904Y-175579466D01*
X77980469Y-175643535D01*
X77575035Y-175796537D01*
X77361431Y-175685715D01*
X77349683Y-175679649D01*
X77188963Y-175605296D01*
X77094508Y-175581306D01*
X77066468Y-175607555D01*
X76898189Y-175607555D01*
X76907955Y-175366027D01*
X76913389Y-175057999D01*
X76915163Y-174677543D01*
X76913438Y-174288538D01*
X76902367Y-173727040D01*
X76880956Y-173246047D01*
X76869056Y-173096011D01*
X77038133Y-173096011D01*
X77049775Y-173139702D01*
X77058400Y-173192108D01*
X77068490Y-173318851D01*
X77078615Y-173506220D01*
X77088224Y-173742242D01*
X77096767Y-174014945D01*
X77103694Y-174312359D01*
X77110782Y-174677543D01*
X77124926Y-175406310D01*
X77330437Y-175401680D01*
X77446242Y-175393078D01*
X77566632Y-175351697D01*
X77644702Y-175260947D01*
X77701670Y-175103804D01*
X77702797Y-175099498D01*
X77718763Y-174981506D01*
X77726817Y-174798413D01*
X77727371Y-174567176D01*
X77720835Y-174304749D01*
X77707621Y-174028088D01*
X77688138Y-173754148D01*
X77662798Y-173499883D01*
X77652465Y-173422975D01*
X77612637Y-173262069D01*
X77543636Y-173162171D01*
X77429748Y-173107118D01*
X77255255Y-173080747D01*
X77136611Y-173072387D01*
X77061493Y-173075175D01*
X77038133Y-173096011D01*
X76869056Y-173096011D01*
X76849080Y-172844144D01*
X76806615Y-172519914D01*
X76753438Y-172271943D01*
X76689425Y-172098815D01*
X76667150Y-172055799D01*
X76622495Y-171983894D01*
X76589719Y-171973575D01*
X76551858Y-172014438D01*
X76532059Y-172039246D01*
X76505705Y-172049624D01*
X76487454Y-172001628D01*
X76469576Y-171882901D01*
X76433818Y-171657187D01*
X76388330Y-171500699D01*
X76327950Y-171419820D01*
X76246197Y-171410588D01*
X76136592Y-171469041D01*
X75992656Y-171591214D01*
X75887718Y-171681457D01*
X75802081Y-171737201D01*
X75759649Y-171739940D01*
X75751821Y-171720569D01*
X75762384Y-171647785D01*
X75748336Y-171622602D01*
X75677037Y-171615857D01*
X75571619Y-171624630D01*
X75455355Y-171645772D01*
X75351519Y-171676135D01*
X75283384Y-171712573D01*
X75276162Y-171718944D01*
X75224375Y-171748160D01*
X75158491Y-171740742D01*
X75049284Y-171694422D01*
X75016098Y-171679803D01*
X74872876Y-171633462D01*
X74746904Y-171614075D01*
X74714162Y-171614007D01*
X74643764Y-171624903D01*
X74616135Y-171671260D01*
X74611353Y-171777029D01*
X74612172Y-171808425D01*
X74627879Y-171913286D01*
X74657263Y-171969772D01*
X74682373Y-172019586D01*
X74680326Y-172112380D01*
X74657479Y-172226615D01*
X75209530Y-172247680D01*
X75381154Y-172255514D01*
X75608836Y-172273593D01*
X75778161Y-172301683D01*
X75904738Y-172344045D01*
X76004174Y-172404941D01*
X76092076Y-172488631D01*
X76104028Y-172502573D01*
X76147404Y-172580020D01*
X76169328Y-172690528D01*
X76175393Y-172858956D01*
X76174795Y-172869026D01*
X76165230Y-173030221D01*
X76096502Y-173293890D01*
X75961637Y-173508433D01*
X75759122Y-173676820D01*
X75716737Y-173702530D01*
X75614097Y-173755982D01*
X75514934Y-173785612D01*
X75390323Y-173797885D01*
X75211339Y-173799267D01*
X75076956Y-173794208D01*
X74826512Y-173766362D01*
X74613647Y-173719594D01*
X74490423Y-173686591D01*
X74384235Y-173667389D01*
X74333070Y-173670472D01*
X74321102Y-173715941D01*
X74313138Y-173832590D01*
X74310575Y-174004185D01*
X74102690Y-174004185D01*
X74102797Y-173971801D01*
X74099216Y-173762650D01*
X74086808Y-173610455D01*
X74063111Y-173494533D01*
X74025666Y-173394200D01*
X73981273Y-173274810D01*
X73945631Y-173023178D01*
X73961635Y-172918095D01*
X74159495Y-172918095D01*
X74162290Y-173075520D01*
X74167799Y-173123332D01*
X74205563Y-173271080D01*
X74281473Y-173378511D01*
X74410544Y-173461087D01*
X74607794Y-173534272D01*
X74695329Y-173559317D01*
X74940023Y-173609899D01*
X75182794Y-173635923D01*
X75398377Y-173635472D01*
X75561510Y-173606630D01*
X75681548Y-173546440D01*
X75823614Y-173416141D01*
X75933164Y-173247560D01*
X76003911Y-173059066D01*
X76029570Y-172869026D01*
X76003852Y-172695809D01*
X75920472Y-172557784D01*
X75882674Y-172523013D01*
X75798485Y-172468213D01*
X75691730Y-172432354D01*
X75547303Y-172412804D01*
X75350098Y-172406927D01*
X75085009Y-172412089D01*
X74820294Y-172428146D01*
X74605188Y-172462603D01*
X74444865Y-172520085D01*
X74325082Y-172605817D01*
X74231591Y-172725022D01*
X74193305Y-172795278D01*
X74159495Y-172918095D01*
X73961635Y-172918095D01*
X73982804Y-172779092D01*
X74089033Y-172558810D01*
X74260558Y-172378588D01*
X74343769Y-172307364D01*
X74435837Y-172183519D01*
X74481410Y-172029661D01*
X74490638Y-171821198D01*
X74489898Y-171758894D01*
X74501070Y-171607704D01*
X74541402Y-171519513D01*
X74621926Y-171479749D01*
X74753678Y-171473842D01*
X74801197Y-171476726D01*
X74926261Y-171493950D01*
X75008688Y-171519025D01*
X75022263Y-171524963D01*
X75129061Y-171531203D01*
X75292351Y-171500382D01*
X75381818Y-171479314D01*
X75573901Y-171443216D01*
X75758316Y-171417733D01*
X75870425Y-171401692D01*
X76005338Y-171370311D01*
X76090831Y-171335374D01*
X76097060Y-171331241D01*
X76223165Y-171285682D01*
X76357166Y-171289176D01*
X76460960Y-171341131D01*
X76509030Y-171413138D01*
X76549518Y-171523578D01*
X76549532Y-171523644D01*
X76599391Y-171637694D01*
X76682108Y-171742972D01*
X76775510Y-171848913D01*
X76903505Y-172078887D01*
X76992280Y-172363025D01*
X77036321Y-172686633D01*
X77046709Y-172863891D01*
X77237318Y-172863891D01*
X77431586Y-172886768D01*
X77625168Y-172974698D01*
X77765750Y-173124919D01*
X77848242Y-173333518D01*
X77856313Y-173379470D01*
X77873036Y-173527640D01*
X77888831Y-173731166D01*
X77902684Y-173971102D01*
X77913580Y-174228499D01*
X77920507Y-174484409D01*
X77921190Y-174567176D01*
X77922449Y-174719885D01*
X77922167Y-174758913D01*
X77909714Y-175038790D01*
X77876499Y-175248601D01*
X77818696Y-175398795D01*
X77732482Y-175499816D01*
X77614029Y-175562112D01*
X77594272Y-175568890D01*
X77517559Y-175597846D01*
X77514443Y-175610396D01*
X77579877Y-175614247D01*
X77592030Y-175613896D01*
X77694692Y-175594369D01*
X77841145Y-175550910D01*
X78003902Y-175491477D01*
X78133479Y-175442378D01*
X78342010Y-175382532D01*
X78503690Y-175370274D01*
X78632802Y-175405540D01*
X78743626Y-175488269D01*
X78784705Y-175535528D01*
X78852455Y-175667852D01*
X78861139Y-175764118D01*
X78864175Y-175797772D01*
X78815491Y-175900213D01*
G37*
G36*
X76066463Y-173684844D02*
G01*
X76124612Y-173745600D01*
X76167652Y-173816268D01*
X76172708Y-173869221D01*
X76167278Y-173876895D01*
X76117418Y-173906584D01*
X76075906Y-173877071D01*
X76030452Y-173802646D01*
X76001073Y-173720203D01*
X76005138Y-173666828D01*
X76016077Y-173661628D01*
X76066463Y-173684844D01*
G37*
G36*
X76355519Y-173281082D02*
G01*
X76456546Y-173297258D01*
X76488201Y-173343530D01*
X76459027Y-173389873D01*
X76375674Y-173405481D01*
X76262219Y-173380775D01*
X76228217Y-173364900D01*
X76197150Y-173325072D01*
X76237878Y-173293695D01*
X76342224Y-173280968D01*
X76355519Y-173281082D01*
G37*
%TO.C,D47*%
X259180051Y-104158539D02*
X258618690Y-101517540D01*
X260893696Y-104765516D02*
X260134819Y-101195277D01*
%TO.C,D35*%
X225175521Y-150337625D02*
X224614160Y-147696626D01*
X226889166Y-150944602D02*
X226130289Y-147374363D01*
%TO.C,D44*%
X264156590Y-143023167D02*
X263397713Y-139452928D01*
X262442945Y-142416190D02*
X261881584Y-139775191D01*
%TO.C,D20*%
X142399789Y-128322581D02*
X143158666Y-124752342D01*
X141081176Y-127071078D02*
X141642537Y-124430079D01*
%TO.C,D1*%
X61426650Y-101668633D02*
X61426650Y-98018633D01*
X59876650Y-100718633D02*
X59876650Y-98018633D01*
%TO.C,D21*%
X143097456Y-147946475D02*
X143856333Y-144376236D01*
X141778843Y-146694972D02*
X142340204Y-144053973D01*
%TO.C,D53*%
X300836650Y-138818633D02*
X300836650Y-136118633D01*
X302386650Y-139768633D02*
X302386650Y-136118633D01*
%TD*%
M02*
