M48
; DRILL file {KiCad (6.0.7)} date Wed Oct 19 21:20:36 2022
; FORMAT={-:-/ absolute / inch / decimal}
; #@! TF.CreationDate,2022-10-19T21:20:36-04:00
; #@! TF.GenerationSoftware,Kicad,Pcbnew,(6.0.7)
; #@! TF.FileFunction,Plated,1,2,PTH
FMAT,2
INCH
; #@! TA.AperFunction,Plated,PTH,ViaDrill
T1C0.0157
; #@! TA.AperFunction,Plated,PTH,ComponentDrill
T2C0.0394
; #@! TA.AperFunction,Plated,PTH,ComponentDrill
T3C0.0523
; #@! TA.AperFunction,Plated,PTH,ComponentDrill
T4C0.0866
%
G90
G05
T1
X2.02Y-5.44
X2.11Y-4.76
X2.12Y-4.02
X2.35Y-5.55
X2.39Y-4.04
X2.41Y-4.79
X2.9528Y-3.9764
X3.0315Y-3.9764
X3.1496Y-4.7244
X3.189Y-5.4724
X3.248Y-4.7244
X3.2677Y-5.4724
X3.7008Y-3.937
X3.74Y-3.25
X3.74Y-3.48
X3.7992Y-3.937
X3.9567Y-4.7244
X4.0157Y-5.4724
X4.0605Y-4.7047
X4.1Y-5.4724
X4.2323Y-6.2795
X4.311Y-6.2795
X4.5079Y-4.0354
X4.5866Y-4.0551
X4.59Y-3.6295
X4.6358Y-3.4744
X4.7047Y-4.8425
X4.7441Y-5.6102
X4.8031Y-4.8622
X4.8228Y-5.6299
X5.2362Y-4.1929
X5.24Y-3.66
X5.27Y-3.72
X5.2873Y-3.7875
X5.3168Y-4.1929
X5.37Y-3.58
X5.41Y-3.66
X5.4528Y-5.0
X5.4921Y-5.7677
X5.5217Y-3.6713
X5.5315Y-5.0
X5.5315Y-6.5551
X5.5709Y-5.7874
X5.6299Y-6.5551
X5.6398Y-3.5433
X5.82Y-4.35
X5.99Y-3.5
X6.063Y-4.3504
X6.18Y-3.84
X6.1811Y-5.1575
X6.2205Y-5.9449
X6.2613Y-5.1772
X6.2626Y-3.3274
X6.2992Y-5.9449
X6.34Y-3.44
X6.4173Y-6.752
X6.42Y-3.56
X6.5157Y-6.752
X6.56Y-3.46
X6.6929Y-4.4602
X6.752Y-3.4252
X6.76Y-3.48
X6.83Y-3.47
X6.84Y-3.62
X6.89Y-4.5
X6.9Y-3.74
X7.0Y-4.61
X7.0079Y-3.28
X7.0768Y-3.3465
X7.0892Y-3.3091
X7.0965Y-3.4449
X7.11Y-3.54
X7.126Y-4.4882
X7.126Y-4.5669
X7.1285Y-3.2845
X7.14Y-3.96
X7.1691Y-3.4707
X7.186Y-3.6959
X7.1986Y-3.5122
X7.2098Y-3.9282
X7.28Y-3.3206
X7.28Y-3.36
X7.302Y-3.6204
X7.3029Y-3.5746
X7.3228Y-5.0787
X7.3228Y-5.3445
X7.3228Y-5.4134
X7.3228Y-6.0236
X7.3228Y-6.1024
X7.3228Y-6.747
X7.3228Y-6.811
X7.3277Y-3.8994
X7.33Y-3.78
X7.34Y-4.84
X7.35Y-4.03
X7.3589Y-3.2811
X7.3622Y-5.0984
X7.3622Y-5.3445
X7.3622Y-5.4134
X7.3622Y-6.0236
X7.3622Y-6.1024
X7.3743Y-3.8971
X7.38Y-4.87
X7.38Y-4.11
X7.3819Y-4.2126
X7.3819Y-4.4882
X7.3819Y-4.5669
X7.3831Y-4.3122
X7.4016Y-5.1181
X7.4016Y-5.3445
X7.4016Y-5.4134
X7.41Y-3.68
X7.42Y-4.89
X7.4213Y-4.5669
X7.4213Y-4.4882
X7.4224Y-4.2728
X7.4266Y-3.8901
X7.4538Y-5.1219
X7.4594Y-4.1524
X7.46Y-4.89
X7.4606Y-4.4882
X7.4606Y-4.5669
X7.4618Y-4.2335
X7.466Y-3.89
X7.52Y-3.88
X7.5295Y-4.2126
X7.54Y-3.25
X7.54Y-3.74
X7.56Y-4.13
X7.57Y-3.81
X7.5787Y-5.374
X7.58Y-3.69
X7.6095Y-3.6176
X7.61Y-3.77
X7.62Y-3.47
X7.6575Y-5.374
X7.6767Y-3.8827
X7.7072Y-3.6685
X7.7169Y-4.0109
X7.72Y-3.5605
X7.72Y-3.72
X7.7418Y-3.6873
X7.75Y-4.22
X7.75Y-4.56
X7.77Y-3.29
X7.77Y-3.59
X7.78Y-3.47
X7.7971Y-3.8668
X7.8495Y-4.1118
X7.85Y-4.1905
X7.85Y-4.1511
X7.86Y-4.0738
X7.88Y-3.94
X7.9066Y-3.9866
X7.9134Y-6.063
X7.92Y-3.45
X7.92Y-3.83
X7.93Y-3.29
X7.94Y-3.56
X7.98Y-3.9203
X7.9921Y-4.5472
X7.9921Y-6.063
X8.02Y-3.8986
X8.06Y-3.879
X8.08Y-3.51
X8.15Y-3.72
X8.18Y-3.45
X8.206Y-3.784
X8.234Y-3.756
X8.266Y-3.4868
X8.27Y-3.43
X8.2874Y-5.2953
X8.294Y-3.5147
X8.3126Y-3.7601
X8.4055Y-5.2756
X8.4083Y-3.7609
X8.43Y-3.52
X8.4646Y-3.879
X8.5004Y-3.7613
X8.58Y-3.87
X8.59Y-4.42
X8.5941Y-3.7605
X8.6024Y-5.9843
X8.63Y-4.0
X8.64Y-3.84
X8.6417Y-6.752
X8.6614Y-4.4685
X8.7598Y-5.9646
X8.7764Y-3.8354
X8.7795Y-6.7323
X8.79Y-4.04
X8.81Y-4.47
X9.0157Y-5.1378
X9.1339Y-5.1181
X9.18Y-3.58
X9.19Y-3.46
X9.28Y-3.66
X9.3504Y-5.8268
X9.3898Y-4.311
X9.39Y-3.49
X9.3969Y-3.2392
X9.3976Y-3.3829
X9.4Y-5.93
X9.44Y-3.59
X9.4685Y-5.8071
X9.53Y-4.31
X9.6098Y-3.5128
X9.74Y-4.98
X9.87Y-4.95
X9.9508Y-3.5935
X9.9917Y-3.4554
X10.0984Y-5.6693
X10.1575Y-4.1535
X10.1969Y-6.4173
X10.2165Y-5.6496
X10.27Y-4.15
X10.3346Y-6.3976
X10.56Y-4.81
X10.65Y-4.79
X10.6791Y-3.5039
X10.9055Y-3.9567
X10.9055Y-5.5118
X11.01Y-3.97
X11.0236Y-5.4921
X11.32Y-4.74
X11.43Y-4.74
X11.5551Y-3.3858
X11.6142Y-3.9764
X11.69Y-3.93
X11.9094Y-5.5315
X12.0079Y-5.4724
X12.2146Y-3.5433
X12.31Y-4.75
X12.39Y-4.73
X12.59Y-3.94
X12.6362Y-3.978
X12.64Y-3.89
X12.7362Y-3.9764
X12.874Y-5.4921
X12.9134Y-6.2992
X12.9921Y-3.5827
X13.01Y-4.73
X13.0118Y-5.4724
X13.0709Y-6.3189
X13.1Y-4.73
X13.3268Y-5.4921
X13.33Y-5.27
X13.39Y-5.16
X13.4646Y-5.4724
X13.5433Y-6.3976
X13.6417Y-6.3976
X13.9535Y-3.91
X14.03Y-3.83
X14.0945Y-4.7441
X14.2323Y-4.626
X14.311Y-5.748
X14.4094Y-5.689
T2
X5.7425Y-3.3349
X5.7425Y-3.4349
X5.8425Y-3.3349
X5.8425Y-3.4349
X5.9425Y-3.3349
X5.9425Y-3.4349
X6.0425Y-3.3349
X6.0425Y-3.4349
X6.1425Y-3.3349
X6.1425Y-3.4349
X6.428Y-3.266
X6.528Y-3.266
X6.628Y-3.266
X6.728Y-3.266
X14.94Y-5.59
X14.94Y-5.69
X14.94Y-5.79
X14.94Y-5.89
T3
X8.2193Y-3.29
X8.5007Y-3.29
T4
X2.6667Y-6.7635
X2.8898Y-4.1385
X4.9802Y-6.9875
X5.4474Y-3.3388
X9.6744Y-3.3388
X10.1416Y-6.9875
X14.0833Y-3.951
X14.2514Y-6.576
T0
M30
