M48
; DRILL file {KiCad (6.0.7)} date Wed Oct 19 21:20:36 2022
; FORMAT={-:-/ absolute / inch / decimal}
; #@! TF.CreationDate,2022-10-19T21:20:36-04:00
; #@! TF.GenerationSoftware,Kicad,Pcbnew,(6.0.7)
; #@! TF.FileFunction,NonPlated,1,2,NPTH
FMAT,2
INCH
; #@! TA.AperFunction,NonPlated,NPTH,ComponentDrill
T1C0.0689
; #@! TA.AperFunction,NonPlated,NPTH,ComponentDrill
T2C0.1181
; #@! TA.AperFunction,NonPlated,NPTH,ComponentDrill
T3C0.1200
; #@! TA.AperFunction,NonPlated,NPTH,ComponentDrill
T4C0.1570
%
G90
G05
T1
X2.0144Y-6.7635
X2.2722Y-5.2635
X2.2953Y-6.0135
X2.3148Y-3.7635
X2.3385Y-4.5135
X2.4144Y-6.7635
X2.6722Y-5.2635
X2.6953Y-6.0135
X2.7148Y-3.7635
X2.7385Y-4.5135
X3.0648Y-3.7635
X3.2759Y-4.5135
X3.3034Y-5.2635
X3.4648Y-3.7635
X3.514Y-6.0135
X3.6759Y-4.5135
X3.7034Y-5.2635
X3.8148Y-3.7045
X3.914Y-6.0135
X4.0874Y-4.4847
X4.1149Y-5.2573
X4.2148Y-3.7045
X4.3257Y-6.0689
X4.3532Y-6.8415
X4.4787Y-4.5679
X4.5061Y-5.3405
X4.6101Y-3.8291
X4.717Y-6.152
X4.7445Y-6.9246
X4.821Y-4.6406
X4.8485Y-5.4132
X5.0014Y-3.9122
X5.0593Y-6.2248
X5.2123Y-4.7238
X5.2397Y-5.4964
X5.3438Y-3.985
X5.4506Y-6.308
X5.5546Y-4.7966
X5.5821Y-5.5692
X5.637Y-7.1143
X5.735Y-4.0682
X5.793Y-6.3807
X5.9459Y-4.8797
X5.9733Y-5.6523
X6.0283Y-7.1975
X6.0774Y-4.1409
X6.1842Y-6.4639
X6.2882Y-4.9525
X6.3157Y-5.7251
X6.4686Y-4.2241
X6.5266Y-6.5367
X6.6795Y-5.0357
X6.707Y-5.8083
X6.7374Y-7.3482
X6.811Y-4.2969
X6.9178Y-6.6198
X7.1287Y-7.4314
X7.2022Y-4.38
X7.7087Y-5.1916
X7.9195Y-4.38
X8.048Y-5.8862
X8.0999Y-5.1084
X8.3108Y-4.2968
X8.3873Y-6.5808
X8.4393Y-5.803
X8.4423Y-5.0356
X8.6532Y-4.2241
X8.7786Y-6.4977
X8.7816Y-5.7303
X8.8184Y-7.256
X8.8335Y-4.9525
X9.0444Y-4.1409
X9.121Y-6.4249
X9.1729Y-5.6471
X9.1759Y-4.8797
X9.2096Y-7.1728
X9.3868Y-4.0681
X9.5122Y-6.3417
X9.5152Y-5.5743
X9.5672Y-4.7965
X9.778Y-3.985
X9.8546Y-6.269
X9.9065Y-5.4912
X9.9095Y-4.7238
X10.1204Y-3.9122
X10.2458Y-6.1858
X10.2488Y-5.4184
X10.3008Y-4.6406
X10.3773Y-6.9246
X10.5116Y-3.829
X10.5882Y-6.113
X10.6401Y-5.3352
X10.6431Y-4.5678
X10.7686Y-6.8414
X10.9066Y-3.7045
X10.9794Y-6.0299
X11.0344Y-4.4847
X11.0514Y-5.2635
X11.3066Y-3.7045
X11.4264Y-6.0135
X11.4455Y-4.5135
X11.4514Y-5.2635
X11.6566Y-3.7635
X11.8014Y-5.2635
X11.8264Y-6.0135
X11.8455Y-4.5135
X12.0566Y-3.7635
X12.1955Y-4.5135
X12.2014Y-5.2635
X12.4066Y-3.7635
X12.4577Y-6.0135
X12.5955Y-4.5135
X12.8066Y-3.7635
X12.8577Y-6.0135
X12.9264Y-6.951
X13.0202Y-5.2635
X13.1333Y-4.5135
X13.1566Y-3.7635
X13.3264Y-6.951
X13.4202Y-5.2635
X13.5333Y-4.5135
X13.5566Y-3.7635
X13.6764Y-6.201
X13.6764Y-6.951
X14.0764Y-6.201
X14.0764Y-6.951
X14.0941Y-3.576
X14.2583Y-4.326
X14.4264Y-5.076
X14.4264Y-6.951
X14.4941Y-3.576
X14.6583Y-4.326
X14.8264Y-5.076
X14.8264Y-6.951
T2
X2.0644Y-6.6635
X2.3144Y-6.5635
X2.3222Y-5.1635
X2.3453Y-5.9135
X2.3648Y-3.6635
X2.3885Y-4.4135
X2.5722Y-5.0635
X2.5953Y-5.8135
X2.6148Y-3.5635
X2.6385Y-4.3135
X3.1148Y-3.6635
X3.3259Y-4.4135
X3.3534Y-5.1635
X3.3648Y-3.5635
X3.564Y-5.9135
X3.5759Y-4.3135
X3.6034Y-5.0635
X3.814Y-5.8135
X3.8648Y-3.6045
X4.1148Y-3.5045
X4.1571Y-4.3973
X4.1846Y-5.1699
X4.3954Y-5.9814
X4.4224Y-4.3514
X4.4229Y-6.754
X4.4499Y-5.124
X4.6608Y-5.9356
X4.6798Y-3.7416
X4.6882Y-6.7082
X4.8907Y-4.5532
X4.9182Y-5.3258
X4.9452Y-3.6958
X5.129Y-6.1374
X5.156Y-4.5074
X5.1835Y-5.28
X5.3944Y-6.0915
X5.4135Y-3.8976
X5.6243Y-4.7091
X5.6518Y-5.4817
X5.6788Y-3.8517
X5.7067Y-7.0269
X5.8627Y-6.2933
X5.8896Y-4.6633
X5.9171Y-5.4359
X5.9721Y-6.9811
X6.128Y-6.2475
X6.1471Y-4.0535
X6.3579Y-4.8651
X6.3854Y-5.6377
X6.4124Y-4.0077
X6.5963Y-6.4493
X6.6233Y-4.8192
X6.6507Y-5.5918
X6.8071Y-7.2608
X6.8616Y-6.4034
X6.8807Y-4.2094
X7.0725Y-7.215
X7.146Y-4.1636
X7.7368Y-5.0834
X7.9477Y-4.2718
X7.9605Y-4.9336
X8.0761Y-5.778
X8.1714Y-4.122
X8.2999Y-5.6282
X8.4155Y-6.4726
X8.4704Y-4.9274
X8.6392Y-6.3228
X8.6813Y-4.1158
X8.6941Y-4.7776
X8.8097Y-5.6221
X8.8465Y-7.1477
X8.905Y-3.9661
X9.0335Y-5.4723
X9.0702Y-6.998
X9.1491Y-6.3167
X9.204Y-4.7715
X9.3728Y-6.1669
X9.4149Y-3.9599
X9.4278Y-4.6217
X9.5433Y-5.4661
X9.6386Y-3.8101
X9.7671Y-5.3163
X9.8827Y-6.1607
X9.9376Y-4.6156
X10.1064Y-6.011
X10.1485Y-3.804
X10.1614Y-4.4658
X10.277Y-5.3102
X10.3722Y-3.6542
X10.4054Y-6.8164
X10.5007Y-5.1604
X10.6163Y-6.0048
X10.6292Y-6.6666
X10.6712Y-4.4596
X10.84Y-5.855
X10.895Y-4.3098
X10.9566Y-3.6045
X11.1014Y-5.1635
X11.2066Y-3.5045
X11.3514Y-5.0635
X11.4764Y-5.9135
X11.4955Y-4.4135
X11.7066Y-3.6635
X11.7264Y-5.8135
X11.7455Y-4.3135
X11.8514Y-5.1635
X11.9566Y-3.5635
X12.1014Y-5.0635
X12.2455Y-4.4135
X12.4566Y-3.6635
X12.4955Y-4.3135
X12.5077Y-5.9135
X12.7066Y-3.5635
X12.7577Y-5.8135
X12.9764Y-6.851
X13.0702Y-5.1635
X13.1833Y-4.4135
X13.2066Y-3.6635
X13.2264Y-6.751
X13.3202Y-5.0635
X13.4333Y-4.3135
X13.4566Y-3.5635
X13.7264Y-6.101
X13.7264Y-6.851
X13.9764Y-6.001
X13.9764Y-6.751
X14.1441Y-3.476
X14.3083Y-4.226
X14.3941Y-3.376
X14.4764Y-4.976
X14.4764Y-6.851
X14.5583Y-4.126
X14.7264Y-4.876
X14.7264Y-6.751
T3
X2.0253Y-5.7385
X2.9653Y-5.7385
X5.3157Y-7.3272
X6.2352Y-7.5226
X8.6115Y-7.5811
X9.5309Y-7.3856
X12.7502Y-5.5385
X13.6902Y-5.5385
T4
X2.0253Y-6.3385
X2.2144Y-6.7635
X2.4722Y-5.2635
X2.4953Y-6.0135
X2.5148Y-3.7635
X2.5385Y-4.5135
X2.9653Y-6.3385
X3.2648Y-3.7635
X3.4759Y-4.5135
X3.5034Y-5.2635
X3.714Y-6.0135
X4.0148Y-3.7045
X4.283Y-4.5263
X4.3105Y-5.2989
X4.5214Y-6.1105
X4.5488Y-6.883
X4.8058Y-3.8706
X5.0166Y-4.6822
X5.0441Y-5.4548
X5.255Y-6.2664
X5.4405Y-6.7403
X5.5394Y-4.0266
X5.7503Y-4.8381
X5.7777Y-5.6107
X5.8327Y-7.1559
X5.9886Y-6.4223
X6.273Y-4.1825
X6.36Y-6.9357
X6.4839Y-4.9941
X6.5113Y-5.7667
X6.7222Y-6.5783
X6.9331Y-7.3898
X7.0066Y-4.3384
X7.9043Y-5.15
X8.1152Y-4.3384
X8.2436Y-5.8446
X8.4867Y-6.9942
X8.583Y-6.5392
X8.6379Y-4.9941
X8.8488Y-4.1825
X8.9772Y-5.6887
X9.014Y-7.2144
X9.3166Y-6.3833
X9.3715Y-4.8381
X9.4062Y-6.7988
X9.5824Y-4.0265
X9.7109Y-5.5327
X10.0502Y-6.2274
X10.1051Y-4.6822
X10.316Y-3.8706
X10.4445Y-5.3768
X10.5729Y-6.883
X10.7838Y-6.0714
X10.8387Y-4.5263
X11.1066Y-3.7045
X11.2514Y-5.2635
X11.6264Y-6.0135
X11.6455Y-4.5135
X11.8566Y-3.7635
X12.0014Y-5.2635
X12.3955Y-4.5135
X12.6066Y-3.7635
X12.6577Y-6.0135
X12.7502Y-4.9385
X13.1264Y-6.951
X13.2202Y-5.2635
X13.3333Y-4.5135
X13.3566Y-3.7635
X13.6902Y-4.9385
X13.8764Y-6.201
X13.8764Y-6.951
X14.2941Y-3.576
X14.4583Y-4.326
X14.6264Y-5.076
X14.6264Y-6.951
T0
M30
